SplineFontDB: 3.0
FontName: PARPG
FullName: PARPG
FamilyName: PARPG
Weight: Book
Copyright: 
Version: 1.0
ItalicAngle: 0
UnderlinePosition: 0
UnderlineWidth: 0
Ascent: 819
Descent: 205
sfntRevision: 0x00000000
LayerCount: 2
Layer: 0 1 "Warstwa t+AUIA-a"  1
Layer: 1 1 "Plan pierwszy"  0
XUID: [1021 396 23952 8521]
FSType: 8
OS2Version: 0
OS2_WeightWidthSlopeOnly: 0
OS2_UseTypoMetrics: 1
CreationTime: 1288973629
ModificationTime: 1318756398
PfmFamily: 49
TTFWeight: 400
TTFWidth: 5
LineGap: 92
VLineGap: 0
Panose: 2 0 5 9 0 0 0 0 0 0
OS2TypoAscent: 0
OS2TypoAOffset: 1
OS2TypoDescent: 0
OS2TypoDOffset: 1
OS2TypoLinegap: 92
OS2WinAscent: 0
OS2WinAOffset: 1
OS2WinDescent: 0
OS2WinDOffset: 1
HheadAscent: 0
HheadAOffset: 1
HheadDescent: 0
HheadDOffset: 1
OS2SubXSize: 665
OS2SubYSize: 716
OS2SubXOff: 0
OS2SubYOff: 143
OS2SupXSize: 665
OS2SupYSize: 716
OS2SupXOff: 0
OS2SupYOff: 491
OS2StrikeYSize: 51
OS2StrikeYPos: 265
OS2Vendor: 'PfEd'
OS2CodePages: 00000001.00000000
OS2UnicodeRanges: 00000001.00000000.00000000.00000000
MarkAttachClasses: 1
DEI: 91125
ShortTable: maxp 16
  1
  0
  176
  386
  8
  0
  0
  2
  0
  1
  1
  0
  64
  0
  0
  0
EndShort
LangName: 1033 "" "" "Regular" "FontForge 2.0 : PARPG : 5-11-2010" "" "Version 1.0" 
GaspTable: 1 65535 2
Encoding: UnicodeBmp
UnicodeInterp: none
NameList: Adobe Glyph List
DisplaySize: -24
AntiAlias: 1
FitToEm: 1
WinInfo: 56 14 8
BeginChars: 65538 176

StartChar: glyph
Encoding: 33 33 3
Width: 734
GlyphClass: 2
Flags: W
LayerCount: 2
Fore
SplineSet
564 940 m 0,0,1
 561 940 561 940 558 939 c 0,2,3
 540 932 540 932 493 931 c 0,4,5
 483 930 483 930 476 922.5 c 128,-1,6
 469 915 469 915 466.5 909 c 128,-1,7
 464 903 464 903 460 891 c 0,8,9
 450 862 450 862 464 841 c 1,10,11
 473 801 473 801 478 725 c 128,-1,12
 483 649 483 649 488 618 c 1,13,14
 488 607 488 607 495.5 590 c 128,-1,15
 503 573 503 573 504 567 c 0,16,17
 506 557 506 557 507.5 527.5 c 128,-1,18
 509 498 509 498 514 482 c 0,19,20
 517 471 517 471 523 465 c 0,21,22
 532 456 532 456 548.5 456.5 c 128,-1,23
 565 457 565 457 568 471 c 1,24,25
 570 489 570 489 569.5 521 c 128,-1,26
 569 553 569 553 571 570 c 1,27,28
 569 581 569 581 578 593.5 c 128,-1,29
 587 606 587 606 588 611 c 0,30,31
 603 664 603 664 603 762 c 1,32,33
 601 858 601 858 590 907 c 0,34,35
 583 941 583 941 564 940 c 0,0,1
567 321 m 1,36,37
 549 319 549 319 517 306 c 1,38,39
 481 293 481 293 472 267 c 128,-1,40
 463 241 463 241 481 205 c 0,41,42
 487 191 487 191 492 186 c 0,43,44
 502 175 502 175 533 174 c 0,45,46
 575 173 575 173 589 175 c 256,47,48
 603 177 603 177 607 188 c 1,49,50
 612 207 612 207 612 227 c 0,51,52
 611 269 611 269 591 302 c 0,53,54
 579 321 579 321 567 321 c 1,36,37
EndSplineSet
Validated: 2097193
EndChar

StartChar: glyph
Encoding: 34 34 4
Width: 734
GlyphClass: 2
Flags: W
LayerCount: 2
Fore
SplineSet
351 1043 m 0,0,1
 327 1043 327 1043 319 1028 c 0,2,3
 299 995 299 995 314 940 c 1,4,5
 320 924 320 924 326.5 901 c 128,-1,6
 333 878 333 878 333 860 c 1,7,8
 329 841 329 841 335 802 c 1,9,10
 341 780 341 780 346.5 750 c 128,-1,11
 352 720 352 720 350 697 c 1,12,13
 347 686 347 686 348 671.5 c 128,-1,14
 349 657 349 657 359 649 c 1,15,-1
 364 646 l 1,16,17
 373 638 373 638 385 641 c 128,-1,18
 397 644 397 644 398 658 c 1,19,20
 403 680 403 680 405.5 727.5 c 128,-1,21
 408 775 408 775 414 800 c 1,22,23
 414 808 414 808 425 818.5 c 128,-1,24
 436 829 436 829 434 837 c 0,25,26
 433 838 433 838 429 844 c 128,-1,27
 425 850 425 850 423 853.5 c 128,-1,28
 421 857 421 857 418.5 862 c 128,-1,29
 416 867 416 867 416.5 872 c 128,-1,30
 417 877 417 877 419 882 c 0,31,32
 439 925 439 925 442 960 c 0,33,34
 445 1002 445 1002 433 1017 c 1,35,36
 413 1034 413 1034 368 1042 c 0,37,38
 358 1043 358 1043 351 1043 c 0,0,1
714 1041 m 0,39,40
 682 1041 682 1041 649 1012 c 0,41,42
 635 999 635 999 629.5 982.5 c 128,-1,43
 624 966 624 966 633 949 c 1,44,45
 653 927 653 927 653 894 c 1,46,47
 654 883 654 883 668.5 878 c 128,-1,48
 683 873 683 873 685 870 c 0,49,50
 689 860 689 860 675.5 850.5 c 128,-1,51
 662 841 662 841 660 839 c 0,52,53
 653 826 653 826 653 810.5 c 128,-1,54
 653 795 653 795 662 783 c 1,55,56
 668 779 668 779 670.5 771.5 c 128,-1,57
 673 764 673 764 672.5 757 c 128,-1,58
 672 750 672 750 672 743 c 0,59,60
 664 677 664 677 676 647 c 1,61,62
 684 630 684 630 695 626 c 256,63,64
 706 622 706 622 715 630 c 128,-1,65
 724 638 724 638 728 651 c 1,66,67
 733 677 733 677 734 714 c 128,-1,68
 735 751 735 751 735 778 c 0,69,70
 735 789 735 789 736.5 805 c 128,-1,71
 738 821 738 821 742 831 c 1,72,73
 748 834 748 834 750.5 840 c 128,-1,74
 753 846 753 846 754.5 855.5 c 128,-1,75
 756 865 756 865 756 868 c 0,76,77
 766 945 766 945 756 993 c 0,78,79
 747 1038 747 1038 717 1041 c 0,80,81
 715 1041 715 1041 714 1041 c 0,39,40
EndSplineSet
Validated: 2097193
EndChar

StartChar: glyph
Encoding: 37 37 5
Width: 734
GlyphClass: 2
Flags: W
LayerCount: 2
Fore
SplineSet
815 1030 m 0,0,1
 800 1030 800 1030 788.5 1018 c 128,-1,2
 777 1006 777 1006 776 991 c 1,3,4
 777 974 777 974 768 959 c 128,-1,5
 759 944 759 944 744 941 c 1,6,7
 731 928 731 928 715.5 898 c 128,-1,8
 700 868 700 868 692 857 c 1,9,10
 683 850 683 850 671.5 831 c 128,-1,11
 660 812 660 812 657 808 c 1,12,13
 637 794 637 794 639 767 c 1,14,15
 637 765 637 765 631.5 758 c 128,-1,16
 626 751 626 751 624 745.5 c 128,-1,17
 622 740 622 740 623 733 c 1,18,19
 623 723 623 723 612.5 710 c 128,-1,20
 602 697 602 697 601 689 c 1,21,22
 603 670 603 670 585 655 c 1,23,24
 587 644 587 644 578 629.5 c 128,-1,25
 569 615 569 615 568 608 c 1,26,-1
 568 605 l 1,27,-1
 569 603 l 1,28,29
 581 596 581 596 592.5 599 c 128,-1,30
 604 602 604 602 614 610 c 1,31,32
 638 643 638 643 654 658 c 0,33,34
 683 684 683 684 680 715 c 1,35,36
 682 733 682 733 702.5 755.5 c 128,-1,37
 723 778 723 778 727 790 c 1,38,39
 729 809 729 809 757 841 c 1,40,41
 766 849 766 849 773 869 c 128,-1,42
 780 889 780 889 783 894 c 1,43,44
 795 897 795 897 798.5 913.5 c 128,-1,45
 802 930 802 930 808 934 c 0,46,47
 815 939 815 939 817 956.5 c 128,-1,48
 819 974 819 974 829 979 c 1,49,50
 838 1017 838 1017 824 1029 c 1,51,52
 819 1030 819 1030 815 1030 c 0,0,1
361 934 m 0,53,54
 346 933 346 933 337 925 c 0,55,56
 311 902 311 902 271 880 c 0,57,58
 266 878 266 878 251 864.5 c 128,-1,59
 236 851 236 851 223 854 c 1,60,61
 213 851 213 851 207 842.5 c 128,-1,62
 201 834 201 834 195 821 c 128,-1,63
 189 808 189 808 186 803 c 0,64,65
 170 766 170 766 153 752 c 1,66,67
 154 741 154 741 150.5 731.5 c 128,-1,68
 147 722 147 722 138.5 708.5 c 128,-1,69
 130 695 130 695 128 691 c 1,70,71
 130 682 130 682 121.5 672.5 c 128,-1,72
 113 663 113 663 112 660 c 0,73,74
 107 651 107 651 120 636 c 0,75,76
 129 626 129 626 117 622 c 1,77,78
 111 615 111 615 111.5 609 c 128,-1,79
 112 603 112 603 116.5 599 c 128,-1,80
 121 595 121 595 126 590 c 1,81,82
 129 541 129 541 162 497 c 1,83,84
 171 482 171 482 191.5 480 c 128,-1,85
 212 478 212 478 227 481 c 1,86,87
 233 481 233 481 248 482.5 c 128,-1,88
 263 484 263 484 273.5 482.5 c 128,-1,89
 284 481 284 481 290 473 c 1,90,91
 295 464 295 464 314 461 c 1,92,93
 329 457 329 457 336 464 c 128,-1,94
 343 471 343 471 349 484.5 c 128,-1,95
 355 498 355 498 362 503 c 0,96,97
 368 508 368 508 381.5 515 c 128,-1,98
 395 522 395 522 403 529.5 c 128,-1,99
 411 537 411 537 412 550 c 1,100,101
 416 566 416 566 438 578.5 c 128,-1,102
 460 591 460 591 466 598 c 0,103,104
 476 611 476 611 480 627.5 c 128,-1,105
 484 644 484 644 484.5 671 c 128,-1,106
 485 698 485 698 486 705 c 1,107,108
 484 716 484 716 488 722.5 c 128,-1,109
 492 729 492 729 502 734.5 c 128,-1,110
 512 740 512 740 515 743 c 1,111,112
 517 754 517 754 509 772.5 c 128,-1,113
 501 791 501 791 503 801 c 1,114,115
 502 806 502 806 507 821.5 c 128,-1,116
 512 837 512 837 510.5 845.5 c 128,-1,117
 509 854 509 854 495 853 c 1,118,119
 491 845 491 845 487.5 844 c 128,-1,120
 484 843 484 843 481 847.5 c 128,-1,121
 478 852 478 852 475.5 857.5 c 128,-1,122
 473 863 473 863 469.5 869.5 c 128,-1,123
 466 876 466 876 464 879 c 0,124,125
 456 895 456 895 441.5 904 c 128,-1,126
 427 913 427 913 412 908 c 1,127,128
 409 895 409 895 396 894.5 c 128,-1,129
 383 894 383 894 384 909 c 1,130,131
 386 922 386 922 379 928.5 c 128,-1,132
 372 935 372 935 361 934 c 0,53,54
331 817 m 1,133,134
 337 817 337 817 348.5 807 c 128,-1,135
 360 797 360 797 365 804 c 0,136,137
 376 820 376 820 390 806.5 c 128,-1,138
 404 793 404 793 406 777 c 1,139,140
 404 764 404 764 413 746 c 128,-1,141
 422 728 422 728 422 719 c 0,142,143
 425 661 425 661 417 639 c 1,144,145
 412 636 412 636 409.5 628 c 128,-1,146
 407 620 407 620 406.5 612.5 c 128,-1,147
 406 605 406 605 401.5 599.5 c 128,-1,148
 397 594 397 594 387 595 c 1,149,150
 370 571 370 571 336 568 c 1,151,152
 330 571 330 571 324.5 576 c 128,-1,153
 319 581 319 581 313 588.5 c 128,-1,154
 307 596 307 596 304 599 c 1,155,-1
 299 576 l 2,156,157
 298 573 298 573 296.5 565.5 c 128,-1,158
 295 558 295 558 293.5 552.5 c 128,-1,159
 292 547 292 547 289 543 c 1,160,161
 287 557 287 557 268 576.5 c 128,-1,162
 249 596 249 596 247 609 c 0,163,164
 244 626 244 626 244 645 c 128,-1,165
 244 664 244 664 244.5 687.5 c 128,-1,166
 245 711 245 711 245 723 c 1,167,168
 247 732 247 732 245.5 743.5 c 128,-1,169
 244 755 244 755 248 764.5 c 128,-1,170
 252 774 252 774 263 774 c 0,171,172
 276 775 276 775 291.5 796.5 c 128,-1,173
 307 818 307 818 325 816 c 1,174,175
 328 818 328 818 331 817 c 1,133,134
426 810 m 0,176,177
 427 810 427 810 429 807 c 1,178,-1
 430 803 l 1,179,-1
 431 798 l 1,180,181
 427 784 427 784 424.5 796.5 c 128,-1,182
 422 809 422 809 426 810 c 0,176,177
722 480 m 0,183,184
 708 480 708 480 697 477 c 0,185,186
 678 472 678 472 651.5 448 c 128,-1,187
 625 424 625 424 613 418 c 1,188,189
 606 412 606 412 586 407.5 c 128,-1,190
 566 403 566 403 560 394 c 1,191,192
 555 351 555 351 557 301 c 0,193,194
 558 273 558 273 566 252 c 1,195,196
 564 255 564 255 563 256 c 0,197,198
 557 266 557 266 537 273 c 0,199,200
 521 279 521 279 520 270 c 0,201,202
 519 251 519 251 514 246 c 1,203,204
 504 239 504 239 507 232 c 1,205,206
 510 220 510 220 520.5 199.5 c 128,-1,207
 531 179 531 179 533 174 c 0,208,209
 543 150 543 150 544 142 c 1,210,211
 547 131 547 131 561 113 c 0,212,213
 570 103 570 103 574 99 c 1,214,215
 573 74 573 74 574 58 c 0,216,217
 575 57 575 57 575 51.5 c 128,-1,218
 575 46 575 46 576.5 43 c 128,-1,219
 578 40 578 40 582 39 c 1,220,221
 597 41 597 41 626 49.5 c 128,-1,222
 655 58 655 58 671 59 c 1,223,224
 682 63 682 63 688.5 50 c 128,-1,225
 695 37 695 37 704 37 c 0,226,227
 741 40 741 40 782 85 c 0,228,229
 791 95 791 95 802.5 110 c 128,-1,230
 814 125 814 125 817 139 c 1,231,232
 822 147 822 147 842 150 c 128,-1,233
 862 153 862 153 866 166 c 1,234,235
 867 176 867 176 869.5 199.5 c 128,-1,236
 872 223 872 223 874 236 c 0,237,238
 875 249 875 249 880 266.5 c 128,-1,239
 885 284 885 284 896 291 c 1,240,241
 908 301 908 301 910.5 320 c 128,-1,242
 913 339 913 339 910 352 c 1,243,244
 908 368 908 368 903 357 c 0,245,246
 897 342 897 342 894 340 c 1,247,248
 895 349 895 349 894 371 c 0,249,250
 894 393 894 393 893 410 c 1,251,-1
 893 415 l 1,252,-1
 893 414 l 1,253,254
 890 404 890 404 882 423 c 0,255,256
 881 425 881 425 880 428 c 1,257,258
 871 432 871 432 841 449 c 128,-1,259
 811 466 811 466 794 469 c 0,260,261
 740 480 740 480 722 480 c 0,183,184
500 472 m 0,262,263
 491 473 491 473 476 454 c 1,264,265
 469 448 469 448 465 433.5 c 128,-1,266
 461 419 461 419 459 414 c 1,267,268
 448 411 448 411 426 392 c 1,269,270
 417 382 417 382 413 377.5 c 128,-1,271
 409 373 409 373 404.5 363 c 128,-1,272
 400 353 400 353 403 344 c 1,273,274
 408 335 408 335 402 328.5 c 128,-1,275
 396 322 396 322 386 325 c 1,276,277
 373 327 373 327 368 316.5 c 128,-1,278
 363 306 363 306 367 294 c 1,279,280
 366 278 366 278 353 238 c 0,281,282
 347 220 347 220 343.5 215.5 c 128,-1,283
 340 211 340 211 333 210 c 1,284,285
 319 204 319 204 291.5 158.5 c 128,-1,286
 264 113 264 113 264 110 c 0,287,288
 262 75 262 75 255 65 c 1,289,290
 239 48 239 48 239 35 c 1,291,292
 236 25 236 25 230 17 c 128,-1,293
 224 9 224 9 213 -1.5 c 128,-1,294
 202 -12 202 -12 199 -16 c 1,295,296
 191 -23 191 -23 193 -32 c 128,-1,297
 195 -41 195 -41 204 -47 c 1,298,299
 205 -49 205 -49 209 -52 c 0,300,301
 216 -58 216 -58 225 -58.5 c 128,-1,302
 234 -59 234 -59 242 -53 c 0,303,304
 255 -44 255 -44 270 -28.5 c 128,-1,305
 285 -13 285 -13 295 -1 c 0,306,307
 302 8 302 8 308 15 c 128,-1,308
 314 22 314 22 319.5 31.5 c 128,-1,309
 325 41 325 41 327 50 c 1,310,311
 325 58 325 58 333.5 66.5 c 128,-1,312
 342 75 342 75 343 77 c 1,313,314
 342 102 342 102 356.5 130 c 128,-1,315
 371 158 371 158 386.5 182 c 128,-1,316
 402 206 402 206 403 220 c 1,317,318
 399 217 399 217 395 213 c 2,319,-1
 397 215 l 2,320,321
 401 219 401 219 406 232.5 c 128,-1,322
 411 246 411 246 419 248 c 1,323,324
 439 271 439 271 447 306 c 1,325,326
 449 349 449 349 467 374 c 0,327,328
 469 377 469 377 481 383 c 128,-1,329
 493 389 493 389 495 397 c 1,330,331
 511 434 511 434 508 467 c 1,332,333
 505 472 505 472 500 472 c 0,262,263
767 404 m 0,334,335
 779 404 779 404 792 379 c 1,336,337
 797 379 797 379 799 382.5 c 128,-1,338
 801 386 801 386 801 394 c 1,339,340
 821 374 821 374 830 362 c 128,-1,341
 839 350 839 350 839.5 345 c 128,-1,342
 840 340 840 340 838 337 c 128,-1,343
 836 334 836 334 836.5 329.5 c 128,-1,344
 837 325 837 325 844 318 c 1,345,346
 846 305 846 305 829.5 288 c 128,-1,347
 813 271 813 271 812 261 c 1,348,349
 808 246 808 246 808.5 238 c 128,-1,350
 809 230 809 230 811 215 c 128,-1,351
 813 200 813 200 813 192 c 0,352,353
 812 181 812 181 803.5 172 c 128,-1,354
 795 163 795 163 784.5 159 c 128,-1,355
 774 155 774 155 764 150 c 1,356,357
 694 127 694 127 630 152 c 1,358,359
 613 156 613 156 612.5 171.5 c 128,-1,360
 612 187 612 187 629 193 c 1,361,362
 636 205 636 205 630 209 c 128,-1,363
 624 213 624 213 613 220.5 c 128,-1,364
 602 228 602 228 601 236 c 1,365,366
 602 255 602 255 627 292 c 0,367,368
 634 301 634 301 649.5 315 c 128,-1,369
 665 329 665 329 669 335 c 1,370,371
 675 340 675 340 678 351.5 c 128,-1,372
 681 363 681 363 686 370.5 c 128,-1,373
 691 378 691 378 702 378 c 1,374,375
 740 372 740 372 755 393 c 1,376,377
 760 404 760 404 767 404 c 0,334,335
569 243 m 1,378,379
 569 242 569 242 569.5 241 c 128,-1,380
 570 240 570 240 571 239 c 0,381,382
 571 238 571 238 571 237.5 c 128,-1,383
 571 237 571 237 571 236 c 1,384,385
 570 242 570 242 569 243 c 1,378,379
EndSplineSet
Validated: 2097189
EndChar

StartChar: glyph
Encoding: 38 38 6
Width: 734
GlyphClass: 2
Flags: W
LayerCount: 2
Fore
SplineSet
533 1014 m 0,0,1
 527 1012 527 1012 509.5 994 c 128,-1,2
 492 976 492 976 477 979 c 1,3,4
 418 957 418 957 387 894 c 0,5,6
 343 803 343 803 409 661 c 1,7,8
 418 647 418 647 421.5 630.5 c 128,-1,9
 425 614 425 614 418.5 599.5 c 128,-1,10
 412 585 412 585 393 584 c 1,11,12
 374 588 374 588 365 577.5 c 128,-1,13
 356 567 356 567 365 549 c 1,14,15
 357 488 357 488 321 453 c 1,16,17
 311 446 311 446 306.5 433.5 c 128,-1,18
 302 421 302 421 301.5 412 c 128,-1,19
 301 403 301 403 302 384 c 128,-1,20
 303 365 303 365 303 361 c 0,21,22
 304 340 304 340 318 305.5 c 128,-1,23
 332 271 332 271 335 257 c 1,24,25
 334 242 334 242 343.5 237 c 128,-1,26
 353 232 353 232 365 233 c 128,-1,27
 377 234 377 234 389 230.5 c 128,-1,28
 401 227 401 227 405 217 c 1,29,30
 417 207 417 207 432.5 198 c 128,-1,31
 448 189 448 189 462.5 183.5 c 128,-1,32
 477 178 477 178 494 171 c 1,33,34
 509 167 509 167 533 170 c 0,35,36
 545 172 545 172 581 178 c 128,-1,37
 617 184 617 184 640.5 191.5 c 128,-1,38
 664 199 664 199 683 214 c 1,39,40
 688 229 688 229 683 228 c 1,41,42
 701 243 701 243 742 249 c 1,43,44
 772 255 772 255 789 236 c 0,45,46
 814 206 814 206 841 199 c 1,47,48
 877 196 877 196 891 181 c 2,49,-1
 893 179 l 1,50,51
 899 167 899 167 911.5 171.5 c 128,-1,52
 924 176 924 176 919 189 c 0,53,54
 912 207 912 207 879 241 c 1,55,56
 875 248 875 248 870 246 c 128,-1,57
 865 244 865 244 862.5 241.5 c 128,-1,58
 860 239 860 239 856 232.5 c 128,-1,59
 852 226 852 226 850 224 c 1,60,61
 846 228 846 228 845.5 242.5 c 128,-1,62
 845 257 845 257 842 263 c 1,63,64
 840 270 840 270 788.5 287 c 128,-1,65
 737 304 737 304 736 311 c 1,66,67
 739 324 739 324 763 341 c 128,-1,68
 787 358 787 358 791 368 c 1,69,70
 800 378 800 378 831 424.5 c 128,-1,71
 862 471 862 471 850 471 c 0,72,73
 836 471 836 471 815 449 c 128,-1,74
 794 427 794 427 773.5 404.5 c 128,-1,75
 753 382 753 382 739 381 c 0,76,77
 726 380 726 380 717.5 396 c 128,-1,78
 709 412 709 412 706 414 c 1,79,80
 715 413 715 413 716 418 c 128,-1,81
 717 423 717 423 705 431 c 0,82,83
 697 437 697 437 673.5 449.5 c 128,-1,84
 650 462 650 462 636.5 474.5 c 128,-1,85
 623 487 623 487 619 506 c 1,86,87
 619 525 619 525 607 536.5 c 128,-1,88
 595 548 595 548 577 558.5 c 128,-1,89
 559 569 559 569 552 581 c 1,90,91
 542 590 542 590 540 598 c 128,-1,92
 538 606 538 606 545.5 612 c 128,-1,93
 553 618 553 618 559.5 621.5 c 128,-1,94
 566 625 566 625 579.5 629.5 c 128,-1,95
 593 634 593 634 596 635 c 1,96,97
 605 648 605 648 633.5 658.5 c 128,-1,98
 662 669 662 669 670 685 c 0,99,100
 725 782 725 782 698 849 c 1,101,102
 665 926 665 926 642 967 c 1,103,104
 633 977 633 977 613.5 978.5 c 128,-1,105
 594 980 594 980 577 984 c 128,-1,106
 560 988 560 988 554 1004 c 1,107,108
 543 1016 543 1016 533 1014 c 0,0,1
509 909 m 0,109,110
 520 910 520 910 543.5 904 c 128,-1,111
 567 898 567 898 576 898 c 1,112,113
 592 886 592 886 606 852 c 128,-1,114
 620 818 620 818 633 807 c 1,115,116
 621 755 621 755 588 731 c 1,117,118
 577 727 577 727 570 718 c 128,-1,119
 563 709 563 709 555 694.5 c 128,-1,120
 547 680 547 680 544 675 c 0,121,122
 534 662 534 662 517.5 663.5 c 128,-1,123
 501 665 501 665 487 675.5 c 128,-1,124
 473 686 473 686 461 693 c 1,125,126
 442 722 442 722 439.5 765 c 128,-1,127
 437 808 437 808 442 841 c 1,128,129
 440 856 440 856 448 862 c 128,-1,130
 456 868 456 868 468.5 872 c 128,-1,131
 481 876 481 876 485 886 c 1,132,133
 488 908 488 908 509 909 c 0,109,110
486 583 m 1,134,135
 494 571 494 571 505 553 c 128,-1,136
 516 535 516 535 526 524 c 0,137,138
 533 515 533 515 550 503 c 128,-1,139
 567 491 567 491 577.5 479 c 128,-1,140
 588 467 588 467 588 450 c 1,141,142
 596 431 596 431 601 421.5 c 128,-1,143
 606 412 606 412 616.5 398.5 c 128,-1,144
 627 385 627 385 639 379 c 1,145,146
 649 384 649 384 643 394 c 1,147,148
 661 383 661 383 667 374 c 0,149,150
 679 354 679 354 675 331.5 c 128,-1,151
 671 309 671 309 656 291 c 1,152,-1
 653 288 l 1,153,154
 665 303 665 303 652.5 310 c 128,-1,155
 640 317 640 317 630 299 c 1,156,157
 624 258 624 258 571 246 c 1,158,159
 562 233 562 233 552 235.5 c 128,-1,160
 542 238 542 238 536 245.5 c 128,-1,161
 530 253 530 253 521 263 c 128,-1,162
 512 273 512 273 504 275 c 1,163,164
 496 260 496 260 484 260 c 128,-1,165
 472 260 472 260 462 269 c 128,-1,166
 452 278 452 278 444 291 c 1,167,168
 443 309 443 309 420 323.5 c 128,-1,169
 397 338 397 338 394 354 c 1,170,171
 372 367 372 367 369.5 394.5 c 128,-1,172
 367 422 367 422 382 443 c 1,173,174
 396 454 396 454 410.5 484 c 128,-1,175
 425 514 425 514 436 524 c 1,176,177
 454 528 454 528 467 547.5 c 128,-1,178
 480 567 480 567 486 583 c 1,134,135
EndSplineSet
Validated: 2097193
EndChar

StartChar: glyph
Encoding: 39 39 7
Width: 734
GlyphClass: 2
Flags: W
LayerCount: 2
Fore
SplineSet
475 633 m 1,0,1
 450 662 450 662 458 695 c 1,2,3
 465 729 465 729 447 752 c 1,4,5
 441 763 441 763 441.5 779.5 c 128,-1,6
 442 796 442 796 444 808 c 0,7,8
 444 814 444 814 437 828 c 128,-1,9
 430 842 430 842 433 851 c 0,10,11
 442 881 442 881 419 912 c 1,12,13
 409 934 409 934 426 977 c 1,14,15
 428 987 428 987 434 992.5 c 128,-1,16
 440 998 440 998 451 1003 c 128,-1,17
 462 1008 462 1008 467 1010 c 1,18,19
 473 1014 473 1014 487 1027 c 128,-1,20
 501 1040 501 1040 511 1044 c 1,21,22
 521 1042 521 1042 527.5 1025 c 128,-1,23
 534 1008 534 1008 538 1004 c 0,24,25
 547 993 547 993 560 996.5 c 128,-1,26
 573 1000 573 1000 576 1013 c 1,27,28
 580 1025 580 1025 583 1026 c 0,29,30
 584 1027 584 1027 585 1019 c 0,31,32
 586 982 586 982 603 965 c 1,33,34
 610 953 610 953 607 935.5 c 128,-1,35
 604 918 604 918 599 906 c 1,36,37
 573 809 573 809 570 788 c 0,38,39
 570 784 570 784 575 770 c 128,-1,40
 580 756 580 756 578 747 c 1,41,42
 578 671 578 671 566 625 c 1,43,44
 560 610 560 610 541 605.5 c 128,-1,45
 522 601 522 601 508 608 c 1,46,47
 488 616 488 616 475 633 c 1,0,1
EndSplineSet
Validated: 2097185
EndChar

StartChar: glyph
Encoding: 40 40 8
Width: 734
GlyphClass: 2
Flags: W
LayerCount: 2
Fore
SplineSet
586 -24 m 1,0,1
 576 -10 576 -10 547.5 10.5 c 128,-1,2
 519 31 519 31 509 46 c 0,3,4
 504 55 504 55 484.5 95 c 128,-1,5
 465 135 465 135 451 155 c 1,6,7
 436 184 436 184 415 247 c 128,-1,8
 394 310 394 310 379 339 c 0,9,10
 374 349 374 349 383.5 377 c 128,-1,11
 393 405 393 405 381 419 c 1,12,13
 372 442 372 442 371 471.5 c 128,-1,14
 370 501 370 501 372.5 518.5 c 128,-1,15
 375 536 375 536 383.5 574 c 128,-1,16
 392 612 392 612 394 622 c 0,17,18
 401 658 401 658 414.5 706 c 128,-1,19
 428 754 428 754 444 787 c 1,20,21
 456 797 456 797 469.5 827.5 c 128,-1,22
 483 858 483 858 496 870 c 1,23,24
 510 880 510 880 526.5 911.5 c 128,-1,25
 543 943 543 943 559 952 c 1,26,27
 575 953 575 953 603 974.5 c 128,-1,28
 631 996 631 996 651 991 c 1,29,30
 667 970 667 970 661.5 938.5 c 128,-1,31
 656 907 656 907 633 892 c 1,32,33
 613 881 613 881 590.5 847 c 128,-1,34
 568 813 568 813 551 801 c 1,35,36
 530 776 530 776 514.5 747.5 c 128,-1,37
 499 719 499 719 488 680 c 128,-1,38
 477 641 477 641 472 620 c 128,-1,39
 467 599 467 599 458 551 c 0,40,41
 429 392 429 392 496 263 c 1,42,43
 504 252 504 252 515.5 214.5 c 128,-1,44
 527 177 527 177 533 174 c 1,45,46
 543 184 543 184 548.5 183.5 c 128,-1,47
 554 183 554 183 559.5 173 c 128,-1,48
 565 163 565 163 568.5 151 c 128,-1,49
 572 139 572 139 577 127.5 c 128,-1,50
 582 116 582 116 588 112 c 1,51,52
 599 94 599 94 626.5 62.5 c 128,-1,53
 654 31 654 31 665 14 c 1,54,55
 675 -4 675 -4 676.5 -24 c 128,-1,56
 678 -44 678 -44 664 -55.5 c 128,-1,57
 650 -67 650 -67 626 -57 c 0,58,59
 610 -50 610 -50 586 -24 c 1,0,1
EndSplineSet
Validated: 2097185
EndChar

StartChar: glyph
Encoding: 41 41 9
Width: 734
GlyphClass: 2
Flags: W
LayerCount: 2
Fore
SplineSet
521 -35 m 1,0,1
 512 -24 512 -24 511 -13.5 c 128,-1,2
 510 -3 510 -3 516 7 c 128,-1,3
 522 17 522 17 528.5 25 c 128,-1,4
 535 33 535 33 545.5 43.5 c 128,-1,5
 556 54 556 54 561 60 c 1,6,7
 569 73 569 73 587.5 86 c 128,-1,8
 606 99 606 99 620 112 c 128,-1,9
 634 125 634 125 636 142 c 1,10,11
 641 158 641 158 666 193.5 c 128,-1,12
 691 229 691 229 693 254 c 1,13,14
 707 274 707 274 715 313.5 c 128,-1,15
 723 353 723 353 729 368 c 1,16,17
 734 385 734 385 734 406.5 c 128,-1,18
 734 428 734 428 731.5 444 c 128,-1,19
 729 460 729 460 725.5 483.5 c 128,-1,20
 722 507 722 507 721 521 c 0,21,22
 717 557 717 557 708 607 c 128,-1,23
 699 657 699 657 684 691 c 0,24,25
 681 698 681 698 667 703 c 1,26,27
 659 704 659 704 659.5 707 c 128,-1,28
 660 710 660 710 671 716 c 1,29,30
 681 733 681 733 672 746.5 c 128,-1,31
 663 760 663 760 649.5 767 c 128,-1,32
 636 774 636 774 620.5 785.5 c 128,-1,33
 605 797 605 797 602 809 c 1,34,35
 601 832 601 832 588.5 853.5 c 128,-1,36
 576 875 576 875 561 889.5 c 128,-1,37
 546 904 546 904 529 924 c 128,-1,38
 512 944 512 944 504 963 c 1,39,40
 500 984 500 984 512.5 995.5 c 128,-1,41
 525 1007 525 1007 542.5 1001 c 128,-1,42
 560 995 560 995 568 976 c 1,43,44
 578 965 578 965 603 945.5 c 128,-1,45
 628 926 628 926 643.5 907.5 c 128,-1,46
 659 889 659 889 665 866 c 1,47,48
 674 857 674 857 684 844 c 128,-1,49
 694 831 694 831 697 817 c 1,50,51
 722 807 722 807 733 777 c 128,-1,52
 744 747 744 747 739 718 c 1,53,54
 750 697 750 697 763 667 c 128,-1,55
 776 637 776 637 777 613 c 0,56,57
 778 603 778 603 783 562.5 c 128,-1,58
 788 522 788 522 789.5 505 c 128,-1,59
 791 488 791 488 793.5 456 c 128,-1,60
 796 424 796 424 794.5 398.5 c 128,-1,61
 793 373 793 373 788 348 c 0,62,63
 785 335 785 335 774.5 312 c 128,-1,64
 764 289 764 289 759 270 c 128,-1,65
 754 251 754 251 757 231 c 1,66,67
 752 206 752 206 739.5 173 c 128,-1,68
 727 140 727 140 709 124 c 1,69,70
 694 89 694 89 652 34 c 1,71,72
 643 17 643 17 638 9 c 128,-1,73
 633 1 633 1 622 -8 c 128,-1,74
 611 -17 611 -17 596 -18 c 1,75,76
 588 -28 588 -28 578.5 -37 c 128,-1,77
 569 -46 569 -46 560 -52.5 c 128,-1,78
 551 -59 551 -59 540.5 -55 c 128,-1,79
 530 -51 530 -51 521 -35 c 1,0,1
EndSplineSet
Validated: 2097185
EndChar

StartChar: glyph
Encoding: 42 42 10
Width: 734
GlyphClass: 2
Flags: W
LayerCount: 2
Fore
SplineSet
413 227 m 1,0,1
 404 271 404 271 429 307 c 1,2,3
 462 313 462 313 462 364 c 1,4,5
 464 374 464 374 459.5 390.5 c 128,-1,6
 455 407 455 407 448 401 c 1,7,8
 446 396 446 396 444.5 390.5 c 128,-1,9
 443 385 443 385 439.5 378.5 c 128,-1,10
 436 372 436 372 432.5 368.5 c 128,-1,11
 429 365 429 365 425 365.5 c 128,-1,12
 421 366 421 366 417 372 c 1,13,14
 416 384 416 384 408.5 388 c 128,-1,15
 401 392 401 392 392 391 c 128,-1,16
 383 390 383 390 370 388 c 128,-1,17
 357 386 357 386 352 387 c 1,18,19
 330 380 330 380 310.5 394.5 c 128,-1,20
 291 409 291 409 306 430 c 1,21,22
 338 466 338 466 365 462 c 1,23,24
 376 462 376 462 390.5 478.5 c 128,-1,25
 405 495 405 495 418 493 c 1,26,27
 425 490 425 490 436.5 473.5 c 128,-1,28
 448 457 448 457 454 457 c 1,29,30
 457 474 457 474 452 490.5 c 128,-1,31
 447 507 447 507 434.5 529.5 c 128,-1,32
 422 552 422 552 419 559 c 1,33,34
 393 600 393 600 419 625 c 0,35,36
 426 631 426 631 441 636 c 128,-1,37
 456 641 456 641 459 643 c 1,38,39
 489 639 489 639 496 582 c 1,40,41
 497 564 497 564 513 549.5 c 128,-1,42
 529 535 529 535 544 549 c 1,43,44
 546 548 546 548 552 543 c 0,45,46
 573 526 573 526 574 539 c 0,47,48
 575 542 575 542 574 547 c 1,49,50
 576 552 576 552 587 574 c 128,-1,51
 598 596 598 596 600 609 c 1,52,53
 611 624 611 624 629 630 c 128,-1,54
 647 636 647 636 662 623 c 1,55,56
 678 583 678 583 662 553 c 1,57,58
 643 501 643 501 666 462 c 0,59,60
 674 449 674 449 692.5 461 c 128,-1,61
 711 473 711 473 713 460 c 0,62,63
 715 448 715 448 725.5 447 c 128,-1,64
 736 446 736 446 751.5 450 c 128,-1,65
 767 454 767 454 773 452 c 1,66,67
 785 454 785 454 788.5 448 c 128,-1,68
 792 442 792 442 787 435.5 c 128,-1,69
 782 429 782 429 772 428 c 0,70,71
 760 426 760 426 745.5 404.5 c 128,-1,72
 731 383 731 383 713 383 c 0,73,74
 677 383 677 383 676 355 c 1,75,76
 665 313 665 313 691 307 c 1,77,78
 695 301 695 301 696 293 c 128,-1,79
 697 285 697 285 695.5 278 c 128,-1,80
 694 271 694 271 691.5 263 c 128,-1,81
 689 255 689 255 685.5 248 c 128,-1,82
 682 241 682 241 680 234 c 1,83,84
 673 221 673 221 663.5 220 c 128,-1,85
 654 219 654 219 647 224 c 128,-1,86
 640 229 640 229 628 240 c 128,-1,87
 616 251 616 251 613 254 c 0,88,89
 579 278 579 278 558 320 c 1,90,91
 551 337 551 337 540 331.5 c 128,-1,92
 529 326 529 326 526 311 c 1,93,94
 520 303 520 303 506.5 290.5 c 128,-1,95
 493 278 493 278 483.5 266.5 c 128,-1,96
 474 255 474 255 470 242 c 0,97,98
 465 221 465 221 442.5 211.5 c 128,-1,99
 420 202 420 202 413 227 c 1,0,1
EndSplineSet
Validated: 2097185
EndChar

StartChar: glyph
Encoding: 43 43 11
Width: 734
GlyphClass: 2
Flags: W
LayerCount: 2
Fore
SplineSet
525 182 m 1,0,1
 522 207 522 207 523 273.5 c 128,-1,2
 524 340 524 340 516 365 c 1,3,4
 510 380 510 380 489.5 385 c 128,-1,5
 469 390 469 390 455 390 c 1,6,7
 433 392 433 392 403 396 c 128,-1,8
 373 400 373 400 352 408 c 1,9,10
 349 407 349 407 339.5 403.5 c 128,-1,11
 330 400 330 400 325 398.5 c 128,-1,12
 320 397 320 397 313.5 397 c 128,-1,13
 307 397 307 397 302.5 402 c 128,-1,14
 298 407 298 407 296 417 c 1,15,16
 316 439 316 439 360 430 c 1,17,18
 370 432 370 432 416 449 c 128,-1,19
 462 466 462 466 488 460 c 0,20,21
 510 454 510 454 520 472.5 c 128,-1,22
 530 491 530 491 522 511 c 1,23,24
 505 579 505 579 514 647 c 0,25,26
 517 666 517 666 539.5 668.5 c 128,-1,27
 562 671 562 671 571 655 c 0,28,29
 598 607 598 607 606 551 c 1,30,31
 609 541 609 541 606.5 531 c 128,-1,32
 604 521 604 521 597 508 c 128,-1,33
 590 495 590 495 588 492 c 1,34,35
 600 494 600 494 608.5 488 c 128,-1,36
 617 482 617 482 621 473.5 c 128,-1,37
 625 465 625 465 632.5 458 c 128,-1,38
 640 451 640 451 650 451 c 0,39,40
 705 454 705 454 732 470 c 0,41,42
 737 474 737 474 742.5 474.5 c 128,-1,43
 748 475 748 475 753.5 471.5 c 128,-1,44
 759 468 759 468 763 464.5 c 128,-1,45
 767 461 767 461 772.5 455 c 128,-1,46
 778 449 778 449 781 447 c 2,47,-1
 806 421 l 1,48,49
 803 419 803 419 794 411 c 128,-1,50
 785 403 785 403 780 399.5 c 128,-1,51
 775 396 775 396 767 391.5 c 128,-1,52
 759 387 759 387 751 385.5 c 128,-1,53
 743 384 743 384 735 385 c 0,54,55
 722 386 722 386 696 390 c 128,-1,56
 670 394 670 394 657 394.5 c 128,-1,57
 644 395 644 395 618 391 c 1,58,59
 614 392 614 392 609 397.5 c 128,-1,60
 604 403 604 403 600.5 407 c 128,-1,61
 597 411 597 411 590.5 412 c 128,-1,62
 584 413 584 413 579 406 c 1,63,64
 576 387 576 387 575.5 380.5 c 128,-1,65
 575 374 575 374 578 354 c 128,-1,66
 581 334 581 334 582 328 c 1,67,68
 582 320 582 320 588.5 284.5 c 128,-1,69
 595 249 595 249 594 229 c 0,70,71
 593 225 593 225 581.5 214.5 c 128,-1,72
 570 204 570 204 573 192 c 1,73,74
 570 177 570 177 552 172.5 c 128,-1,75
 534 168 534 168 525 182 c 1,0,1
EndSplineSet
Validated: 2097185
EndChar

StartChar: glyph
Encoding: 44 44 12
Width: 734
GlyphClass: 2
Flags: W
LayerCount: 2
Fore
SplineSet
543 352 m 0,0,1
 537 351 537 351 531 348 c 0,2,3
 524 345 524 345 518.5 340 c 128,-1,4
 513 335 513 335 506 326 c 128,-1,5
 499 317 499 317 497 315 c 0,6,7
 486 301 486 301 466 297 c 1,8,9
 458 290 458 290 457 270.5 c 128,-1,10
 456 251 456 251 449 244 c 1,11,12
 440 243 440 243 440 237 c 128,-1,13
 440 231 440 231 446 225 c 128,-1,14
 452 219 452 219 455 215 c 1,15,16
 461 210 461 210 465.5 195 c 128,-1,17
 470 180 470 180 477 176 c 1,18,19
 490 171 490 171 533 174 c 1,20,21
 543 176 543 176 551.5 170.5 c 128,-1,22
 560 165 560 165 559 154 c 0,23,24
 558 119 558 119 573 92 c 1,25,26
 570 90 570 90 571 82 c 128,-1,27
 572 74 572 74 568 71 c 1,28,29
 557 47 557 47 524 11 c 1,30,31
 494 -20 494 -20 478 -28 c 0,32,33
 477 -29 477 -29 471 -30 c 128,-1,34
 465 -31 465 -31 462 -33 c 128,-1,35
 459 -35 459 -35 459 -39 c 0,36,37
 456 -51 456 -51 464 -84 c 0,38,39
 465 -89 465 -89 468 -95 c 1,40,41
 469 -103 469 -103 475 -106.5 c 128,-1,42
 481 -110 481 -110 488 -105 c 0,43,44
 494 -101 494 -101 506.5 -88 c 128,-1,45
 519 -75 519 -75 528 -70 c 0,46,47
 532 -67 532 -67 553 -62 c 1,48,49
 567 -55 567 -55 582 -27 c 0,50,51
 599 6 599 6 607 39 c 0,52,53
 610 51 610 51 605 63 c 1,54,55
 613 61 613 61 620.5 65.5 c 128,-1,56
 628 70 628 70 630 78 c 0,57,58
 638 103 638 103 652 108 c 1,59,60
 657 119 657 119 653.5 147 c 128,-1,61
 650 175 650 175 652 186 c 1,62,63
 651 192 651 192 657 195 c 128,-1,64
 663 198 663 198 666.5 199 c 128,-1,65
 670 200 670 200 665 207 c 0,66,67
 640 236 640 236 627 269 c 1,68,69
 614 298 614 298 595 299 c 1,70,71
 582 304 582 304 573 332 c 0,72,73
 566 353 566 353 543 352 c 0,0,1
EndSplineSet
Validated: 2097193
EndChar

StartChar: glyph
Encoding: 45 45 13
Width: 734
GlyphClass: 2
Flags: W
LayerCount: 2
Fore
SplineSet
356 429 m 1,0,1
 340 437 340 437 308.5 441.5 c 128,-1,2
 277 446 277 446 264 451 c 0,3,4
 250 457 250 457 248 475 c 128,-1,5
 246 493 246 493 259 500 c 1,6,7
 276 507 276 507 296.5 511.5 c 128,-1,8
 317 516 317 516 335 517.5 c 128,-1,9
 353 519 353 519 374 522 c 1,10,11
 387 522 387 522 445 524 c 128,-1,12
 503 526 503 526 533 531 c 1,13,14
 562 545 562 545 576 531 c 1,15,16
 617 517 617 517 678 524 c 1,17,18
 688 524 688 524 702.5 532.5 c 128,-1,19
 717 541 717 541 723 542 c 1,20,21
 725 534 725 534 728 525 c 128,-1,22
 731 516 731 516 735.5 505.5 c 128,-1,23
 740 495 740 495 742 489 c 0,24,25
 749 449 749 449 730 443 c 1,26,27
 715 440 715 440 696 438.5 c 128,-1,28
 677 437 677 437 661.5 437.5 c 128,-1,29
 646 438 646 438 627 438 c 0,30,31
 549 435 549 435 523 429 c 1,32,33
 511 423 511 423 503.5 425.5 c 128,-1,34
 496 428 496 428 484.5 433 c 128,-1,35
 473 438 473 438 465 437 c 1,36,37
 409 441 409 441 378 430 c 1,38,39
 364 422 364 422 356 429 c 1,0,1
EndSplineSet
Validated: 2097185
EndChar

StartChar: glyph
Encoding: 46 46 14
Width: 734
GlyphClass: 2
Flags: W
LayerCount: 2
Fore
SplineSet
431 162 m 0,0,1
 414 201 414 201 418 219 c 1,2,3
 424 236 424 236 454 242 c 0,4,5
 471 246 471 246 492 247 c 1,6,7
 498 243 498 243 504 251.5 c 128,-1,8
 510 260 510 260 513 259 c 0,9,10
 519 256 519 256 525.5 246 c 128,-1,11
 532 236 532 236 533 234 c 0,12,13
 544 217 544 217 555 221 c 0,14,15
 561 223 561 223 570 229.5 c 128,-1,16
 579 236 579 236 583 238 c 1,17,18
 588 243 588 243 596.5 243 c 128,-1,19
 605 243 605 243 607 235 c 0,20,21
 610 223 610 223 609 199 c 1,22,23
 606 182 606 182 598 179 c 0,24,25
 596 178 596 178 589.5 176.5 c 128,-1,26
 583 175 583 175 579 173 c 128,-1,27
 575 171 575 171 573 167 c 0,28,29
 571 164 571 164 566 152 c 128,-1,30
 561 140 561 140 555 137 c 0,31,32
 534 124 534 124 515 137 c 0,33,34
 510 141 510 141 508 146.5 c 128,-1,35
 506 152 506 152 505 160.5 c 128,-1,36
 504 169 504 169 503 173 c 0,37,38
 497 195 497 195 483 198 c 1,39,40
 477 198 477 198 475 190.5 c 128,-1,41
 473 183 473 183 476 178 c 1,42,43
 477 174 477 174 479 165 c 128,-1,44
 481 156 481 156 481.5 152 c 128,-1,45
 482 148 482 148 481 138 c 1,46,47
 477 132 477 132 468.5 131.5 c 128,-1,48
 460 131 460 131 454 135 c 0,49,50
 440 143 440 143 431 162 c 0,0,1
EndSplineSet
Validated: 2097185
EndChar

StartChar: glyph
Encoding: 47 47 15
Width: 734
GlyphClass: 2
Flags: W
LayerCount: 2
Fore
SplineSet
182 -64 m 1,0,1
 179 -33 179 -33 195.5 21 c 128,-1,2
 212 75 212 75 214 85 c 1,3,4
 225 103 225 103 251 134.5 c 128,-1,5
 277 166 277 166 293 194.5 c 128,-1,6
 309 223 309 223 311 253 c 1,7,8
 316 277 316 277 347.5 306 c 128,-1,9
 379 335 379 335 386 356 c 1,10,11
 403 375 403 375 424.5 429 c 128,-1,12
 446 483 446 483 469 504 c 0,13,14
 491 525 491 525 504.5 574 c 128,-1,15
 518 623 518 623 525 636 c 1,16,17
 598 724 598 724 660 839 c 1,18,19
 684 858 684 858 703.5 893.5 c 128,-1,20
 723 929 723 929 735 957 c 1,21,22
 744 991 744 991 773 1006 c 128,-1,23
 802 1021 802 1021 830 996 c 1,24,25
 834 981 834 981 830 964.5 c 128,-1,26
 826 948 826 948 820 937 c 128,-1,27
 814 926 814 926 803 908 c 128,-1,28
 792 890 792 890 788 882 c 0,29,30
 728 785 728 785 674 671 c 1,31,32
 629 600 629 600 619 558 c 1,33,34
 576 528 576 528 542 444 c 1,35,36
 538 423 538 423 507 388.5 c 128,-1,37
 476 354 476 354 474 327 c 1,38,39
 467 314 467 314 452 298.5 c 128,-1,40
 437 283 437 283 426.5 267.5 c 128,-1,41
 416 252 416 252 413 234 c 1,42,43
 366 169 366 169 367 111 c 1,44,45
 350 99 350 99 326.5 62.5 c 128,-1,46
 303 26 303 26 287 14 c 1,47,48
 282 5 282 5 271 -23 c 128,-1,49
 260 -51 260 -51 247.5 -66 c 128,-1,50
 235 -81 235 -81 213 -86 c 0,51,52
 203 -88 203 -88 194 -81 c 128,-1,53
 185 -74 185 -74 182 -64 c 1,0,1
EndSplineSet
Validated: 2097185
EndChar

StartChar: glyph
Encoding: 48 48 16
Width: 734
GlyphClass: 2
Flags: W
LayerCount: 2
Fore
SplineSet
448 176 m 1,0,1
 432 173 432 173 420.5 183 c 128,-1,2
 409 193 409 193 403.5 206 c 128,-1,3
 398 219 398 219 387 227 c 128,-1,4
 376 235 376 235 361 229 c 1,5,6
 345 231 345 231 336 248 c 128,-1,7
 327 265 327 265 319 287.5 c 128,-1,8
 311 310 311 310 301 320 c 1,9,10
 267 371 267 371 262 426 c 1,11,12
 245 447 245 447 235.5 480.5 c 128,-1,13
 226 514 226 514 222 540 c 1,14,15
 211 545 211 545 212 553.5 c 128,-1,16
 213 562 213 562 219.5 569 c 128,-1,17
 226 576 226 576 230.5 587 c 128,-1,18
 235 598 235 598 231 607 c 1,19,20
 232 637 232 637 233 655 c 128,-1,21
 234 673 234 673 240.5 698 c 128,-1,22
 247 723 247 723 260 741 c 1,23,24
 267 753 267 753 278 790 c 128,-1,25
 289 827 289 827 304 844 c 1,26,27
 376 956 376 956 477 982 c 1,28,29
 558 1000 558 1000 636 981 c 1,30,31
 646 975 646 975 664.5 965 c 128,-1,32
 683 955 683 955 697.5 945.5 c 128,-1,33
 712 936 712 936 723 925 c 0,34,35
 741 907 741 907 764 880.5 c 128,-1,36
 787 854 787 854 797 830 c 0,37,38
 800 822 800 822 817.5 776 c 128,-1,39
 835 730 835 730 836 703 c 1,40,41
 846 683 846 683 851 668.5 c 128,-1,42
 856 654 856 654 856 634.5 c 128,-1,43
 856 615 856 615 847 599 c 1,44,45
 869 564 869 564 848 496 c 0,46,47
 846 489 846 489 840.5 462.5 c 128,-1,48
 835 436 835 436 828.5 420 c 128,-1,49
 822 404 822 404 809 392 c 1,50,51
 803 382 803 382 783.5 329.5 c 128,-1,52
 764 277 764 277 741 257 c 1,53,54
 715 201 715 201 675 217 c 1,55,56
 667 218 667 218 658.5 210.5 c 128,-1,57
 650 203 650 203 645.5 195.5 c 128,-1,58
 641 188 641 188 632.5 185.5 c 128,-1,59
 624 183 624 183 616 194 c 1,60,61
 546 171 546 171 513 174 c 1,62,63
 480 173 480 173 448 176 c 1,0,1
625 250 m 1,64,65
 632 257 632 257 640.5 254 c 128,-1,66
 649 251 649 251 656 244 c 128,-1,67
 663 237 663 237 671 238.5 c 128,-1,68
 679 240 679 240 685 255 c 0,69,70
 692 271 692 271 689 287.5 c 128,-1,71
 686 304 686 304 692 318.5 c 128,-1,72
 698 333 698 333 719 336 c 1,73,74
 722 339 722 339 730.5 356.5 c 128,-1,75
 739 374 739 374 753 376 c 1,76,77
 760 395 760 395 762.5 415 c 128,-1,78
 765 435 765 435 766 467 c 128,-1,79
 767 499 767 499 767 507 c 1,80,81
 770 529 770 529 764 569 c 128,-1,82
 758 609 758 609 757 617 c 0,83,84
 754 719 754 719 715 788 c 1,85,86
 709 793 709 793 695.5 794.5 c 128,-1,87
 682 796 682 796 673.5 801 c 128,-1,88
 665 806 665 806 665 821 c 1,89,90
 661 849 661 849 641.5 867 c 128,-1,91
 622 885 622 885 595 885 c 1,92,93
 589 887 589 887 571.5 900 c 128,-1,94
 554 913 554 913 544 912 c 128,-1,95
 534 911 534 911 526 892 c 1,96,97
 518 888 518 888 500.5 885 c 128,-1,98
 483 882 483 882 474.5 874.5 c 128,-1,99
 466 867 466 867 466 849 c 1,100,101
 455 819 455 819 415 843 c 1,102,103
 406 836 406 836 403 816.5 c 128,-1,104
 400 797 400 797 392.5 785.5 c 128,-1,105
 385 774 385 774 364 779 c 1,106,107
 349 778 349 778 349.5 763 c 128,-1,108
 350 748 350 748 350 731 c 128,-1,109
 350 714 350 714 333 709 c 1,110,111
 317 697 317 697 312 676.5 c 128,-1,112
 307 656 307 656 310.5 636.5 c 128,-1,113
 314 617 314 617 315 597 c 1,114,115
 317 585 317 585 322 554 c 128,-1,116
 327 523 327 523 330.5 507 c 128,-1,117
 334 491 334 491 342.5 467.5 c 128,-1,118
 351 444 351 444 364 427 c 1,119,120
 382 414 382 414 392.5 380.5 c 128,-1,121
 403 347 403 347 411 336 c 1,122,123
 422 330 422 330 429.5 313 c 128,-1,124
 437 296 437 296 445.5 284.5 c 128,-1,125
 454 273 454 273 468 275 c 1,126,127
 483 284 483 284 494 278 c 128,-1,128
 505 272 505 272 510 261 c 128,-1,129
 515 250 515 250 525.5 241 c 128,-1,130
 536 232 536 232 551 236 c 1,131,132
 603 235 603 235 625 250 c 1,64,65
EndSplineSet
Validated: 2097185
EndChar

StartChar: glyph
Encoding: 49 49 17
Width: 734
GlyphClass: 2
Flags: W
LayerCount: 2
Fore
SplineSet
303 183 m 1,0,1
 289 189 289 189 290.5 201.5 c 128,-1,2
 292 214 292 214 300.5 225.5 c 128,-1,3
 309 237 309 237 324 244 c 128,-1,4
 339 251 339 251 351 248 c 0,5,6
 357 246 357 246 364 244 c 128,-1,7
 371 242 371 242 372.5 241.5 c 128,-1,8
 374 241 374 241 378 241 c 128,-1,9
 382 241 382 241 385 242.5 c 128,-1,10
 388 244 388 244 395 247 c 1,11,12
 416 226 416 226 439.5 232 c 128,-1,13
 463 238 463 238 478 263 c 1,14,15
 486 282 486 282 488.5 304.5 c 128,-1,16
 491 327 491 327 491.5 355 c 128,-1,17
 492 383 492 383 494 398 c 1,18,19
 497 449 497 449 510 504 c 1,20,21
 509 511 509 511 503.5 520 c 128,-1,22
 498 529 498 529 494.5 535 c 128,-1,23
 491 541 491 541 489.5 551 c 128,-1,24
 488 561 488 561 495 569 c 1,25,26
 507 665 507 665 508 761 c 1,27,28
 507 774 507 774 506 801.5 c 128,-1,29
 505 829 505 829 502.5 850 c 128,-1,30
 500 871 500 871 493 889 c 1,31,32
 490 905 490 905 483.5 907.5 c 128,-1,33
 477 910 477 910 467.5 905 c 128,-1,34
 458 900 458 900 445.5 899.5 c 128,-1,35
 433 899 433 899 419 908 c 1,36,37
 416 919 416 919 411 920 c 128,-1,38
 406 921 406 921 400.5 915 c 128,-1,39
 395 909 395 909 389 902 c 128,-1,40
 383 895 383 895 374.5 890 c 128,-1,41
 366 885 366 885 358 886 c 1,42,43
 342 884 342 884 313 904.5 c 128,-1,44
 284 925 284 925 310 928 c 1,45,46
 407 946 407 946 466 968 c 1,47,48
 489 987 489 987 517.5 985 c 128,-1,49
 546 983 546 983 561 963 c 0,50,51
 570 950 570 950 570 927.5 c 128,-1,52
 570 905 570 905 566 876 c 128,-1,53
 562 847 562 847 562 838 c 0,54,55
 552 726 552 726 562 675 c 1,56,57
 564 651 564 651 567.5 561.5 c 128,-1,58
 571 472 571 472 582 425 c 1,59,60
 590 416 590 416 589.5 403 c 128,-1,61
 589 390 589 390 584.5 380.5 c 128,-1,62
 580 371 580 371 574.5 358 c 128,-1,63
 569 345 569 345 568 336 c 1,64,65
 569 330 569 330 570.5 311 c 128,-1,66
 572 292 572 292 574 280.5 c 128,-1,67
 576 269 576 269 584.5 258.5 c 128,-1,68
 593 248 593 248 607 248 c 1,69,70
 620 247 620 247 648.5 235 c 128,-1,71
 677 223 677 223 694 224 c 0,72,73
 706 224 706 224 711.5 223 c 128,-1,74
 717 222 717 222 725 226 c 128,-1,75
 733 230 733 230 736 232.5 c 128,-1,76
 739 235 739 235 747 241.5 c 128,-1,77
 755 248 755 248 761 252 c 1,78,79
 777 250 777 250 785 231 c 128,-1,80
 793 212 793 212 786 194.5 c 128,-1,81
 779 177 779 177 759 178 c 1,82,83
 722 174 722 174 687.5 173 c 128,-1,84
 653 172 653 172 605.5 173 c 128,-1,85
 558 174 558 174 533 174 c 0,86,87
 521 174 521 174 498 174.5 c 128,-1,88
 475 175 475 175 460.5 175.5 c 128,-1,89
 446 176 446 176 426 178.5 c 128,-1,90
 406 181 406 181 390 185 c 1,91,92
 380 201 380 201 374.5 201.5 c 128,-1,93
 369 202 369 202 361 191.5 c 128,-1,94
 353 181 353 181 347 177 c 1,95,96
 341 179 341 179 325 179 c 128,-1,97
 309 179 309 179 303 183 c 1,0,1
EndSplineSet
Validated: 2097185
EndChar

StartChar: glyph
Encoding: 50 50 18
Width: 734
GlyphClass: 2
Flags: W
LayerCount: 2
Fore
SplineSet
497 986 m 0,0,1
 455 986 455 986 425 974 c 1,2,3
 340 933 340 933 302 892 c 1,4,5
 285 879 285 879 292 857 c 128,-1,6
 299 835 299 835 321 836 c 0,7,8
 334 837 334 837 354 850 c 128,-1,9
 374 863 374 863 382 865 c 0,10,11
 392 868 392 868 409 882 c 128,-1,12
 426 896 426 896 439 896 c 1,13,14
 454 889 454 889 470.5 896.5 c 128,-1,15
 487 904 487 904 499 912 c 1,16,17
 557 923 557 923 626 895 c 1,18,19
 684 863 684 863 716 806 c 0,20,21
 725 788 725 788 716.5 785 c 128,-1,22
 708 782 708 782 696.5 776 c 128,-1,23
 685 770 685 770 689 759 c 0,24,25
 696 737 696 737 689.5 712.5 c 128,-1,26
 683 688 683 688 665 672 c 1,27,28
 653 670 653 670 642.5 668 c 128,-1,29
 632 666 632 666 621 660 c 128,-1,30
 610 654 610 654 603 644 c 0,31,32
 597 634 597 634 588 630 c 128,-1,33
 579 626 579 626 567 623.5 c 128,-1,34
 555 621 555 621 548 618 c 1,35,36
 539 607 539 607 518.5 616 c 128,-1,37
 498 625 498 625 489 620 c 1,38,39
 481 613 481 613 474 606 c 128,-1,40
 467 599 467 599 457.5 594 c 128,-1,41
 448 589 448 589 439 588 c 1,42,43
 428 595 428 595 413 587 c 1,44,45
 404 581 404 581 413 579 c 0,46,47
 416 578 416 578 421 578 c 0,48,49
 431 580 431 580 450 580.5 c 128,-1,50
 469 581 469 581 480 584 c 1,51,52
 474 579 474 579 472 577 c 1,53,54
 469 576 469 576 444 573.5 c 128,-1,55
 419 571 419 571 408 561 c 1,56,57
 402 554 402 554 397 547 c 128,-1,58
 392 540 392 540 384 535 c 128,-1,59
 376 530 376 530 367 529 c 1,60,61
 357 529 357 529 349.5 522.5 c 128,-1,62
 342 516 342 516 339 509.5 c 128,-1,63
 336 503 336 503 332 492 c 1,64,65
 326 481 326 481 307.5 481.5 c 128,-1,66
 289 482 289 482 280 479 c 1,67,68
 280 468 280 468 280.5 458.5 c 128,-1,69
 281 449 281 449 278.5 438.5 c 128,-1,70
 276 428 276 428 270 420 c 0,71,72
 246 390 246 390 241 364 c 1,73,74
 239 359 239 359 230.5 351 c 128,-1,75
 222 343 222 343 218.5 335 c 128,-1,76
 215 327 215 327 218 318 c 0,77,78
 231 284 231 284 223 245 c 0,79,80
 220 231 220 231 228 218 c 128,-1,81
 236 205 236 205 250 204 c 1,82,83
 284 190 284 190 314 183 c 128,-1,84
 344 176 344 176 378 173 c 128,-1,85
 412 170 412 170 456.5 170 c 128,-1,86
 501 170 501 170 564 170 c 1,87,88
 574 169 574 169 594 175.5 c 128,-1,89
 614 182 614 182 626 181 c 0,90,91
 630 181 630 181 647 182 c 128,-1,92
 664 183 664 183 674.5 181.5 c 128,-1,93
 685 180 685 180 694 175 c 1,94,95
 722 169 722 169 771 177 c 1,96,97
 826 189 826 189 833 222 c 1,98,99
 834 241 834 241 819.5 257 c 128,-1,100
 805 273 805 273 786 274 c 0,101,102
 782 274 782 274 772 272.5 c 128,-1,103
 762 271 762 271 756.5 270.5 c 128,-1,104
 751 270 751 270 743 271.5 c 128,-1,105
 735 273 735 273 729 277 c 1,106,107
 709 298 709 298 680 282 c 1,108,109
 642 274 642 274 581 274.5 c 128,-1,110
 520 275 520 275 482 275 c 1,111,112
 470 276 470 276 451.5 270 c 128,-1,113
 433 264 433 264 425 265 c 0,114,115
 419 265 419 265 410 269 c 128,-1,116
 401 273 401 273 394 276 c 128,-1,117
 387 279 387 279 380 277.5 c 128,-1,118
 373 276 373 276 370 267 c 1,119,120
 347 261 347 261 295 310 c 1,121,122
 300 296 300 296 312 280.5 c 128,-1,123
 324 265 324 265 333 254 c 1,124,125
 325 262 325 262 318 269.5 c 128,-1,126
 311 277 311 277 303.5 286.5 c 128,-1,127
 296 296 296 296 292 306 c 1,128,129
 290 316 290 316 293.5 327.5 c 128,-1,130
 297 339 297 339 304.5 352 c 128,-1,131
 312 365 312 365 314 372 c 1,132,133
 319 380 319 380 323 401.5 c 128,-1,134
 327 423 327 423 334 432 c 0,135,136
 371 484 371 484 413 484 c 0,137,138
 423 484 423 484 432 490.5 c 128,-1,139
 441 497 441 497 445 502 c 128,-1,140
 449 507 449 507 457 518 c 0,141,142
 463 527 463 527 481.5 523 c 128,-1,143
 500 519 500 519 507 523 c 1,144,145
 516 526 516 526 532 541 c 128,-1,146
 548 556 548 556 560 560 c 1,147,148
 567 560 567 560 573 562 c 1,149,150
 569 559 569 559 565 558 c 0,151,152
 564 557 564 557 558 554 c 128,-1,153
 552 551 552 551 548.5 548 c 128,-1,154
 545 545 545 545 546 542 c 1,155,156
 557 539 557 539 569.5 543 c 128,-1,157
 582 547 582 547 591.5 552.5 c 128,-1,158
 601 558 601 558 612 564 c 0,159,160
 617 567 617 567 638.5 570.5 c 128,-1,161
 660 574 660 574 668 587 c 1,162,163
 674 599 674 599 696.5 602 c 128,-1,164
 719 605 719 605 724 617 c 1,165,166
 730 637 730 637 751.5 669 c 128,-1,167
 773 701 773 701 778 713 c 1,168,169
 786 728 786 728 787 748 c 128,-1,170
 788 768 788 768 786 779 c 128,-1,171
 784 790 784 790 779 815 c 0,172,173
 776 830 776 830 769 850.5 c 128,-1,174
 762 871 762 871 750 880 c 1,175,176
 736 886 736 886 725.5 910 c 128,-1,177
 715 934 715 934 706 941 c 0,178,179
 699 947 699 947 672.5 948 c 128,-1,180
 646 949 646 949 641 964 c 1,181,182
 634 973 634 973 623 976.5 c 128,-1,183
 612 980 612 980 595 981 c 128,-1,184
 578 982 578 982 571 983 c 1,185,186
 563 983 563 983 537.5 984.5 c 128,-1,187
 512 986 512 986 497 986 c 0,0,1
EndSplineSet
Validated: 2097193
EndChar

StartChar: glyph
Encoding: 51 51 19
Width: 734
GlyphClass: 2
Flags: W
LayerCount: 2
Fore
SplineSet
349 993 m 0,0,1
 330 991 330 991 316 974 c 1,2,3
 302 955 302 955 308 927 c 128,-1,4
 314 899 314 899 338 891 c 1,5,6
 364 888 364 888 410.5 895.5 c 128,-1,7
 457 903 457 903 474 903 c 1,8,9
 492 905 492 905 524 902.5 c 128,-1,10
 556 900 556 900 569 901 c 1,11,12
 576 900 576 900 585.5 903.5 c 128,-1,13
 595 907 595 907 602 911 c 128,-1,14
 609 915 609 915 617 913.5 c 128,-1,15
 625 912 625 912 630 902 c 1,16,17
 643 867 643 867 602 830 c 1,18,19
 592 824 592 824 582 804.5 c 128,-1,20
 572 785 572 785 563 779 c 1,21,22
 529 769 529 769 514 734 c 0,23,24
 508 721 508 721 491.5 716 c 128,-1,25
 475 711 475 711 462 710 c 1,26,27
 454 702 454 702 447.5 678 c 128,-1,28
 441 654 441 654 432 645 c 1,29,30
 422 631 422 631 411 610 c 128,-1,31
 400 589 400 589 403 571 c 1,32,33
 410 551 410 551 448 561 c 0,34,35
 454 563 454 563 472 567 c 128,-1,36
 490 571 490 571 502.5 572.5 c 128,-1,37
 515 574 515 574 527 573 c 1,38,39
 530 561 530 561 538.5 556.5 c 128,-1,40
 547 552 547 552 557 561 c 1,41,42
 579 584 579 584 634 581 c 1,43,44
 646 579 646 579 654.5 583 c 128,-1,45
 663 587 663 587 674 598 c 1,46,47
 670 593 670 593 669 586 c 1,48,49
 678 574 678 574 709 568.5 c 128,-1,50
 740 563 740 563 749 550 c 1,51,52
 758 528 758 528 763.5 495.5 c 128,-1,53
 769 463 769 463 771 439 c 0,54,55
 771 433 771 433 772 416.5 c 128,-1,56
 773 400 773 400 773 390.5 c 128,-1,57
 773 381 773 381 768.5 369.5 c 128,-1,58
 764 358 764 358 755 351 c 1,59,60
 737 350 737 350 730 336 c 128,-1,61
 723 322 723 322 718.5 302 c 128,-1,62
 714 282 714 282 707 273 c 1,63,64
 701 259 701 259 679.5 244.5 c 128,-1,65
 658 230 658 230 653 214 c 0,66,67
 637 171 637 171 584 160 c 0,68,69
 541 152 541 152 517 117 c 1,70,71
 500 121 500 121 476 104.5 c 128,-1,72
 452 88 452 88 448 86 c 1,73,74
 432 90 432 90 418 84.5 c 128,-1,75
 404 79 404 79 388.5 67 c 128,-1,76
 373 55 373 55 363 51 c 0,77,78
 306 33 306 33 283 60 c 1,79,80
 268 60 268 60 254 47.5 c 128,-1,81
 240 35 240 35 240.5 20.5 c 128,-1,82
 241 6 241 6 262 2 c 1,83,84
 269 -2 269 -2 280 -6.5 c 128,-1,85
 291 -11 291 -11 300 -10 c 1,86,87
 307 1 307 1 319 3 c 128,-1,88
 331 5 331 5 341.5 2.5 c 128,-1,89
 352 0 352 0 365 4 c 1,90,91
 383 12 383 12 402.5 18.5 c 128,-1,92
 422 25 422 25 448 32 c 128,-1,93
 474 39 474 39 486 43 c 1,94,95
 508 56 508 56 570 77 c 1,96,97
 580 93 580 93 609 106 c 128,-1,98
 638 119 638 119 647 130 c 1,99,100
 654 135 654 135 656 145.5 c 128,-1,101
 658 156 658 156 657 165.5 c 128,-1,102
 656 175 656 175 659.5 181 c 128,-1,103
 663 187 663 187 673 185 c 0,104,105
 691 183 691 183 715 207 c 128,-1,106
 739 231 739 231 758 230 c 1,107,108
 769 242 769 242 775.5 262 c 128,-1,109
 782 282 782 282 783 291 c 128,-1,110
 784 300 784 300 786 328 c 1,111,112
 783 343 783 343 790.5 349.5 c 128,-1,113
 798 356 798 356 812.5 359.5 c 128,-1,114
 827 363 827 363 832 366 c 1,115,116
 843 404 843 404 829 483 c 1,117,118
 822 542 822 542 752 584 c 1,119,120
 702 616 702 616 681 604 c 1,121,122
 685 608 685 608 690 610 c 1,123,124
 702 609 702 609 701.5 615.5 c 128,-1,125
 701 622 701 622 691 626 c 1,126,127
 638 658 638 658 600 653 c 1,128,129
 582 647 582 647 577.5 665.5 c 128,-1,130
 573 684 573 684 583 695 c 0,131,132
 588 701 588 701 599.5 707.5 c 128,-1,133
 611 714 611 714 618 721.5 c 128,-1,134
 625 729 625 729 625 741 c 1,135,136
 636 758 636 758 649 774 c 128,-1,137
 662 790 662 790 685 813.5 c 128,-1,138
 708 837 708 837 714 843 c 0,139,140
 718 848 718 848 731 861 c 128,-1,141
 744 874 744 874 750 881 c 128,-1,142
 756 888 756 888 762 901 c 128,-1,143
 768 914 768 914 768 926 c 1,144,145
 770 944 770 944 755.5 952 c 128,-1,146
 741 960 741 960 722 960 c 0,147,148
 696 960 696 960 651 978 c 1,149,150
 614 955 614 955 590 976 c 1,151,152
 578 982 578 982 564 982.5 c 128,-1,153
 550 983 550 983 540 980.5 c 128,-1,154
 530 978 530 978 514 973.5 c 128,-1,155
 498 969 498 969 489 967 c 1,156,157
 483 963 483 963 473 964.5 c 128,-1,158
 463 966 463 966 457.5 968.5 c 128,-1,159
 452 971 452 971 443 975 c 128,-1,160
 434 979 434 979 428 981 c 1,161,162
 421 982 421 982 408.5 979 c 128,-1,163
 396 976 396 976 386 977.5 c 128,-1,164
 376 979 376 979 370 989 c 1,165,166
 361 995 361 995 349 993 c 0,0,1
660 856 m 0,167,168
 666 856 666 856 667 844 c 1,169,170
 667 830 667 830 658 827 c 1,171,172
 647 826 647 826 645.5 833 c 128,-1,173
 644 840 644 840 649 847.5 c 128,-1,174
 654 855 654 855 660 856 c 0,167,168
530 700 m 0,175,176
 537 700 537 700 541 695 c 128,-1,177
 545 690 545 690 543 681 c 1,178,179
 542 671 542 671 536 663.5 c 128,-1,180
 530 656 530 656 521 653 c 0,181,182
 511 650 511 650 507.5 652.5 c 128,-1,183
 504 655 504 655 506 662.5 c 128,-1,184
 508 670 508 670 511.5 676 c 128,-1,185
 515 682 515 682 518 688 c 0,186,187
 522 699 522 699 530 700 c 0,175,176
467 645 m 0,188,189
 477 645 477 645 487.5 636 c 128,-1,190
 498 627 498 627 497 617 c 1,191,-1
 497 614 l 1,192,193
 492 593 492 593 474.5 606 c 128,-1,194
 457 619 457 619 454 634 c 1,195,196
 456 645 456 645 467 645 c 0,188,189
EndSplineSet
Validated: 2097193
EndChar

StartChar: glyph
Encoding: 52 52 20
Width: 734
GlyphClass: 2
Flags: W
LayerCount: 2
Fore
SplineSet
623 55 m 1,0,1
 623 73 623 73 619 94 c 128,-1,2
 615 115 615 115 608.5 138 c 128,-1,3
 602 161 602 161 599 172 c 1,4,5
 616 178 616 178 622 200.5 c 128,-1,6
 628 223 628 223 622 243.5 c 128,-1,7
 616 264 616 264 601 266 c 1,8,9
 602 291 602 291 593 305 c 0,10,11
 586 316 586 316 573 303 c 1,12,13
 560 311 560 311 545 308 c 128,-1,14
 530 305 530 305 518.5 298 c 128,-1,15
 507 291 507 291 492 290 c 128,-1,16
 477 289 477 289 465 301 c 1,17,18
 450 306 450 306 430.5 304 c 128,-1,19
 411 302 411 302 394.5 296 c 128,-1,20
 378 290 378 290 360.5 291 c 128,-1,21
 343 292 343 292 331 304 c 1,22,23
 324 304 324 304 308 303 c 128,-1,24
 292 302 292 302 281.5 302 c 128,-1,25
 271 302 271 302 259 305 c 128,-1,26
 247 308 247 308 241.5 318 c 128,-1,27
 236 328 236 328 237 345 c 1,28,29
 235 367 235 367 238 399 c 128,-1,30
 241 431 241 431 256 448 c 1,31,32
 293 483 293 483 288 567 c 1,33,34
 303 576 303 576 313.5 595 c 128,-1,35
 324 614 324 614 327 627 c 128,-1,36
 330 640 330 640 335 666 c 1,37,38
 328 688 328 688 346.5 722.5 c 128,-1,39
 365 757 365 757 361 777 c 1,40,41
 365 816 365 816 363.5 847 c 128,-1,42
 362 878 362 878 363.5 917 c 128,-1,43
 365 956 365 956 373 986 c 0,44,45
 378 1001 378 1001 392.5 1007 c 128,-1,46
 407 1013 407 1013 422 1011.5 c 128,-1,47
 437 1010 437 1010 453 1011 c 1,48,49
 452 993 452 993 449.5 948 c 128,-1,50
 447 903 447 903 447 884.5 c 128,-1,51
 447 866 447 866 451 821 c 1,52,53
 461 803 461 803 455 791.5 c 128,-1,54
 449 780 449 780 439.5 760 c 128,-1,55
 430 740 430 740 432 726 c 1,56,57
 425 706 425 706 431.5 690 c 128,-1,58
 438 674 438 674 437 657 c 128,-1,59
 436 640 436 640 419 629 c 1,60,61
 387 575 387 575 394 511 c 1,62,63
 367 490 367 490 357.5 454.5 c 128,-1,64
 348 419 348 419 367 389 c 1,65,66
 384 376 384 376 405 376.5 c 128,-1,67
 426 377 426 377 443 385.5 c 128,-1,68
 460 394 460 394 475 408 c 1,69,70
 486 409 486 409 498 402 c 128,-1,71
 510 395 510 395 518.5 388.5 c 128,-1,72
 527 382 527 382 540 379.5 c 128,-1,73
 553 377 553 377 565 387 c 1,74,75
 600 399 600 399 617.5 433 c 128,-1,76
 635 467 635 467 617 499 c 1,77,78
 622 548 622 548 592 584 c 1,79,80
 609 594 609 594 611.5 613 c 128,-1,81
 614 632 614 632 614.5 654.5 c 128,-1,82
 615 677 615 677 624 689 c 1,83,84
 634 700 634 700 655.5 705 c 128,-1,85
 677 710 677 710 696 704 c 128,-1,86
 715 698 715 698 716 680 c 0,87,88
 717 648 717 648 715.5 593.5 c 128,-1,89
 714 539 714 539 715 492.5 c 128,-1,90
 716 446 716 446 721 406 c 1,91,92
 724 394 724 394 730 393.5 c 128,-1,93
 736 393 736 393 741.5 400.5 c 128,-1,94
 747 408 747 408 754 414.5 c 128,-1,95
 761 421 761 421 768 422 c 128,-1,96
 775 423 775 423 783 411 c 1,97,98
 788 395 788 395 802.5 392 c 128,-1,99
 817 389 817 389 831.5 393 c 128,-1,100
 846 397 846 397 860.5 392.5 c 128,-1,101
 875 388 875 388 880 370 c 1,102,103
 904 340 904 340 881.5 316 c 128,-1,104
 859 292 859 292 825 298 c 1,105,106
 787 297 787 297 758 282.5 c 128,-1,107
 729 268 729 268 726 234 c 1,108,109
 720 198 720 198 720 144 c 128,-1,110
 720 90 720 90 720 53 c 1,111,112
 711 53 711 53 690 51 c 128,-1,113
 669 49 669 49 653.5 49 c 128,-1,114
 638 49 638 49 624 54 c 1,115,-1
 623 55 l 1,116,-1
 623 55 l 1,0,1
669 268 m 1,117,118
 671 275 671 275 676.5 282 c 128,-1,119
 682 289 682 289 686 293 c 128,-1,120
 690 297 690 297 687.5 302.5 c 128,-1,121
 685 308 685 308 673 314 c 1,122,123
 674 322 674 322 670 334.5 c 128,-1,124
 666 347 666 347 659 358 c 128,-1,125
 652 369 652 369 644 376 c 128,-1,126
 636 383 636 383 627.5 380.5 c 128,-1,127
 619 378 619 378 614 363 c 1,128,129
 613 343 613 343 632 310 c 128,-1,130
 651 277 651 277 650 258 c 1,131,132
 655 248 655 248 663 253.5 c 128,-1,133
 671 259 671 259 669 268 c 1,117,118
335 367 m 1,134,135
 336 377 336 377 329 377 c 0,136,137
 318 377 318 377 308 362 c 0,138,139
 299 349 299 349 315 349 c 1,140,141
 324 359 324 359 335 367 c 1,134,135
673 541 m 0,142,-1
375 598 m 0,143,-1
EndSplineSet
Validated: 2097189
EndChar

StartChar: glyph
Encoding: 53 53 21
Width: 734
GlyphClass: 2
Flags: W
LayerCount: 2
Fore
SplineSet
238 6 m 0,0,1
 224 30 224 30 247.5 50.5 c 128,-1,2
 271 71 271 71 303 81 c 1,3,-1
 400 127 l 1,4,5
 405 131 405 131 411 141 c 128,-1,6
 417 151 417 151 422.5 159 c 128,-1,7
 428 167 428 167 434.5 174 c 128,-1,8
 441 181 441 181 449.5 180.5 c 128,-1,9
 458 180 458 180 468 171 c 1,10,11
 477 170 477 170 485 178 c 128,-1,12
 493 186 493 186 498.5 195.5 c 128,-1,13
 504 205 504 205 508.5 212 c 128,-1,14
 513 219 513 219 517 217 c 128,-1,15
 521 215 521 215 526 199 c 1,16,17
 542 191 542 191 549.5 200.5 c 128,-1,18
 557 210 557 210 558 226 c 128,-1,19
 559 242 559 242 564.5 253 c 128,-1,20
 570 264 570 264 584 258 c 1,21,22
 596 247 596 247 609.5 253.5 c 128,-1,23
 623 260 623 260 631.5 270.5 c 128,-1,24
 640 281 640 281 652 295 c 128,-1,25
 664 309 664 309 673 314 c 1,26,27
 676 323 676 323 679 342.5 c 128,-1,28
 682 362 682 362 684.5 373 c 128,-1,29
 687 384 687 384 697.5 394.5 c 128,-1,30
 708 405 708 405 726 406 c 1,31,32
 756 450 756 450 736 500 c 1,33,34
 738 514 738 514 740.5 525 c 128,-1,35
 743 536 743 536 738 545 c 128,-1,36
 733 554 733 554 718 558 c 1,37,38
 704 573 704 573 694 587 c 128,-1,39
 684 601 684 601 668 609.5 c 128,-1,40
 652 618 652 618 632 615 c 1,41,42
 625 616 625 616 616.5 622.5 c 128,-1,43
 608 629 608 629 603 634 c 128,-1,44
 598 639 598 639 591 637 c 128,-1,45
 584 635 584 635 577 621 c 1,46,47
 570 614 570 614 562.5 618.5 c 128,-1,48
 555 623 555 623 550 631 c 128,-1,49
 545 639 545 639 536.5 641 c 128,-1,50
 528 643 528 643 519 632 c 1,51,52
 511 619 511 619 497 615 c 128,-1,53
 483 611 483 611 470.5 612 c 128,-1,54
 458 613 458 613 446.5 606.5 c 128,-1,55
 435 600 435 600 431 583 c 1,56,57
 422 577 422 577 395.5 585 c 128,-1,58
 369 593 369 593 357 580 c 1,59,60
 333 572 333 572 319 589 c 128,-1,61
 305 606 305 606 304.5 630 c 128,-1,62
 304 654 304 654 306 674 c 1,63,64
 312 695 312 695 311 718 c 128,-1,65
 310 741 310 741 304.5 761 c 128,-1,66
 299 781 299 781 293 804 c 1,67,68
 303 825 303 825 299 842 c 128,-1,69
 295 859 295 859 296 880 c 128,-1,70
 297 901 297 901 311 915 c 1,71,72
 314 923 314 923 316.5 929 c 128,-1,73
 319 935 319 935 323.5 943.5 c 128,-1,74
 328 952 328 952 332 957.5 c 128,-1,75
 336 963 336 963 342 968.5 c 128,-1,76
 348 974 348 974 354.5 976.5 c 128,-1,77
 361 979 361 979 369 979 c 128,-1,78
 377 979 377 979 386 975 c 1,79,80
 395 968 395 968 414 973 c 128,-1,81
 433 978 433 978 447 981 c 128,-1,82
 461 984 461 984 477 966 c 1,83,84
 486 958 486 958 520 961 c 128,-1,85
 554 964 554 964 559 952 c 1,86,87
 567 983 567 983 590.5 987.5 c 128,-1,88
 614 992 614 992 628 965 c 1,89,90
 639 979 639 979 650.5 986.5 c 128,-1,91
 662 994 662 994 675 991 c 128,-1,92
 688 988 688 988 698 971 c 1,93,94
 703 970 703 970 713.5 968 c 128,-1,95
 724 966 724 966 732.5 965 c 128,-1,96
 741 964 741 964 751 961 c 128,-1,97
 761 958 761 958 765.5 953.5 c 128,-1,98
 770 949 770 949 773 941 c 128,-1,99
 776 933 776 933 770 922 c 1,100,101
 762 910 762 910 752 912 c 128,-1,102
 742 914 742 914 733 922.5 c 128,-1,103
 724 931 724 931 712.5 934.5 c 128,-1,104
 701 938 701 938 689 929 c 1,105,106
 674 922 674 922 660 927.5 c 128,-1,107
 646 933 646 933 633.5 929.5 c 128,-1,108
 621 926 621 926 618 905 c 1,109,110
 609 894 609 894 598.5 899 c 128,-1,111
 588 904 588 904 581 915 c 128,-1,112
 574 926 574 926 562 935 c 128,-1,113
 550 944 550 944 536 940 c 1,114,115
 513 947 513 947 495 938 c 128,-1,116
 477 929 477 929 456 910 c 1,117,118
 446 935 446 935 430.5 933 c 128,-1,119
 415 931 415 931 400.5 917 c 128,-1,120
 386 903 386 903 379 886 c 1,121,122
 388 841 388 841 364 827 c 1,123,124
 370 816 370 816 366.5 802 c 128,-1,125
 363 788 363 788 355 777 c 128,-1,126
 347 766 347 766 344.5 751.5 c 128,-1,127
 342 737 342 737 351 724 c 1,128,129
 369 718 369 718 370.5 706 c 128,-1,130
 372 694 372 694 365 677 c 1,131,132
 370 666 370 666 377 666.5 c 128,-1,133
 384 667 384 667 390 674 c 128,-1,134
 396 681 396 681 405 682.5 c 128,-1,135
 414 684 414 684 423 676 c 0,136,137
 439 664 439 664 465 673 c 128,-1,138
 491 682 491 682 506 673 c 1,139,140
 523 673 523 673 567 683 c 128,-1,141
 611 693 611 693 635 692 c 1,142,143
 658 687 658 687 695 668.5 c 128,-1,144
 732 650 732 650 742 647 c 1,145,146
 749 632 749 632 767.5 613 c 128,-1,147
 786 594 786 594 796.5 576.5 c 128,-1,148
 807 559 807 559 807 538 c 1,149,150
 818 520 818 520 823.5 506.5 c 128,-1,151
 829 493 829 493 827 476.5 c 128,-1,152
 825 460 825 460 812 447 c 1,153,154
 807 433 807 433 799 387.5 c 128,-1,155
 791 342 791 342 777 321 c 1,156,157
 765 315 765 315 757 300.5 c 128,-1,158
 749 286 749 286 744.5 272.5 c 128,-1,159
 740 259 740 259 728.5 248 c 128,-1,160
 717 237 717 237 699 236 c 1,161,162
 665 222 665 222 642 197 c 128,-1,163
 619 172 619 172 621 140 c 1,164,165
 611 129 611 129 577.5 124.5 c 128,-1,166
 544 120 544 120 532 102 c 1,167,168
 491 100 491 100 468 51 c 1,169,170
 463 52 463 52 451 53.5 c 128,-1,171
 439 55 439 55 432.5 55 c 128,-1,172
 426 55 426 55 417 53 c 128,-1,173
 408 51 408 51 402.5 44.5 c 128,-1,174
 397 38 397 38 395 26 c 1,175,176
 375 17 375 17 335 13 c 128,-1,177
 295 9 295 9 287 7 c 0,178,179
 284 6 284 6 275 2.5 c 128,-1,180
 266 -1 266 -1 260 -2.5 c 128,-1,181
 254 -4 254 -4 247.5 -2.5 c 128,-1,182
 241 -1 241 -1 238 6 c 0,0,1
EndSplineSet
Validated: 2097185
EndChar

StartChar: glyph
Encoding: 54 54 22
Width: 734
GlyphClass: 2
Flags: W
LayerCount: 2
Fore
SplineSet
462 -17 m 1,0,1
 392 8 392 8 361 45 c 1,2,3
 345 54 345 54 332.5 74.5 c 128,-1,4
 320 95 320 95 308 113 c 128,-1,5
 296 131 296 131 278 138 c 1,6,7
 274 148 274 148 271 186 c 128,-1,8
 268 224 268 224 249 240 c 1,9,10
 248 247 248 247 247.5 262.5 c 128,-1,11
 247 278 247 278 246.5 287 c 128,-1,12
 246 296 246 296 240.5 307.5 c 128,-1,13
 235 319 235 319 225 327 c 1,14,15
 248 365 248 365 253 451 c 1,16,17
 259 524 259 524 272 578.5 c 128,-1,18
 285 633 285 633 316 678 c 1,19,20
 331 705 331 705 355 741.5 c 128,-1,21
 379 778 379 778 401 799 c 0,22,23
 410 808 410 808 427 829 c 128,-1,24
 444 850 444 850 459.5 863.5 c 128,-1,25
 475 877 475 877 494 882 c 1,26,27
 497 899 497 899 510.5 906 c 128,-1,28
 524 913 524 913 538.5 913.5 c 128,-1,29
 553 914 553 914 568 920.5 c 128,-1,30
 583 927 583 927 589 942 c 1,31,32
 606 941 606 941 620.5 948.5 c 128,-1,33
 635 956 635 956 652 969.5 c 128,-1,34
 669 983 669 983 674 986 c 1,35,36
 675 973 675 973 689 966 c 128,-1,37
 703 959 703 959 715.5 957 c 128,-1,38
 728 955 728 955 733.5 946.5 c 128,-1,39
 739 938 739 938 724 922 c 1,40,41
 713 905 713 905 698.5 896 c 128,-1,42
 684 887 684 887 653.5 878.5 c 128,-1,43
 623 870 623 870 619 868 c 0,44,45
 605 857 605 857 564.5 842.5 c 128,-1,46
 524 828 524 828 507 809 c 1,47,48
 487 807 487 807 476 792 c 128,-1,49
 465 777 465 777 455.5 757 c 128,-1,50
 446 737 446 737 432 727 c 1,51,52
 379 659 379 659 374 601 c 1,53,54
 363 587 363 587 356.5 551 c 128,-1,55
 350 515 350 515 338 499 c 1,56,57
 338 480 338 480 348 472.5 c 128,-1,58
 358 465 358 465 373 467 c 128,-1,59
 388 469 388 469 402 474.5 c 128,-1,60
 416 480 416 480 427 488 c 0,61,62
 449 503 449 503 477 506.5 c 128,-1,63
 505 510 505 510 524 500 c 1,64,65
 521 516 521 516 528.5 522 c 128,-1,66
 536 528 536 528 546.5 522.5 c 128,-1,67
 557 517 557 517 559 503 c 1,68,69
 581 500 581 500 600.5 499 c 128,-1,70
 620 498 620 498 642.5 491.5 c 128,-1,71
 665 485 665 485 682 473 c 1,72,73
 753 437 753 437 773 376 c 1,74,75
 778 369 778 369 798 349 c 128,-1,76
 818 329 818 329 825.5 313 c 128,-1,77
 833 297 833 297 828 277 c 1,78,79
 812 175 812 175 769 102 c 1,80,81
 759 93 759 93 748.5 72 c 128,-1,82
 738 51 738 51 725.5 38 c 128,-1,83
 713 25 713 25 693 25 c 1,84,85
 691 23 691 23 682.5 17 c 128,-1,86
 674 11 674 11 671.5 9 c 128,-1,87
 669 7 669 7 661.5 2 c 128,-1,88
 654 -3 654 -3 650 -4.5 c 128,-1,89
 646 -6 646 -6 639 -9 c 128,-1,90
 632 -12 632 -12 626.5 -12 c 128,-1,91
 621 -12 621 -12 614 -11.5 c 128,-1,92
 607 -11 607 -11 600 -9 c 1,93,94
 580 -24 580 -24 549 -27 c 128,-1,95
 518 -30 518 -30 494 -26 c 1,96,97
 487 -26 487 -26 477 -24 c 128,-1,98
 467 -22 467 -22 462 -17 c 1,0,1
597 80 m 1,99,100
 606 89 606 89 627 95 c 128,-1,101
 648 101 648 101 662.5 110.5 c 128,-1,102
 677 120 677 120 679 142 c 1,103,104
 682 155 682 155 693 168 c 128,-1,105
 704 181 704 181 714 189 c 128,-1,106
 724 197 724 197 729.5 210.5 c 128,-1,107
 735 224 735 224 730 241 c 1,108,109
 731 282 731 282 715 321.5 c 128,-1,110
 699 361 699 361 670 388 c 1,111,112
 657 390 657 390 643.5 400.5 c 128,-1,113
 630 411 630 411 621 419.5 c 128,-1,114
 612 428 612 428 597 433 c 128,-1,115
 582 438 582 438 567 431 c 1,116,117
 472 426 472 426 406 397 c 1,118,119
 379 401 379 401 365.5 371.5 c 128,-1,120
 352 342 352 342 354 314 c 1,121,122
 356 303 356 303 350 279 c 128,-1,123
 344 255 344 255 347.5 238.5 c 128,-1,124
 351 222 351 222 373 212 c 1,125,126
 376 198 376 198 373.5 182 c 128,-1,127
 371 166 371 166 378.5 150.5 c 128,-1,128
 386 135 386 135 405 131 c 0,129,130
 418 129 418 129 444.5 109.5 c 128,-1,131
 471 90 471 90 493 94 c 1,132,133
 499 91 499 91 517.5 80.5 c 128,-1,134
 536 70 536 70 546.5 66 c 128,-1,135
 557 62 557 62 571.5 64 c 128,-1,136
 586 66 586 66 597 80 c 1,99,100
EndSplineSet
Validated: 2097185
EndChar

StartChar: glyph
Encoding: 55 55 23
Width: 734
GlyphClass: 2
Flags: W
LayerCount: 2
Fore
SplineSet
418 3 m 0,0,1
 411 16 411 16 410 32 c 128,-1,2
 409 48 409 48 412.5 61 c 128,-1,3
 416 74 416 74 419.5 91 c 128,-1,4
 423 108 423 108 422 121 c 1,5,6
 424 134 424 134 430.5 201 c 128,-1,7
 437 268 437 268 446 302 c 1,8,9
 452 315 452 315 480 348.5 c 128,-1,10
 508 382 508 382 509 407 c 1,11,12
 523 434 523 434 543 458 c 128,-1,13
 563 482 563 482 595.5 514 c 128,-1,14
 628 546 628 546 639 558 c 1,15,16
 654 572 654 572 669 605 c 128,-1,17
 684 638 684 638 693 651 c 1,18,19
 695 675 695 675 717.5 713 c 128,-1,20
 740 751 740 751 743 772 c 1,21,22
 739 781 739 781 743.5 797.5 c 128,-1,23
 748 814 748 814 753 827 c 128,-1,24
 758 840 758 840 753.5 849.5 c 128,-1,25
 749 859 749 859 729 860 c 1,26,27
 720 863 720 863 705.5 869 c 128,-1,28
 691 875 691 875 682.5 878 c 128,-1,29
 674 881 674 881 658 883.5 c 128,-1,30
 642 886 642 886 631 882 c 0,31,32
 623 880 623 880 605 874.5 c 128,-1,33
 587 869 587 869 577.5 867 c 128,-1,34
 568 865 568 865 553.5 866 c 128,-1,35
 539 867 539 867 525 874 c 1,36,37
 466 890 466 890 420 865 c 1,38,39
 388 879 388 879 371 854.5 c 128,-1,40
 354 830 354 830 357 797 c 1,41,42
 357 782 357 782 355.5 765.5 c 128,-1,43
 354 749 354 749 351.5 734 c 128,-1,44
 349 719 349 719 341 704.5 c 128,-1,45
 333 690 333 690 321 680 c 1,46,47
 314 665 314 665 300 656 c 128,-1,48
 286 647 286 647 273 652 c 128,-1,49
 260 657 260 657 258 678 c 1,50,51
 252 698 252 698 251.5 719.5 c 128,-1,52
 251 741 251 741 255 762.5 c 128,-1,53
 259 784 259 784 263.5 802.5 c 128,-1,54
 268 821 268 821 274.5 844.5 c 128,-1,55
 281 868 281 868 284 885 c 1,56,57
 284 916 284 916 305 930.5 c 128,-1,58
 326 945 326 945 358 943 c 1,59,60
 406 973 406 973 455 944 c 1,61,62
 475 944 475 944 517 956 c 128,-1,63
 559 968 559 968 583 966 c 1,64,65
 594 967 594 967 621.5 964.5 c 128,-1,66
 649 962 649 962 669 964.5 c 128,-1,67
 689 967 689 967 704 980 c 1,68,69
 769 960 769 960 807 957 c 1,70,71
 819 947 819 947 825.5 931.5 c 128,-1,72
 832 916 832 916 833.5 903 c 128,-1,73
 835 890 835 890 835.5 868.5 c 128,-1,74
 836 847 836 847 836 838 c 0,75,76
 835 816 835 816 836 797.5 c 128,-1,77
 837 779 837 779 834.5 757 c 128,-1,78
 832 735 832 735 824 718 c 1,79,80
 804 696 804 696 784 644.5 c 128,-1,81
 764 593 764 593 749 572 c 1,82,83
 736 557 736 557 718 521 c 128,-1,84
 700 485 700 485 686 470 c 0,85,86
 678 461 678 461 659 442 c 128,-1,87
 640 423 640 423 627 407.5 c 128,-1,88
 614 392 614 392 607 375 c 0,89,90
 604 369 604 369 594.5 360 c 128,-1,91
 585 351 585 351 578.5 341 c 128,-1,92
 572 331 572 331 572 318 c 1,93,94
 558 261 558 261 563 206 c 1,95,96
 561 199 561 199 552.5 197.5 c 128,-1,97
 544 196 544 196 537.5 191.5 c 128,-1,98
 531 187 531 187 533 174 c 1,99,100
 530 154 530 154 529.5 118.5 c 128,-1,101
 529 83 529 83 525 54 c 128,-1,102
 521 25 521 25 508 2 c 0,103,104
 493 -23 493 -23 462 -23 c 128,-1,105
 431 -23 431 -23 418 3 c 0,0,1
EndSplineSet
Validated: 2097185
EndChar

StartChar: glyph
Encoding: 56 56 24
Width: 734
GlyphClass: 2
Flags: W
LayerCount: 2
Fore
SplineSet
525 79 m 1,0,1
 509 91 509 91 471.5 101.5 c 128,-1,2
 434 112 434 112 419 123 c 0,3,4
 409 130 409 130 375.5 147 c 128,-1,5
 342 164 342 164 329 179 c 1,6,7
 320 208 320 208 303.5 230 c 128,-1,8
 287 252 287 252 258 281 c 1,9,10
 224 355 224 355 240 398 c 1,11,12
 255 415 255 415 268 463 c 128,-1,13
 281 511 281 511 300 529 c 1,14,15
 328 539 328 539 347 562.5 c 128,-1,16
 366 586 366 586 370 616 c 1,17,18
 377 643 377 643 366 668 c 128,-1,19
 355 693 355 693 333 711 c 1,20,21
 330 720 330 720 322.5 736.5 c 128,-1,22
 315 753 315 753 311 762.5 c 128,-1,23
 307 772 307 772 304 788.5 c 128,-1,24
 301 805 301 805 307 816 c 1,25,26
 316 873 316 873 348 919.5 c 128,-1,27
 380 966 380 966 430 981 c 1,28,29
 441 981 441 981 457.5 988.5 c 128,-1,30
 474 996 474 996 486.5 1003 c 128,-1,31
 499 1010 499 1010 512.5 1008.5 c 128,-1,32
 526 1007 526 1007 535 992 c 1,33,34
 564 1006 564 1006 599.5 998 c 128,-1,35
 635 990 635 990 654 964 c 0,36,37
 663 953 663 953 697.5 932.5 c 128,-1,38
 732 912 732 912 740 888 c 1,39,40
 744 857 744 857 743.5 839.5 c 128,-1,41
 743 822 743 822 739.5 790.5 c 128,-1,42
 736 759 736 759 736 741 c 1,43,44
 741 692 741 692 693 641 c 0,45,46
 672 620 672 620 684.5 599.5 c 128,-1,47
 697 579 697 579 725 586 c 1,48,49
 741 575 741 575 759 541.5 c 128,-1,50
 777 508 777 508 788 497 c 1,51,52
 827 446 827 446 825 387 c 1,53,54
 837 366 837 366 822.5 328 c 128,-1,55
 808 290 808 290 812 271 c 1,56,57
 809 250 809 250 798.5 233 c 128,-1,58
 788 216 788 216 762 191 c 128,-1,59
 736 166 736 166 733 162 c 0,60,61
 717 146 717 146 692 125.5 c 128,-1,62
 667 105 667 105 645 101 c 1,63,64
 594 105 594 105 529 75 c 1,65,-1
 525 79 l 1,0,1
586 182 m 1,66,67
 596 190 596 190 620.5 203.5 c 128,-1,68
 645 217 645 217 653 223 c 1,69,70
 679 218 679 218 690 233.5 c 128,-1,71
 701 249 701 249 700 276 c 1,72,73
 719 282 719 282 728 299.5 c 128,-1,74
 737 317 737 317 737 337 c 128,-1,75
 737 357 737 357 738 377 c 0,76,77
 738 389 738 389 737 403.5 c 128,-1,78
 736 418 736 418 734.5 431 c 128,-1,79
 733 444 733 444 729 457.5 c 128,-1,80
 725 471 725 471 718 482 c 1,81,82
 709 489 709 489 688.5 517.5 c 128,-1,83
 668 546 668 546 649 554 c 1,84,85
 638 564 638 564 602 576.5 c 128,-1,86
 566 589 566 589 556 611 c 1,87,88
 549 621 549 621 537.5 619.5 c 128,-1,89
 526 618 526 618 515 611 c 128,-1,90
 504 604 504 604 493 606 c 128,-1,91
 482 608 482 608 476 625 c 1,92,93
 473 644 473 644 481.5 652 c 128,-1,94
 490 660 490 660 503 658 c 128,-1,95
 516 656 516 656 534 653.5 c 128,-1,96
 552 651 552 651 561 652 c 1,97,98
 574 651 574 651 584.5 659.5 c 128,-1,99
 595 668 595 668 600 679 c 128,-1,100
 605 690 605 690 615.5 698.5 c 128,-1,101
 626 707 626 707 640 705 c 1,102,103
 654 717 654 717 665.5 751.5 c 128,-1,104
 677 786 677 786 684 797 c 1,105,106
 690 814 690 814 687 833 c 128,-1,107
 684 852 684 852 676 868 c 128,-1,108
 668 884 668 884 660 902 c 1,109,110
 647 924 647 924 625 937.5 c 128,-1,111
 603 951 603 951 569 964 c 1,112,113
 551 979 551 979 526 975.5 c 128,-1,114
 501 972 501 972 481 962 c 128,-1,115
 461 952 461 952 441 937 c 1,116,117
 382 898 382 898 379 841 c 0,118,119
 379 833 379 833 376 812 c 128,-1,120
 373 791 373 791 373 779 c 128,-1,121
 373 767 373 767 377.5 751.5 c 128,-1,122
 382 736 382 736 394 725 c 1,123,124
 402 714 402 714 423.5 703.5 c 128,-1,125
 445 693 445 693 456 680.5 c 128,-1,126
 467 668 467 668 461 645 c 1,127,128
 462 634 462 634 460.5 619 c 128,-1,129
 459 604 459 604 457 590.5 c 128,-1,130
 455 577 455 577 447.5 565.5 c 128,-1,131
 440 554 440 554 429 549 c 1,132,133
 418 570 418 570 403 564 c 128,-1,134
 388 558 388 558 390 535 c 1,135,136
 384 515 384 515 357 482 c 128,-1,137
 330 449 330 449 326 428 c 0,138,139
 325 423 325 423 323.5 408 c 128,-1,140
 322 393 322 393 321 386.5 c 128,-1,141
 320 380 320 380 319 367.5 c 128,-1,142
 318 355 318 355 318 346.5 c 128,-1,143
 318 338 318 338 319 327 c 128,-1,144
 320 316 320 316 322 306 c 1,145,146
 328 295 328 295 336.5 283.5 c 128,-1,147
 345 272 345 272 354 262.5 c 128,-1,148
 363 253 363 253 373.5 243 c 128,-1,149
 384 233 384 233 394 224.5 c 128,-1,150
 404 216 404 216 415 206 c 0,151,152
 433 191 433 191 461.5 183.5 c 128,-1,153
 490 176 490 176 506.5 175 c 128,-1,154
 523 174 523 174 559 174 c 0,155,156
 561 174 561 174 566 174 c 0,157,158
 583 175 583 175 586 182 c 1,66,67
EndSplineSet
Validated: 2097185
EndChar

StartChar: glyph
Encoding: 57 57 25
Width: 734
GlyphClass: 2
Flags: W
LayerCount: 2
Fore
SplineSet
373 -26 m 0,0,1
 351 -23 351 -23 346 -12 c 128,-1,2
 341 -1 341 -1 349 12 c 128,-1,3
 357 25 357 25 367.5 39.5 c 128,-1,4
 378 54 378 54 387 63 c 1,5,6
 401 68 401 68 417.5 64.5 c 128,-1,7
 434 61 434 61 445.5 67 c 128,-1,8
 457 73 457 73 453 94 c 1,9,10
 459 102 459 102 473 106 c 128,-1,11
 487 110 487 110 499.5 111 c 128,-1,12
 512 112 512 112 520.5 120.5 c 128,-1,13
 529 129 529 129 525 146 c 1,14,15
 547 138 547 138 557.5 150.5 c 128,-1,16
 568 163 568 163 576.5 185 c 128,-1,17
 585 207 585 207 596 214 c 1,18,19
 615 215 615 215 625.5 229 c 128,-1,20
 636 243 636 243 644.5 261 c 128,-1,21
 653 279 653 279 665 286 c 1,22,23
 669 292 669 292 677 305 c 128,-1,24
 685 318 685 318 689 325 c 128,-1,25
 693 332 693 332 699.5 345.5 c 128,-1,26
 706 359 706 359 705.5 366.5 c 128,-1,27
 705 374 705 374 704 388 c 1,28,29
 690 393 690 393 693.5 402.5 c 128,-1,30
 697 412 697 412 707.5 420 c 128,-1,31
 718 428 718 428 719 435 c 128,-1,32
 720 442 720 442 700 442 c 1,33,34
 684 435 684 435 640 422.5 c 128,-1,35
 596 410 596 410 575 399 c 1,36,37
 567 377 567 377 552.5 376.5 c 128,-1,38
 538 376 538 376 517 388 c 128,-1,39
 496 400 496 400 485 401 c 1,40,41
 473 404 473 404 449 408 c 128,-1,42
 425 412 425 412 410.5 415.5 c 128,-1,43
 396 419 396 419 377.5 428 c 128,-1,44
 359 437 359 437 347 451 c 1,45,46
 326 464 326 464 313 473.5 c 128,-1,47
 300 483 300 483 286.5 500 c 128,-1,48
 273 517 273 517 269 537 c 1,49,50
 229 666 229 666 260 763 c 1,51,52
 266 771 266 771 286 811.5 c 128,-1,53
 306 852 306 852 329 864 c 0,54,55
 335 867 335 867 369.5 894 c 128,-1,56
 404 921 404 921 428 926 c 1,57,58
 537 959 537 959 611 936 c 1,59,60
 623 923 623 923 658.5 912 c 128,-1,61
 694 901 694 901 706 884 c 0,62,63
 719 867 719 867 749.5 832.5 c 128,-1,64
 780 798 780 798 795 778 c 1,65,66
 804 755 804 755 807 728 c 128,-1,67
 810 701 810 701 810.5 666.5 c 128,-1,68
 811 632 811 632 812 615 c 0,69,70
 814 575 814 575 822 498 c 1,71,72
 804 488 804 488 801.5 450.5 c 128,-1,73
 799 413 799 413 796 405 c 1,74,75
 796 384 796 384 776.5 356.5 c 128,-1,76
 757 329 757 329 754 315 c 1,77,78
 728 246 728 246 694 196 c 1,79,80
 693 178 693 178 684 165.5 c 128,-1,81
 675 153 675 153 658 139 c 128,-1,82
 641 125 641 125 635 118 c 1,83,84
 636 103 636 103 627 94 c 128,-1,85
 618 85 618 85 605.5 81.5 c 128,-1,86
 593 78 593 78 582 68.5 c 128,-1,87
 571 59 571 59 570 43 c 1,88,89
 561 34 561 34 531 25 c 128,-1,90
 501 16 501 16 492 -3 c 1,91,92
 436 11 436 11 416 -36 c 1,93,94
 405 -38 405 -38 401 -37.5 c 128,-1,95
 397 -37 397 -37 386.5 -32 c 128,-1,96
 376 -27 376 -27 373 -26 c 0,0,1
543 461 m 1,97,98
 587 457 587 457 628.5 473.5 c 128,-1,99
 670 490 670 490 694 526 c 1,100,101
 699 537 699 537 711.5 547.5 c 128,-1,102
 724 558 724 558 734 564.5 c 128,-1,103
 744 571 744 571 750.5 583.5 c 128,-1,104
 757 596 757 596 754 613 c 1,105,106
 758 662 758 662 727 720 c 1,107,108
 733 740 733 740 725 756.5 c 128,-1,109
 717 773 717 773 698 792 c 128,-1,110
 679 811 679 811 673 820 c 1,111,112
 668 835 668 835 651 841 c 128,-1,113
 634 847 634 847 614 851.5 c 128,-1,114
 594 856 594 856 585 869 c 1,115,116
 548 885 548 885 506.5 883 c 128,-1,117
 465 881 465 881 431 860 c 1,118,119
 403 851 403 851 384.5 831.5 c 128,-1,120
 366 812 366 812 346 780 c 1,121,122
 296 707 296 707 318 599 c 1,123,124
 339 529 339 529 443 470 c 1,125,126
 464 455 464 455 491.5 454.5 c 128,-1,127
 519 454 519 454 543 461 c 1,97,98
EndSplineSet
Validated: 2097185
EndChar

StartChar: glyph
Encoding: 58 58 26
Width: 734
GlyphClass: 2
Flags: W
LayerCount: 2
Fore
SplineSet
505 765 m 0,0,1
 488 764 488 764 475 757 c 0,2,3
 451 745 451 745 421 713 c 1,4,5
 406 695 406 695 412 685 c 1,6,7
 423 670 423 670 429 645 c 1,8,9
 432 613 432 613 462 597 c 0,10,11
 485 585 485 585 507 584 c 256,12,13
 529 583 529 583 549 593 c 128,-1,14
 569 603 569 603 582 621 c 0,15,16
 604 652 604 652 608 710 c 0,17,18
 610 728 610 728 596 735 c 0,19,20
 573 747 573 747 539 759 c 0,21,22
 521 765 521 765 505 765 c 0,0,1
498 355 m 1,23,24
 479 353 479 353 456 328 c 1,25,26
 429 294 429 294 428 264 c 1,27,28
 429 230 429 230 447 202 c 0,29,30
 450 196 450 196 454 192 c 1,31,32
 465 175 465 175 476 184 c 1,33,34
 493 196 493 196 499 189 c 1,35,36
 508 172 508 172 533 174 c 0,37,38
 558 175 558 175 564 189 c 1,39,40
 564 209 564 209 577 226 c 1,41,42
 596 248 596 248 602 272 c 0,43,44
 608 297 608 297 598 308 c 1,45,46
 580 323 580 323 540 342 c 1,47,48
 510 355 510 355 498 355 c 1,23,24
EndSplineSet
Validated: 2097193
EndChar

StartChar: glyph
Encoding: 59 59 27
Width: 734
GlyphClass: 2
Flags: W
LayerCount: 2
Fore
SplineSet
538 750 m 1,0,1
 522 749 522 749 508 742 c 0,2,3
 485 730 485 730 455 698 c 1,4,5
 440 680 440 680 446 670 c 1,6,7
 457 655 457 655 463 630 c 1,8,9
 466 598 466 598 496 582 c 0,10,11
 519 570 519 570 541 569 c 0,12,13
 562 568 562 568 582.5 578 c 128,-1,14
 603 588 603 588 616 606 c 0,15,16
 638 637 638 637 642 695 c 0,17,18
 644 713 644 713 629 720 c 1,19,20
 607 732 607 732 573 744 c 0,21,22
 555 750 555 750 538 750 c 1,0,1
556 352 m 1,23,24
 555 353 555 353 554 352 c 1,25,26
 548 352 548 352 542 349 c 0,27,28
 535 346 535 346 528 340 c 1,29,30
 511 336 511 336 490 313 c 0,31,32
 484 305 484 305 479 298 c 1,33,34
 479 298 479 298 477 297 c 0,35,36
 470 291 470 291 469 277 c 1,37,38
 463 263 463 263 462 249 c 1,39,40
 462 249 462 249 462 248 c 0,41,42
 461 246 461 246 460 245 c 0,43,44
 451 244 451 244 451 238 c 128,-1,45
 451 232 451 232 457 226 c 128,-1,46
 463 220 463 220 466 215 c 0,47,48
 467 214 467 214 468 213 c 0,49,50
 472 201 472 201 478 191 c 1,51,52
 482 181 482 181 488 177 c 1,53,54
 499 160 499 160 510 169 c 0,55,56
 514 172 514 172 516 173 c 1,57,58
 522 173 522 173 533 174 c 1,59,60
 542 157 542 157 567 159 c 0,61,62
 569 159 569 159 570 159 c 1,63,64
 570 157 570 157 570 155 c 0,65,66
 569 120 569 120 584 93 c 1,67,68
 581 91 581 91 582 83 c 128,-1,69
 583 75 583 75 580 72 c 1,70,71
 568 48 568 48 535 12 c 1,72,73
 505 -19 505 -19 489 -28 c 0,74,75
 488 -28 488 -28 482 -29 c 128,-1,76
 476 -30 476 -30 473.5 -32 c 128,-1,77
 471 -34 471 -34 470 -38 c 0,78,79
 467 -50 467 -50 475 -83 c 0,80,81
 476 -88 476 -88 479 -95 c 1,82,83
 480 -102 480 -102 486 -105.5 c 128,-1,84
 492 -109 492 -109 499 -104 c 0,85,86
 505 -100 505 -100 517.5 -87 c 128,-1,87
 530 -74 530 -74 539 -70 c 1,88,89
 543 -67 543 -67 564 -61 c 1,90,91
 578 -54 578 -54 593 -27 c 0,92,93
 610 6 610 6 618 40 c 0,94,95
 621 52 621 52 616 63 c 1,96,97
 624 61 624 61 631.5 66 c 128,-1,98
 639 71 639 71 642 79 c 0,99,100
 649 103 649 103 663 109 c 1,101,102
 668 119 668 119 664.5 147.5 c 128,-1,103
 661 176 661 176 663 187 c 1,104,105
 662 193 662 193 668 195.5 c 128,-1,106
 674 198 674 198 677.5 199 c 128,-1,107
 681 200 681 200 676 208 c 1,108,109
 651 236 651 236 638 270 c 1,110,111
 640 285 640 285 632 293 c 0,112,113
 616 307 616 307 588 320 c 1,114,115
 587 324 587 324 584 333 c 0,116,117
 577 352 577 352 556 352 c 1,23,24
EndSplineSet
Validated: 2097193
EndChar

StartChar: less
Encoding: 60 60 28
Width: 734
GlyphClass: 2
Flags: W
LayerCount: 2
Fore
SplineSet
585 56 m 1,0,1
 531 84 531 84 528 84 c 0,2,3
 477 81 477 81 450 117 c 0,4,5
 445 124 445 124 399 171.5 c 128,-1,6
 353 219 353 219 339 234 c 1,7,8
 324 256 324 256 303 295.5 c 128,-1,9
 282 335 282 335 267 357 c 0,10,11
 262 365 262 365 236 399 c 128,-1,12
 210 433 210 433 198 444 c 1,13,14
 159 468 159 468 205.5 482 c 128,-1,15
 252 496 252 496 254 509 c 128,-1,16
 256 522 256 522 290.5 549.5 c 128,-1,17
 325 577 325 577 327 585 c 0,18,19
 334 612 334 612 381 640 c 128,-1,20
 428 668 428 668 444 693 c 1,21,22
 456 701 456 701 451 707.5 c 128,-1,23
 446 714 446 714 459 723 c 1,24,25
 473 731 473 731 473 740 c 128,-1,26
 473 749 473 749 489 756 c 1,27,28
 505 757 505 757 568 803.5 c 128,-1,29
 631 850 631 850 651 847 c 1,30,31
 667 831 667 831 666 815 c 128,-1,32
 665 799 665 799 642 787 c 1,33,34
 572 732 572 732 549 726 c 0,35,36
 496 711 496 711 495 699 c 1,37,38
 515 686 515 686 505 668 c 0,39,40
 486 631 486 631 474 632 c 0,41,42
 472 632 472 632 450 627 c 0,43,44
 383 611 383 611 363 570 c 0,45,46
 328 498 328 498 243 459 c 1,47,48
 271 455 271 455 324 357 c 0,49,50
 354 301 354 301 429 285 c 1,51,52
 439 293 439 293 443.5 261.5 c 128,-1,53
 448 230 448 230 453 222 c 128,-1,54
 458 214 458 214 440 194.5 c 128,-1,55
 422 175 422 175 482.5 164 c 128,-1,56
 543 153 543 153 549 150 c 1,57,58
 560 136 560 136 607 130 c 128,-1,59
 654 124 654 124 665 112 c 1,60,61
 675 98 675 98 676 83 c 1,62,63
 679 62 679 62 664 59 c 0,64,65
 661 59 661 59 626 58 c 0,66,67
 591 58 591 58 585 56 c 1,0,1
EndSplineSet
Validated: 33
EndChar

StartChar: glyph
Encoding: 61 61 29
Width: 734
GlyphClass: 2
Flags: W
LayerCount: 2
Fore
SplineSet
547 650 m 0,0,1
 526 650 526 650 507 643 c 1,2,3
 479 637 479 637 445 635.5 c 128,-1,4
 411 634 411 634 383.5 635 c 128,-1,5
 356 636 356 636 322 634 c 0,6,7
 308 634 308 634 289 631 c 128,-1,8
 270 628 270 628 261 617 c 0,9,10
 250 603 250 603 256.5 586.5 c 128,-1,11
 263 570 263 570 279 563 c 0,12,13
 285 561 285 561 290 558 c 0,14,15
 320 543 320 543 343 559 c 1,16,17
 393 566 393 566 504 572 c 1,18,19
 507 574 507 574 559.5 572 c 128,-1,20
 612 570 612 570 615 570 c 0,21,22
 753 570 753 570 782 572 c 1,23,24
 796 577 796 577 797.5 594.5 c 128,-1,25
 799 612 799 612 789 622 c 0,26,27
 768 644 768 644 708 643 c 1,28,29
 625 637 625 637 593 643 c 1,30,31
 570 650 570 650 547 650 c 0,0,1
481 386 m 0,32,33
 460 386 460 386 422 379 c 0,34,35
 398 375 398 375 370 360 c 1,36,37
 368 365 368 365 366 370 c 128,-1,38
 364 375 364 375 359.5 378 c 128,-1,39
 355 381 355 381 347 379 c 0,40,41
 306 373 306 373 272 359 c 1,42,43
 257 355 257 355 253.5 336 c 128,-1,44
 250 317 250 317 266 313 c 0,45,46
 270 313 270 313 283.5 314.5 c 128,-1,47
 297 316 297 316 303 316.5 c 128,-1,48
 309 317 309 317 319.5 316 c 128,-1,49
 330 315 330 315 338 312 c 2,50,-1
 341 311 l 1,51,-1
 343 310 l 1,52,53
 354 306 354 306 374 311 c 128,-1,54
 394 316 394 316 402 316 c 0,55,56
 520 322 520 322 653 314 c 1,57,58
 663 315 663 315 684 309.5 c 128,-1,59
 705 304 705 304 716 307 c 1,60,61
 743 328 743 328 771 321 c 0,62,63
 787 317 787 317 800 325.5 c 128,-1,64
 813 334 813 334 807 351 c 1,65,66
 808 366 808 366 798 375.5 c 128,-1,67
 788 385 788 385 773 385 c 0,68,69
 733 387 733 387 659 382.5 c 128,-1,70
 585 378 585 378 564 378 c 0,71,72
 560 378 560 378 544.5 377.5 c 128,-1,73
 529 377 529 377 519 378.5 c 128,-1,74
 509 380 509 380 500 385 c 1,75,76
 491 386 491 386 481 386 c 0,32,33
EndSplineSet
Validated: 2097193
EndChar

StartChar: greater
Encoding: 62 62 30
Width: 734
GlyphClass: 2
Flags: W
LayerCount: 2
Fore
SplineSet
493 65 m 1,0,1
 485 74 485 74 484.5 82 c 128,-1,2
 484 90 484 90 488.5 98 c 128,-1,3
 493 106 493 106 498 112 c 128,-1,4
 503 118 503 118 512 116.5 c 128,-1,5
 521 115 521 115 525 120 c 1,6,7
 538 146 538 146 552 171 c 1,8,9
 552 171 552 171 597 179 c 1,10,11
 597 179 597 179 645 183 c 1,12,13
 637 205 637 205 634 205 c 128,-1,14
 631 205 631 205 633 225 c 1,15,16
 648 281 648 281 649 283 c 1,17,18
 662 290 662 290 662 290 c 1,19,20
 710 318 710 318 713 341.5 c 128,-1,21
 716 365 716 365 755 382 c 0,22,23
 805 405 805 405 787 411 c 0,24,25
 784 412 784 412 678 525 c 0,26,27
 650 555 650 555 650 556 c 0,28,29
 655 578 655 578 658 595 c 0,30,31
 662 625 662 625 644 638 c 1,32,33
 638 639 638 639 636.5 636 c 128,-1,34
 635 633 635 633 644 638 c 1,35,36
 544 676 544 676 580 672 c 0,37,38
 593 670 593 670 607.5 680 c 128,-1,39
 622 690 622 690 579.5 709.5 c 128,-1,40
 537 729 537 729 535 738 c 1,41,42
 534 756 534 756 542 766 c 128,-1,43
 550 776 550 776 553 787 c 128,-1,44
 556 798 556 798 525 804 c 128,-1,45
 494 810 494 810 488 825 c 1,46,47
 485 841 485 841 494.5 850 c 128,-1,48
 504 859 504 859 528 860 c 128,-1,49
 552 861 552 861 558 846 c 1,50,51
 577 841 577 841 582 832 c 1,52,53
 591 811 591 811 602.5 800 c 128,-1,54
 614 789 614 789 619 770 c 1,55,56
 651 770 651 770 646 742 c 0,57,58
 642 721 642 721 644 710 c 1,59,60
 663 702 663 702 678.5 685 c 128,-1,61
 694 668 694 668 690 646 c 1,62,63
 683 630 683 630 728 610 c 0,64,65
 795 579 795 579 794 570 c 0,66,67
 791 539 791 539 806 521 c 0,68,69
 810 516 810 516 850 477 c 0,70,71
 873 455 873 455 855 435 c 1,72,73
 838 418 838 418 820 397 c 0,74,75
 814 390 814 390 806 356 c 0,76,77
 804 346 804 346 810.5 330.5 c 128,-1,78
 817 315 817 315 774.5 272 c 128,-1,79
 732 229 732 229 734 213 c 1,80,81
 705 201 705 201 705 186 c 0,82,83
 704 163 704 163 609 123 c 1,84,85
 609 96 609 96 633 87 c 1,86,87
 620 69 620 69 611 81 c 0,88,89
 599 95 599 95 597 104 c 1,90,91
 599 96 599 96 590 67 c 1,92,93
 583 59 583 59 556.5 57.5 c 128,-1,94
 530 56 530 56 523 51 c 128,-1,95
 516 46 516 46 508 49 c 128,-1,96
 500 52 500 52 493 65 c 1,0,1
EndSplineSet
Validated: 37
EndChar

StartChar: glyph
Encoding: 63 63 31
Width: 734
GlyphClass: 2
Flags: W
LayerCount: 2
Fore
SplineSet
561 967 m 1,0,1
 550 965 550 965 531 961 c 128,-1,2
 512 957 512 957 496 955 c 128,-1,3
 480 953 480 953 466 953 c 0,4,5
 429 953 429 953 396.5 932.5 c 128,-1,6
 364 912 364 912 343 878 c 0,7,8
 306 818 306 818 300 785 c 1,9,10
 300 775 300 775 303 764.5 c 128,-1,11
 306 754 306 754 311 745 c 128,-1,12
 316 736 316 736 322.5 726.5 c 128,-1,13
 329 717 329 717 335 709 c 0,14,15
 348 692 348 692 370 689 c 128,-1,16
 392 686 392 686 405 704 c 0,17,18
 416 719 416 719 422.5 737 c 128,-1,19
 429 755 429 755 431 773 c 128,-1,20
 433 791 433 791 434 811 c 128,-1,21
 435 831 435 831 434 848 c 1,22,23
 430 868 430 868 444.5 874.5 c 128,-1,24
 459 881 459 881 481 880 c 0,25,26
 489 880 489 880 511 891.5 c 128,-1,27
 533 903 533 903 549 898 c 1,28,29
 569 895 569 895 579.5 893 c 128,-1,30
 590 891 590 891 605 883 c 128,-1,31
 620 875 620 875 627 862 c 1,32,33
 638 829 638 829 671 832 c 1,34,35
 684 827 684 827 692 813 c 128,-1,36
 700 799 700 799 702 788.5 c 128,-1,37
 704 778 704 778 705 760 c 1,38,39
 707 744 707 744 706.5 721 c 128,-1,40
 706 698 706 698 693 687 c 1,41,42
 675 686 675 686 653.5 664 c 128,-1,43
 632 642 632 642 618 639 c 1,44,45
 570 607 570 607 534 559 c 0,46,47
 522 544 522 544 515.5 526 c 128,-1,48
 509 508 509 508 510.5 488 c 128,-1,49
 512 468 512 468 525 454 c 1,50,51
 540 436 540 436 550 442 c 1,52,53
 560 450 560 450 566 461.5 c 128,-1,54
 572 473 572 473 578.5 493 c 128,-1,55
 585 513 585 513 587 518 c 0,56,57
 592 531 592 531 595.5 544 c 128,-1,58
 599 557 599 557 608.5 568 c 128,-1,59
 618 579 618 579 632 582 c 1,60,61
 645 591 645 591 658.5 588.5 c 128,-1,62
 672 586 672 586 685.5 589 c 128,-1,63
 699 592 699 592 704 606 c 1,64,65
 707 621 707 621 721.5 633 c 128,-1,66
 736 645 736 645 749 652 c 1,67,68
 758 666 758 666 764 684.5 c 128,-1,69
 770 703 770 703 773 719.5 c 128,-1,70
 776 736 776 736 780 755 c 0,71,72
 785 776 785 776 769.5 812.5 c 128,-1,73
 754 849 754 849 753 854 c 0,74,75
 752 867 752 867 744 876.5 c 128,-1,76
 736 886 736 886 720.5 896.5 c 128,-1,77
 705 907 705 907 701 911 c 0,78,79
 694 916 694 916 681.5 929.5 c 128,-1,80
 669 943 669 943 657.5 950 c 128,-1,81
 646 957 646 957 632 956 c 1,82,83
 625 951 625 951 613.5 952.5 c 128,-1,84
 602 954 602 954 596 955.5 c 128,-1,85
 590 957 590 957 578.5 961 c 128,-1,86
 567 965 567 965 561 967 c 1,0,1
581 356 m 128,-1,88
 577 355 577 355 572 347.5 c 128,-1,89
 567 340 567 340 564 339 c 0,90,91
 559 336 559 336 535 334 c 0,92,93
 502 331 502 331 493 311 c 0,94,95
 492 308 492 308 491 301.5 c 128,-1,96
 490 295 490 295 488.5 290.5 c 128,-1,97
 487 286 487 286 483 282 c 0,98,99
 479 277 479 277 468.5 272.5 c 128,-1,100
 458 268 458 268 455 266 c 0,101,102
 447 258 447 258 452 235 c 0,103,104
 454 225 454 225 458 213 c 128,-1,105
 462 201 462 201 468 193 c 1,106,107
 475 187 475 187 501 191 c 1,108,109
 523 193 523 193 531 186 c 1,110,111
 538 177 538 177 557 176 c 0,112,113
 562 176 562 176 569.5 177 c 128,-1,114
 577 178 577 178 580 183 c 1,115,116
 585 196 585 196 608 209 c 0,117,118
 634 223 634 223 637 245 c 0,119,120
 640 268 640 268 620 310 c 1,121,122
 603 342 603 342 589 353 c 0,123,87
 585 357 585 357 581 356 c 128,-1,88
571 299 m 0,124,125
 577 299 577 299 579.5 294 c 128,-1,126
 582 289 582 289 579 283 c 1,127,128
 578 275 578 275 574 269 c 0,129,130
 570 262 570 262 562.5 258.5 c 128,-1,131
 555 255 555 255 549 261 c 1,132,133
 545 283 545 283 564 296 c 0,134,135
 567 299 567 299 571 299 c 0,124,125
EndSplineSet
Validated: 2097193
EndChar

StartChar: glyph
Encoding: 64 64 32
Width: 734
GlyphClass: 2
Flags: W
LayerCount: 2
Fore
SplineSet
520 995 m 0,0,1
 519 993 519 993 511 988.5 c 128,-1,2
 503 984 503 984 503 978 c 0,3,4
 503 973 503 973 505 969.5 c 128,-1,5
 507 966 507 966 511.5 962.5 c 128,-1,6
 516 959 516 959 517 957 c 0,7,8
 518 957 518 957 521 948.5 c 128,-1,9
 524 940 524 940 528 938 c 1,10,11
 545 934 545 934 595 935.5 c 128,-1,12
 645 937 645 937 654 935 c 1,13,14
 657 933 657 933 662.5 934 c 128,-1,15
 668 935 668 935 666 940 c 0,16,17
 665 941 665 941 665 941 c 257,18,19
 665 941 665 941 666 941 c 0,20,21
 675 934 675 934 684 920 c 128,-1,22
 693 906 693 906 703 896.5 c 128,-1,23
 713 887 713 887 728 886 c 1,24,25
 743 878 743 878 753 862.5 c 128,-1,26
 763 847 763 847 764 830 c 1,27,28
 769 822 769 822 774.5 793.5 c 128,-1,29
 780 765 780 765 795 755 c 0,30,31
 803 750 803 750 811 742.5 c 128,-1,32
 819 735 819 735 825.5 725.5 c 128,-1,33
 832 716 832 716 830.5 707 c 128,-1,34
 829 698 829 698 817 692 c 0,35,36
 798 684 798 684 790 664.5 c 128,-1,37
 782 645 782 645 783 626 c 128,-1,38
 784 607 784 607 783 584.5 c 128,-1,39
 782 562 782 562 775 551 c 1,40,41
 764 540 764 540 751.5 513 c 128,-1,42
 739 486 739 486 729 476 c 1,43,44
 724 462 724 462 713 465 c 128,-1,45
 702 468 702 468 699 482 c 1,46,47
 685 480 685 480 670 472 c 0,48,49
 661 467 661 467 658 471 c 128,-1,50
 655 475 655 475 647 503 c 0,51,52
 642 519 642 519 638 529 c 1,53,54
 651 547 651 547 663.5 568.5 c 128,-1,55
 676 590 676 590 688 625.5 c 128,-1,56
 700 661 700 661 696 688 c 1,57,58
 696 699 696 699 698.5 701 c 128,-1,59
 701 703 701 703 709.5 699 c 128,-1,60
 718 695 718 695 721 695 c 0,61,62
 732 696 732 696 733.5 702 c 128,-1,63
 735 708 735 708 730.5 715.5 c 128,-1,64
 726 723 726 723 725 731.5 c 128,-1,65
 724 740 724 740 730 747 c 1,66,67
 732 764 732 764 728 786.5 c 128,-1,68
 724 809 724 809 713 822.5 c 128,-1,69
 702 836 702 836 688 824 c 1,70,71
 671 786 671 786 663 778 c 128,-1,72
 655 770 655 770 653 779 c 128,-1,73
 651 788 651 788 642.5 800 c 128,-1,74
 634 812 634 812 619 811 c 1,75,76
 616 805 616 805 611.5 802.5 c 128,-1,77
 607 800 607 800 601.5 802 c 128,-1,78
 596 804 596 804 592.5 806 c 128,-1,79
 589 808 589 808 582 813 c 128,-1,80
 575 818 575 818 573 819 c 0,81,82
 561 831 561 831 536.5 820.5 c 128,-1,83
 512 810 512 810 500 818 c 1,84,85
 493 830 493 830 486 826.5 c 128,-1,86
 479 823 479 823 474.5 813.5 c 128,-1,87
 470 804 470 804 469 795 c 1,88,89
 472 773 472 773 459.5 769 c 128,-1,90
 447 765 447 765 431 776 c 1,91,92
 422 788 422 788 415 778 c 128,-1,93
 408 768 408 768 413 755 c 1,94,95
 415 736 415 736 399.5 707.5 c 128,-1,96
 384 679 384 679 382 672 c 1,97,98
 345 656 345 656 336 636 c 1,99,100
 339 628 339 628 341 618.5 c 128,-1,101
 343 609 343 609 344.5 600 c 128,-1,102
 346 591 346 591 345 581 c 128,-1,103
 344 571 344 571 341 563 c 1,104,105
 336 539 336 539 335 509.5 c 128,-1,106
 334 480 334 480 346 447.5 c 128,-1,107
 358 415 358 415 380 401 c 1,108,109
 387 384 387 384 393.5 374 c 128,-1,110
 400 364 400 364 413 357 c 128,-1,111
 426 350 426 350 442 355 c 1,112,113
 450 373 450 373 471.5 370 c 128,-1,114
 493 367 493 367 498 347 c 1,115,116
 502 348 502 348 507.5 357.5 c 128,-1,117
 513 367 513 367 519 368 c 1,118,119
 520 378 520 378 525 379 c 128,-1,120
 530 380 530 380 536.5 375.5 c 128,-1,121
 543 371 543 371 551 369.5 c 128,-1,122
 559 368 559 368 565 373 c 1,123,124
 575 379 575 379 585 385.5 c 128,-1,125
 595 392 595 392 597.5 394.5 c 128,-1,126
 600 397 600 397 604 398 c 128,-1,127
 608 399 608 399 608 397.5 c 128,-1,128
 608 396 608 396 612 391.5 c 128,-1,129
 616 387 616 387 619 381 c 128,-1,130
 622 375 622 375 630.5 364.5 c 128,-1,131
 639 354 639 354 650 343 c 1,132,133
 669 352 669 352 724 356 c 1,134,135
 736 361 736 361 751 383.5 c 128,-1,136
 766 406 766 406 782 408 c 1,137,138
 788 412 788 412 806 417 c 128,-1,139
 824 422 824 422 830 431 c 1,140,141
 829 448 829 448 844.5 470 c 128,-1,142
 860 492 860 492 862 501 c 1,143,144
 874 534 874 534 879.5 551 c 128,-1,145
 885 568 885 568 892 598.5 c 128,-1,146
 899 629 899 629 898.5 648.5 c 128,-1,147
 898 668 898 668 892 691.5 c 128,-1,148
 886 715 886 715 871 732 c 0,149,150
 858 748 858 748 855.5 782 c 128,-1,151
 853 816 853 816 849 827 c 1,152,153
 844 834 844 834 833 847 c 128,-1,154
 822 860 822 860 814.5 871.5 c 128,-1,155
 807 883 807 883 804 895 c 1,156,157
 788 935 788 935 762 940 c 1,158,159
 755 945 755 945 737.5 947.5 c 128,-1,160
 720 950 720 950 708.5 955.5 c 128,-1,161
 697 961 697 961 695 976 c 1,162,163
 691 990 691 990 680 986 c 1,164,165
 679 991 679 991 672 990 c 1,166,167
 659 990 659 990 654 977 c 1,168,169
 651 978 651 978 636.5 983 c 128,-1,170
 622 988 622 988 605 992.5 c 128,-1,171
 588 997 588 997 570 1001 c 128,-1,172
 552 1005 552 1005 538 1004 c 128,-1,173
 524 1003 524 1003 520 995 c 0,0,1
456 970 m 0,174,175
 449 970 449 970 430.5 967.5 c 128,-1,176
 412 965 412 965 402 965 c 1,177,178
 391 969 391 969 383 956 c 0,179,180
 380 951 380 951 378 949 c 0,181,182
 377 948 377 948 371 938.5 c 128,-1,183
 365 929 365 929 359.5 925 c 128,-1,184
 354 921 354 921 346 922 c 1,185,186
 326 915 326 915 275.5 843 c 128,-1,187
 225 771 225 771 223 749 c 1,188,189
 217 748 217 748 209.5 740.5 c 128,-1,190
 202 733 202 733 195 734 c 1,191,192
 186 729 186 729 183.5 712.5 c 128,-1,193
 181 696 181 696 177 691 c 1,194,195
 168 684 168 684 169 665 c 1,196,197
 168 667 168 667 167 671 c 128,-1,198
 166 675 166 675 165 677 c 1,199,200
 152 681 152 681 137 664 c 128,-1,201
 122 647 122 647 129 630 c 1,202,203
 146 581 146 581 139 524 c 1,204,205
 131 502 131 502 152 446.5 c 128,-1,206
 173 391 173 391 204 341.5 c 128,-1,207
 235 292 235 292 254 284 c 1,208,209
 265 263 265 263 283 239.5 c 128,-1,210
 301 216 301 216 323 207 c 1,211,212
 363 215 363 215 403 171 c 1,213,214
 432 171 432 171 482 160 c 128,-1,215
 532 149 532 149 571 139.5 c 128,-1,216
 610 130 610 130 652 135.5 c 128,-1,217
 694 141 694 141 720 170 c 1,218,219
 730 175 730 175 763.5 189 c 128,-1,220
 797 203 797 203 819 214.5 c 128,-1,221
 841 226 841 226 868 252 c 128,-1,222
 895 278 895 278 909 312 c 1,223,224
 893 345 893 345 867 357 c 128,-1,225
 841 369 841 369 815 363 c 128,-1,226
 789 357 789 357 765.5 345 c 128,-1,227
 742 333 742 333 727.5 320 c 128,-1,228
 713 307 713 307 714 303 c 0,229,230
 715 289 715 289 705.5 282.5 c 128,-1,231
 696 276 696 276 684.5 276 c 128,-1,232
 673 276 673 276 663 271 c 128,-1,233
 653 266 653 266 653 254 c 1,234,235
 638 228 638 228 605.5 222.5 c 128,-1,236
 573 217 573 217 536.5 225.5 c 128,-1,237
 500 234 500 234 461 243.5 c 128,-1,238
 422 253 422 253 394.5 259 c 128,-1,239
 367 265 367 265 352 252 c 1,240,241
 349 254 349 254 336.5 271.5 c 128,-1,242
 324 289 324 289 310 302 c 128,-1,243
 296 315 296 315 281 318 c 1,244,245
 277 328 277 328 265 350.5 c 128,-1,246
 253 373 253 373 240.5 395.5 c 128,-1,247
 228 418 228 418 215.5 446 c 128,-1,248
 203 474 203 474 195.5 498.5 c 128,-1,249
 188 523 188 523 189.5 546 c 128,-1,250
 191 569 191 569 203 584 c 1,251,252
 218 589 218 589 226 589 c 0,253,254
 227 589 227 589 227 590 c 0,255,256
 222 595 222 595 220 608 c 1,257,258
 222 607 222 607 222 612 c 128,-1,259
 222 617 222 617 222 626 c 128,-1,260
 222 635 222 635 222.5 645 c 128,-1,261
 223 655 223 655 225.5 664.5 c 128,-1,262
 228 674 228 674 233 679 c 1,263,264
 237 692 237 692 237 710.5 c 128,-1,265
 237 729 237 729 237 742 c 0,266,267
 237 746 237 746 245 745 c 0,268,269
 250 745 250 745 252 745 c 0,270,271
 273 753 273 753 307.5 793 c 128,-1,272
 342 833 342 833 344 847 c 1,273,274
 342 861 342 861 356 866.5 c 128,-1,275
 370 872 370 872 382 867 c 1,276,277
 389 855 389 855 403 859.5 c 128,-1,278
 417 864 417 864 414 878 c 1,279,280
 421 881 421 881 425 893.5 c 128,-1,281
 429 906 429 906 436 909 c 1,282,283
 441 909 441 909 453 909.5 c 128,-1,284
 465 910 465 910 473 912.5 c 128,-1,285
 481 915 481 915 486 922 c 0,286,287
 494 932 494 932 491 949 c 128,-1,288
 488 966 488 966 474 969 c 0,289,290
 466 970 466 970 456 970 c 0,174,175
537 759 m 1,291,292
 581 749 581 749 598 716 c 128,-1,293
 615 683 615 683 608 643 c 128,-1,294
 601 603 601 603 584.5 565.5 c 128,-1,295
 568 528 568 528 547 505 c 1,296,297
 534 507 534 507 528 500.5 c 128,-1,298
 522 494 522 494 518.5 479 c 128,-1,299
 515 464 515 464 512 459 c 1,300,-1
 508 457 l 1,301,-1
 504 455 l 1,302,303
 456 456 456 456 437 468 c 128,-1,304
 418 480 418 480 415.5 511 c 128,-1,305
 413 542 413 542 416 596 c 1,306,307
 428 589 428 589 442.5 589.5 c 128,-1,308
 457 590 457 590 448 611 c 1,309,310
 440 620 440 620 439.5 630.5 c 128,-1,311
 439 641 439 641 442.5 648 c 128,-1,312
 446 655 446 655 451 666.5 c 128,-1,313
 456 678 456 678 458 685 c 0,314,315
 461 697 461 697 471 704 c 128,-1,316
 481 711 481 711 491.5 714 c 128,-1,317
 502 717 502 717 511.5 723.5 c 128,-1,318
 521 730 521 730 524 742 c 0,319,320
 528 757 528 757 537 759 c 1,291,292
EndSplineSet
Validated: 2097193
EndChar

StartChar: glyph
Encoding: 65 65 33
Width: 734
GlyphClass: 2
Flags: W
LayerCount: 2
Fore
SplineSet
261 168 m 1,0,1
 248 166 248 166 237.5 177.5 c 128,-1,2
 227 189 227 189 223.5 203 c 128,-1,3
 220 217 220 217 225.5 227.5 c 128,-1,4
 231 238 231 238 245 233 c 1,5,6
 289 232 289 232 309 252.5 c 128,-1,7
 329 273 329 273 351 343 c 1,8,9
 364 366 364 366 370 414.5 c 128,-1,10
 376 463 376 463 378 473 c 0,11,12
 387 518 387 518 412 599.5 c 128,-1,13
 437 681 437 681 445 715 c 0,14,15
 451 738 451 738 456 758 c 128,-1,16
 461 778 461 778 464 802 c 128,-1,17
 467 826 467 826 465 847 c 1,18,19
 475 862 475 862 483 892.5 c 128,-1,20
 491 923 491 923 495 934 c 0,21,22
 496 935 496 935 500.5 942.5 c 128,-1,23
 505 950 505 950 509 955 c 128,-1,24
 513 960 513 960 518 966.5 c 128,-1,25
 523 973 523 973 526.5 975.5 c 128,-1,26
 530 978 530 978 533.5 976 c 128,-1,27
 537 974 537 974 539 967 c 1,28,29
 555 983 555 983 570.5 979 c 128,-1,30
 586 975 586 975 595 954 c 1,31,32
 610 945 610 945 617.5 940 c 128,-1,33
 625 935 625 935 636.5 925.5 c 128,-1,34
 648 916 648 916 654 905 c 128,-1,35
 660 894 660 894 662 880 c 1,36,37
 671 846 671 846 682 780.5 c 128,-1,38
 693 715 693 715 700 686 c 0,39,40
 703 675 703 675 706 654 c 128,-1,41
 709 633 709 633 712.5 615.5 c 128,-1,42
 716 598 716 598 723 584 c 1,43,44
 729 556 729 556 737.5 490.5 c 128,-1,45
 746 425 746 425 754 390 c 0,46,47
 758 375 758 375 759.5 312 c 128,-1,48
 761 249 761 249 773 227 c 1,49,50
 794 233 794 233 816 215 c 128,-1,51
 838 197 838 197 833 179 c 1,52,53
 822 167 822 167 805 167 c 128,-1,54
 788 167 788 167 767 171 c 128,-1,55
 746 175 746 175 735 172 c 1,56,57
 727 172 727 172 709.5 169.5 c 128,-1,58
 692 167 692 167 681 166.5 c 128,-1,59
 670 166 670 166 659.5 172.5 c 128,-1,60
 649 179 649 179 647 194 c 1,61,62
 643 213 643 213 652 228.5 c 128,-1,63
 661 244 661 244 686 231 c 1,64,65
 706 233 706 233 714.5 251 c 128,-1,66
 723 269 723 269 720 292 c 128,-1,67
 717 315 717 315 708 335 c 1,68,69
 698 366 698 366 673.5 378 c 128,-1,70
 649 390 649 390 619 379 c 1,71,72
 588 376 588 376 564 377 c 128,-1,73
 540 378 540 378 509 377 c 128,-1,74
 478 376 478 376 454 370 c 1,75,76
 441 365 441 365 438.5 350.5 c 128,-1,77
 436 336 436 336 432.5 321 c 128,-1,78
 429 306 429 306 414 300 c 1,79,80
 398 287 398 287 395 268 c 128,-1,81
 392 249 392 249 405 236 c 128,-1,82
 418 223 418 223 440 228 c 1,83,84
 457 228 457 228 465.5 210 c 128,-1,85
 474 192 474 192 468 175 c 128,-1,86
 462 158 462 158 443 160 c 1,87,88
 426 160 426 160 394 163.5 c 128,-1,89
 362 167 362 167 345 167.5 c 128,-1,90
 328 168 328 168 296 164 c 1,91,92
 278 164 278 164 261 168 c 1,0,1
569 468 m 1,93,94
 580 462 580 462 593 459.5 c 128,-1,95
 606 457 606 457 619 457.5 c 128,-1,96
 632 458 632 458 641.5 466 c 128,-1,97
 651 474 651 474 655 488 c 1,98,99
 662 529 662 529 653.5 586 c 128,-1,100
 645 643 645 643 635 684 c 0,101,102
 633 695 633 695 625.5 730 c 128,-1,103
 618 765 618 765 611.5 788 c 128,-1,104
 605 811 605 811 594 832 c 1,105,106
 584 836 584 836 579 829 c 128,-1,107
 574 822 574 822 573.5 810.5 c 128,-1,108
 573 799 573 799 570 786 c 128,-1,109
 567 773 567 773 560 769 c 1,110,111
 545 752 545 752 536 710 c 128,-1,112
 527 668 527 668 515 651 c 1,113,114
 480 563 480 563 497 488 c 1,115,116
 502 471 502 471 514 464 c 128,-1,117
 526 457 526 457 537 473 c 1,118,119
 547 475 547 475 569 468 c 1,93,94
EndSplineSet
Validated: 2097185
EndChar

StartChar: glyph
Encoding: 66 66 34
Width: 734
GlyphClass: 2
Flags: W
LayerCount: 2
Fore
SplineSet
343 168 m 1,0,1
 334 176 334 176 316.5 174.5 c 128,-1,2
 299 173 299 173 281 167.5 c 128,-1,3
 263 162 263 162 249 164 c 128,-1,4
 235 166 235 166 235 180 c 1,5,6
 240 196 240 196 259 206.5 c 128,-1,7
 278 217 278 217 281 235 c 1,8,9
 291 257 291 257 292.5 314.5 c 128,-1,10
 294 372 294 372 289 394 c 1,11,12
 283 466 283 466 282 608.5 c 128,-1,13
 281 751 281 751 276 820 c 0,14,15
 274 840 274 840 271.5 852 c 128,-1,16
 269 864 269 864 259.5 876.5 c 128,-1,17
 250 889 250 889 233 893 c 1,18,19
 214 912 214 912 227 929.5 c 128,-1,20
 240 947 240 947 264 935 c 1,21,22
 282 941 282 941 309 947 c 128,-1,23
 336 953 336 953 357 950 c 1,24,25
 390 950 390 950 472 953 c 128,-1,26
 554 956 554 956 598 955 c 1,27,28
 619 956 619 956 646.5 931 c 128,-1,29
 674 906 674 906 694 905 c 1,30,31
 711 902 711 902 722 888 c 128,-1,32
 733 874 733 874 742.5 850.5 c 128,-1,33
 752 827 752 827 757 819 c 1,34,35
 760 810 760 810 769 798 c 128,-1,36
 778 786 778 786 784 777.5 c 128,-1,37
 790 769 790 769 788.5 758.5 c 128,-1,38
 787 748 787 748 773 739 c 1,39,40
 766 727 766 727 762.5 704.5 c 128,-1,41
 759 682 759 682 752.5 664.5 c 128,-1,42
 746 647 746 647 730 638 c 1,43,44
 709 628 709 628 704.5 606.5 c 128,-1,45
 700 585 700 585 712.5 567 c 128,-1,46
 725 549 725 549 747 547 c 1,47,48
 758 537 758 537 765.5 523.5 c 128,-1,49
 773 510 773 510 777.5 496 c 128,-1,50
 782 482 782 482 785.5 466.5 c 128,-1,51
 789 451 789 451 791 436.5 c 128,-1,52
 793 422 793 422 795 407 c 0,53,54
 797 385 797 385 800.5 344 c 128,-1,55
 804 303 804 303 804 297 c 1,56,57
 791 286 791 286 764.5 261.5 c 128,-1,58
 738 237 738 237 716.5 219.5 c 128,-1,59
 695 202 695 202 673 190 c 0,60,61
 654 179 654 179 627.5 177 c 128,-1,62
 601 175 601 175 580 177 c 128,-1,63
 559 179 559 179 533 174 c 1,64,65
 514 164 514 164 502.5 165.5 c 128,-1,66
 491 167 491 167 471.5 172.5 c 128,-1,67
 452 178 452 178 439 177 c 1,68,69
 419 180 419 180 394.5 173 c 128,-1,70
 370 166 370 166 355 158 c 1,71,72
 347 161 347 161 343 168 c 1,0,1
429 225 m 0,73,74
 434 223 434 223 442 219 c 128,-1,75
 450 215 450 215 455.5 212.5 c 128,-1,76
 461 210 461 210 468.5 208 c 128,-1,77
 476 206 476 206 483.5 206.5 c 128,-1,78
 491 207 491 207 499 211 c 1,79,80
 561 226 561 226 610 219 c 1,81,82
 617 222 617 222 628.5 230.5 c 128,-1,83
 640 239 640 239 650 243.5 c 128,-1,84
 660 248 660 248 671 248 c 1,85,86
 709 287 709 287 725 380 c 0,87,88
 733 422 733 422 708.5 461 c 128,-1,89
 684 500 684 500 642 517 c 1,90,91
 620 529 620 529 566.5 537.5 c 128,-1,92
 513 546 513 546 489 562 c 1,93,94
 480 578 480 578 456.5 564 c 128,-1,95
 433 550 433 550 419 561 c 1,96,97
 407 563 407 563 383 552.5 c 128,-1,98
 359 542 359 542 343 550 c 1,99,100
 333 537 333 537 332.5 500 c 128,-1,101
 332 463 332 463 331 456 c 0,102,103
 330 443 330 443 327 382.5 c 128,-1,104
 324 322 324 322 325 289 c 1,105,106
 334 242 334 242 387 212 c 1,107,108
 394 211 394 211 407 219 c 128,-1,109
 420 227 420 227 429 225 c 0,73,74
386 614 m 1,110,111
 395 619 395 619 413 617 c 128,-1,112
 431 615 431 615 442.5 612.5 c 128,-1,113
 454 610 454 610 473.5 605 c 128,-1,114
 493 600 493 600 502 598 c 1,115,116
 511 599 511 599 527.5 599.5 c 128,-1,117
 544 600 544 600 555 602.5 c 128,-1,118
 566 605 566 605 574 613 c 1,119,120
 573 625 573 625 580 635 c 128,-1,121
 587 645 587 645 597 650.5 c 128,-1,122
 607 656 607 656 618 664.5 c 128,-1,123
 629 673 629 673 633 683 c 1,124,125
 637 689 637 689 652.5 707.5 c 128,-1,126
 668 726 668 726 675 740 c 128,-1,127
 682 754 682 754 681 769 c 0,128,129
 680 796 680 796 664.5 814 c 128,-1,130
 649 832 649 832 622 851 c 1,131,132
 590 890 590 890 524 888 c 0,133,134
 523 888 523 888 348 892 c 1,135,136
 347 867 347 867 348 831.5 c 128,-1,137
 349 796 349 796 360 773 c 0,138,139
 364 764 364 764 356.5 758 c 128,-1,140
 349 752 349 752 338 749 c 128,-1,141
 327 746 327 746 319 738 c 128,-1,142
 311 730 311 730 314 718 c 1,143,144
 311 710 311 710 315 701.5 c 128,-1,145
 319 693 319 693 324 686.5 c 128,-1,146
 329 680 329 680 332.5 673.5 c 128,-1,147
 336 667 336 667 333 661.5 c 128,-1,148
 330 656 330 656 318 652 c 1,149,150
 307 625 307 625 331 611.5 c 128,-1,151
 355 598 355 598 376 616 c 1,152,-1
 382 616 l 1,153,-1
 386 614 l 1,110,111
EndSplineSet
Validated: 2097185
EndChar

StartChar: glyph
Encoding: 67 67 35
Width: 734
GlyphClass: 2
Flags: W
LayerCount: 2
Fore
SplineSet
435 177 m 2,0,1
 429 184 429 184 405 189.5 c 128,-1,2
 381 195 381 195 376 212 c 1,3,4
 335 228 335 228 318 280 c 1,5,6
 302 287 302 287 294.5 300.5 c 128,-1,7
 287 314 287 314 282 332.5 c 128,-1,8
 277 351 277 351 271 361 c 1,9,10
 257 375 257 375 250 403 c 128,-1,11
 243 431 243 431 241 451 c 0,12,13
 223 578 223 578 234 646 c 1,14,15
 243 664 243 664 247.5 685.5 c 128,-1,16
 252 707 252 707 254 735.5 c 128,-1,17
 256 764 256 764 259 778 c 0,18,19
 262 793 262 793 271.5 808.5 c 128,-1,20
 281 824 281 824 294.5 841.5 c 128,-1,21
 308 859 308 859 314 869 c 1,22,23
 330 874 330 874 361 898.5 c 128,-1,24
 392 923 392 923 414 925 c 0,25,26
 428 926 428 926 443 939 c 128,-1,27
 458 952 458 952 472.5 961 c 128,-1,28
 487 970 487 970 505 963 c 1,29,30
 538 958 538 958 592 932 c 128,-1,31
 646 906 646 906 667 899 c 1,32,33
 681 892 681 892 690 899 c 128,-1,34
 699 906 699 906 703 917 c 128,-1,35
 707 928 707 928 716.5 933.5 c 128,-1,36
 726 939 726 939 741 929 c 1,37,38
 760 922 760 922 761.5 904.5 c 128,-1,39
 763 887 763 887 747 877 c 1,40,41
 739 852 739 852 737 793 c 128,-1,42
 735 734 735 734 723 705 c 1,43,44
 703 698 703 698 689.5 718 c 128,-1,45
 676 738 676 738 669 764 c 1,46,47
 667 782 667 782 666 798.5 c 128,-1,48
 665 815 665 815 657.5 831 c 128,-1,49
 650 847 650 847 636 856 c 1,50,51
 619 857 619 857 597 880 c 128,-1,52
 575 903 575 903 557 905 c 1,53,54
 535 914 535 914 508 913 c 128,-1,55
 481 912 481 912 465 898 c 1,56,57
 454 903 454 903 446.5 903 c 128,-1,58
 439 903 439 903 429.5 895.5 c 128,-1,59
 420 888 420 888 414.5 881 c 128,-1,60
 409 874 409 874 400.5 864 c 128,-1,61
 392 854 392 854 388 849 c 1,62,63
 378 842 378 842 369.5 824 c 128,-1,64
 361 806 361 806 351.5 792.5 c 128,-1,65
 342 779 342 779 327 777 c 1,66,67
 314 767 314 767 313.5 748 c 128,-1,68
 313 729 313 729 315.5 713.5 c 128,-1,69
 318 698 318 698 305 682 c 1,70,71
 295 668 295 668 293 635.5 c 128,-1,72
 291 603 291 603 283 590 c 1,73,74
 283 586 283 586 279 559.5 c 128,-1,75
 275 533 275 533 280 529 c 1,76,77
 280 495 280 495 294.5 433 c 128,-1,78
 309 371 309 371 311 361 c 1,79,80
 316 350 316 350 336 329 c 128,-1,81
 356 308 356 308 361 293 c 1,82,83
 374 292 374 292 384.5 282.5 c 128,-1,84
 395 273 395 273 400.5 263 c 128,-1,85
 406 253 406 253 416 243.5 c 128,-1,86
 426 234 426 234 439 232 c 0,87,88
 446 230 446 230 454.5 228.5 c 128,-1,89
 463 227 463 227 470.5 225.5 c 128,-1,90
 478 224 478 224 486.5 223 c 128,-1,91
 495 222 495 222 503 222 c 128,-1,92
 511 222 511 222 519 223.5 c 128,-1,93
 527 225 527 225 534 228 c 1,94,95
 615 277 615 277 687 359 c 1,96,97
 691 368 691 368 709.5 396.5 c 128,-1,98
 728 425 728 425 729 443 c 1,99,100
 725 462 725 462 735 464.5 c 128,-1,101
 745 467 745 467 757 456 c 128,-1,102
 769 445 769 445 768 432 c 1,103,104
 780 385 780 385 756.5 338.5 c 128,-1,105
 733 292 733 292 690 265 c 1,106,107
 680 257 680 257 670 237 c 128,-1,108
 660 217 660 217 648 203.5 c 128,-1,109
 636 190 636 190 616 188 c 1,110,111
 595 193 595 193 572 191 c 128,-1,112
 549 189 549 189 533 174 c 1,113,114
 474 158 474 158 438 174 c 1,115,-1
 435 177 l 2,0,1
EndSplineSet
Validated: 2097185
EndChar

StartChar: glyph
Encoding: 68 68 36
Width: 734
GlyphClass: 2
Flags: W
LayerCount: 2
Fore
SplineSet
244 964 m 1,0,1
 234 960 234 960 225 952 c 128,-1,2
 216 944 216 944 211.5 935 c 128,-1,3
 207 926 207 926 211 917 c 128,-1,4
 215 908 215 908 229 903 c 1,5,6
 245 890 245 890 279.5 898.5 c 128,-1,7
 314 907 314 907 330 894 c 1,8,9
 334 882 334 882 335 835.5 c 128,-1,10
 336 789 336 789 345 772 c 1,11,12
 345 754 345 754 341.5 717.5 c 128,-1,13
 338 681 338 681 339 652.5 c 128,-1,14
 340 624 340 624 349 599 c 1,15,16
 358 596 358 596 359.5 590 c 128,-1,17
 361 584 361 584 357 578.5 c 128,-1,18
 353 573 353 573 350.5 564.5 c 128,-1,19
 348 556 348 556 350 549 c 0,20,21
 352 541 352 541 356.5 524 c 128,-1,22
 361 507 361 507 362.5 496.5 c 128,-1,23
 364 486 364 486 362.5 472 c 128,-1,24
 361 458 361 458 353 446 c 1,25,26
 344 423 344 423 346 343 c 128,-1,27
 348 263 348 263 346 240 c 1,28,29
 333 248 333 248 317 241.5 c 128,-1,30
 301 235 301 235 284 226.5 c 128,-1,31
 267 218 267 218 264 221 c 0,32,33
 250 234 250 234 241 227.5 c 128,-1,34
 232 221 232 221 226.5 208 c 128,-1,35
 221 195 221 195 225.5 181 c 128,-1,36
 230 167 230 167 244 165 c 1,37,38
 270 147 270 147 293 179 c 0,39,40
 300 188 300 188 309 189 c 1,41,42
 302 186 302 186 305 178 c 128,-1,43
 308 170 308 170 317 169 c 0,44,45
 345 163 345 163 390 164 c 1,46,47
 402 163 402 163 418 165 c 128,-1,48
 434 167 434 167 443 174 c 1,49,50
 463 177 463 177 472 177 c 128,-1,51
 481 177 481 177 501 174.5 c 128,-1,52
 521 172 521 172 529 171 c 0,53,54
 587 167 587 167 634 207 c 1,55,56
 653 217 653 217 667 217 c 128,-1,57
 681 217 681 217 697 224 c 1,58,59
 715 236 715 236 732 272 c 128,-1,60
 749 308 749 308 756 316 c 1,61,62
 762 326 762 326 788 354.5 c 128,-1,63
 814 383 814 383 819 404 c 1,64,65
 825 445 825 445 827 521.5 c 128,-1,66
 829 598 829 598 833 629 c 1,67,68
 840 651 840 651 824.5 687.5 c 128,-1,69
 809 724 809 724 808 737 c 1,70,71
 795 783 795 783 740 850 c 1,72,73
 725 864 725 864 707 875 c 128,-1,74
 689 886 689 886 662.5 898.5 c 128,-1,75
 636 911 636 911 626 917 c 0,76,77
 535 965 535 965 445 961 c 1,78,79
 425 965 425 965 385 954.5 c 128,-1,80
 345 944 345 944 325 950 c 1,81,82
 312 964 312 964 283.5 956.5 c 128,-1,83
 255 949 255 949 244 964 c 1,0,1
525 897 m 1,84,85
 534 898 534 898 551.5 886.5 c 128,-1,86
 569 875 569 875 581 875 c 1,87,88
 614 866 614 866 651.5 852 c 128,-1,89
 689 838 689 838 695 828 c 1,90,91
 701 821 701 821 713.5 799.5 c 128,-1,92
 726 778 726 778 738 766 c 128,-1,93
 750 754 750 754 767 750 c 1,94,95
 768 744 768 744 769.5 705.5 c 128,-1,96
 771 667 771 667 784 649 c 1,97,98
 812 535 812 535 765 446 c 1,99,100
 759 438 759 438 756.5 424 c 128,-1,101
 754 410 754 410 753.5 398.5 c 128,-1,102
 753 387 753 387 747 376.5 c 128,-1,103
 741 366 741 366 729 363 c 1,104,105
 707 328 707 328 693 308.5 c 128,-1,106
 679 289 679 289 663 278 c 128,-1,107
 647 267 647 267 635.5 263.5 c 128,-1,108
 624 260 624 260 597 252.5 c 128,-1,109
 570 245 570 245 546 235 c 0,110,111
 507 218 507 218 471 222 c 0,112,113
 467 222 467 222 457.5 223 c 128,-1,114
 448 224 448 224 441.5 224 c 128,-1,115
 435 224 435 224 429 221 c 0,116,117
 428 220 428 220 427 218 c 1,118,119
 424 223 424 223 422 226 c 0,120,121
 408 248 408 248 402 276.5 c 128,-1,122
 396 305 396 305 396.5 330.5 c 128,-1,123
 397 356 397 356 397 385 c 1,124,125
 401 406 401 406 389.5 447.5 c 128,-1,126
 378 489 378 489 384 510 c 1,127,128
 396 520 396 520 396 534 c 128,-1,129
 396 548 396 548 390.5 559.5 c 128,-1,130
 385 571 385 571 385 584.5 c 128,-1,131
 385 598 385 598 395 607 c 1,132,133
 405 621 405 621 399 639 c 128,-1,134
 393 657 393 657 386 669 c 128,-1,135
 379 681 379 681 387 698 c 0,136,137
 399 726 399 726 399 796 c 128,-1,138
 399 866 399 866 409 892 c 1,139,140
 441 905 441 905 470.5 896 c 128,-1,141
 500 887 500 887 525 897 c 1,84,85
EndSplineSet
Validated: 2097193
EndChar

StartChar: glyph
Encoding: 69 69 37
Width: 734
GlyphClass: 2
Flags: W
LayerCount: 2
Fore
SplineSet
250 195 m 1,0,1
 241 210 241 210 245 219 c 128,-1,2
 249 228 249 228 261 231 c 128,-1,3
 273 234 273 234 288 235 c 128,-1,4
 303 236 303 236 317 234 c 1,5,6
 334 240 334 240 338 265 c 128,-1,7
 342 290 342 290 338.5 314 c 128,-1,8
 335 338 335 338 339 356 c 1,9,10
 345 591 345 591 329 792 c 1,11,12
 323 810 323 810 325 849.5 c 128,-1,13
 327 889 327 889 337 905 c 1,14,15
 326 913 326 913 314 913.5 c 128,-1,16
 302 914 302 914 284.5 911 c 128,-1,17
 267 908 267 908 256 908 c 1,18,19
 247 902 247 902 236.5 908 c 128,-1,20
 226 914 226 914 220 926 c 128,-1,21
 214 938 214 938 211 950 c 128,-1,22
 208 962 208 962 214.5 969.5 c 128,-1,23
 221 977 221 977 235 973 c 1,24,25
 253 974 253 974 281.5 970.5 c 128,-1,26
 310 967 310 967 326 966 c 128,-1,27
 342 965 342 965 371 972 c 1,28,29
 399 976 399 976 444.5 971.5 c 128,-1,30
 490 967 490 967 518.5 965.5 c 128,-1,31
 547 964 547 964 591 977 c 1,32,33
 617 981 617 981 673 971 c 128,-1,34
 729 961 729 961 734 966 c 1,35,36
 745 988 745 988 770.5 982 c 128,-1,37
 796 976 796 976 806 956 c 1,38,39
 808 955 808 955 816 951.5 c 128,-1,40
 824 948 824 948 827.5 946 c 128,-1,41
 831 944 831 944 836.5 940.5 c 128,-1,42
 842 937 842 937 843 933.5 c 128,-1,43
 844 930 844 930 842 924.5 c 128,-1,44
 840 919 840 919 834 914 c 1,45,46
 817 856 817 856 836 809 c 1,47,48
 851 783 851 783 839.5 748 c 128,-1,49
 828 713 828 713 801 701 c 1,50,51
 791 700 791 700 783.5 703.5 c 128,-1,52
 776 707 776 707 772 714 c 128,-1,53
 768 721 768 721 765 729.5 c 128,-1,54
 762 738 762 738 761 747.5 c 128,-1,55
 760 757 760 757 759 765.5 c 128,-1,56
 758 774 758 774 758 782 c 0,57,58
 758 793 758 793 757.5 808 c 128,-1,59
 757 823 757 823 756.5 836.5 c 128,-1,60
 756 850 756 850 749 861.5 c 128,-1,61
 742 873 742 873 729 879 c 1,62,63
 710 871 710 871 681.5 886.5 c 128,-1,64
 653 902 653 902 638 898 c 1,65,66
 573 875 573 875 529 893 c 1,67,68
 524 905 524 905 517.5 909.5 c 128,-1,69
 511 914 511 914 503.5 911 c 128,-1,70
 496 908 496 908 489.5 903.5 c 128,-1,71
 483 899 483 899 475 892 c 128,-1,72
 467 885 467 885 462 882 c 1,73,74
 451 893 451 893 441.5 893.5 c 128,-1,75
 432 894 432 894 426 889 c 128,-1,76
 420 884 420 884 413.5 870.5 c 128,-1,77
 407 857 407 857 404.5 849.5 c 128,-1,78
 402 842 402 842 397 828 c 1,79,80
 398 823 398 823 403.5 816.5 c 128,-1,81
 409 810 409 810 413.5 805.5 c 128,-1,82
 418 801 418 801 418 794 c 128,-1,83
 418 787 418 787 410 779 c 0,84,85
 392 763 392 763 390.5 747 c 128,-1,86
 389 731 389 731 409 716 c 1,87,88
 420 702 420 702 414 683.5 c 128,-1,89
 408 665 408 665 409 648 c 128,-1,90
 410 631 410 631 429 630 c 1,91,92
 433 627 433 627 443.5 619 c 128,-1,93
 454 611 454 611 460.5 607.5 c 128,-1,94
 467 604 467 604 474.5 602 c 128,-1,95
 482 600 482 600 485 606.5 c 128,-1,96
 488 613 488 613 487 629 c 1,97,98
 493 644 493 644 502 640 c 128,-1,99
 511 636 511 636 518.5 624.5 c 128,-1,100
 526 613 526 613 534 611.5 c 128,-1,101
 542 610 542 610 545 630 c 1,102,103
 550 645 550 645 545 681.5 c 128,-1,104
 540 718 540 718 549 730 c 1,105,106
 550 733 550 733 580 733 c 128,-1,107
 610 733 610 733 611 733 c 0,108,109
 612 632 612 632 619 455 c 0,110,111
 620 436 620 436 611 431 c 128,-1,112
 602 426 602 426 591 433 c 128,-1,113
 580 440 580 440 570 453 c 128,-1,114
 560 466 560 466 560 477 c 1,115,116
 554 513 554 513 518.5 530.5 c 128,-1,117
 483 548 483 548 444 543 c 1,118,119
 422 543 422 543 410 527.5 c 128,-1,120
 398 512 398 512 398 492 c 128,-1,121
 398 472 398 472 400 453 c 0,122,123
 401 447 401 447 405 425.5 c 128,-1,124
 409 404 409 404 410.5 394.5 c 128,-1,125
 412 385 412 385 414 367.5 c 128,-1,126
 416 350 416 350 416 336 c 128,-1,127
 416 322 416 322 414 308 c 1,128,129
 418 278 418 278 442.5 260 c 128,-1,130
 467 242 467 242 492 261 c 1,131,132
 512 254 512 254 521 252 c 128,-1,133
 530 250 530 250 545.5 251 c 128,-1,134
 561 252 561 252 572 261 c 1,135,136
 588 249 588 249 625.5 259 c 128,-1,137
 663 269 663 269 680 262 c 1,138,139
 688 261 688 261 710.5 258 c 128,-1,140
 733 255 733 255 751.5 253 c 128,-1,141
 770 251 770 251 783 252 c 1,142,143
 793 271 793 271 791 293 c 128,-1,144
 789 315 789 315 784.5 348 c 128,-1,145
 780 381 780 381 782 394 c 1,146,147
 780 405 780 405 779 414 c 128,-1,148
 778 423 778 423 778.5 433 c 128,-1,149
 779 443 779 443 782.5 446.5 c 128,-1,150
 786 450 786 450 793 451.5 c 128,-1,151
 800 453 800 453 812 446 c 1,152,153
 841 440 841 440 851 412 c 128,-1,154
 861 384 861 384 857 351 c 1,155,156
 857 341 857 341 852.5 325.5 c 128,-1,157
 848 310 848 310 847.5 302 c 128,-1,158
 847 294 847 294 853 273 c 1,159,160
 853 268 853 268 854 252.5 c 128,-1,161
 855 237 855 237 854.5 227.5 c 128,-1,162
 854 218 854 218 851.5 206 c 128,-1,163
 849 194 849 194 841.5 186 c 128,-1,164
 834 178 834 178 822 175 c 0,165,166
 800 171 800 171 747 175.5 c 128,-1,167
 694 180 694 180 673 174 c 1,168,169
 631 172 631 172 500.5 178 c 128,-1,170
 370 184 370 184 328 176 c 0,171,172
 319 174 319 174 309.5 171.5 c 128,-1,173
 300 169 300 169 290.5 168.5 c 128,-1,174
 281 168 281 168 273 169.5 c 128,-1,175
 265 171 265 171 259 177.5 c 128,-1,176
 253 184 253 184 250 195 c 1,0,1
EndSplineSet
Validated: 2097185
EndChar

StartChar: glyph
Encoding: 70 70 38
Width: 734
GlyphClass: 2
Flags: W
LayerCount: 2
Fore
SplineSet
785 979 m 1,0,1
 779 977 779 977 769 970 c 128,-1,2
 759 963 759 963 753.5 961 c 128,-1,3
 748 959 748 959 736 965 c 1,4,5
 697 977 697 977 652 975 c 1,6,7
 640 976 640 976 628 966.5 c 128,-1,8
 616 957 616 957 608 949 c 1,9,10
 569 932 569 932 527 956 c 0,11,12
 523 958 523 958 516 964 c 128,-1,13
 509 970 509 970 505 973.5 c 128,-1,14
 501 977 501 977 493.5 978.5 c 128,-1,15
 486 980 486 980 481 972 c 1,16,17
 475 965 475 965 468 953.5 c 128,-1,18
 461 942 461 942 462 932 c 1,19,20
 470 916 470 916 488.5 910 c 128,-1,21
 507 904 507 904 524 908 c 0,22,23
 549 913 549 913 572 895 c 1,24,25
 582 891 582 891 598 897.5 c 128,-1,26
 614 904 614 904 620 904 c 0,27,28
 639 906 639 906 660.5 904 c 128,-1,29
 682 902 682 902 710 897 c 128,-1,30
 738 892 738 892 750 890 c 1,31,32
 759 891 759 891 761 884 c 128,-1,33
 763 877 763 877 761.5 868.5 c 128,-1,34
 760 860 760 860 762 854 c 1,35,36
 762 828 762 828 763 813.5 c 128,-1,37
 764 799 764 799 769.5 777.5 c 128,-1,38
 775 756 775 756 786 741 c 2,39,-1
 790 736 l 2,40,41
 791 734 791 734 798.5 724 c 128,-1,42
 806 714 806 714 812 710.5 c 128,-1,43
 818 707 818 707 825 711 c 1,44,45
 833 724 833 724 836 767 c 1,46,47
 839 863 839 863 815 943 c 0,48,49
 813 948 813 948 810.5 954.5 c 128,-1,50
 808 961 808 961 805 966.5 c 128,-1,51
 802 972 802 972 796.5 975.5 c 128,-1,52
 791 979 791 979 785 979 c 1,0,1
405 978 m 1,53,54
 394 978 394 978 390 970.5 c 128,-1,55
 386 963 386 963 399 951 c 1,56,57
 416 940 416 940 406 929 c 0,58,59
 397 919 397 919 389 933 c 0,60,61
 387 935 387 935 386 938 c 1,62,63
 376 949 376 949 361 954.5 c 128,-1,64
 346 960 346 960 325 962.5 c 128,-1,65
 304 965 304 965 294 968 c 1,66,67
 267 982 267 982 244 970 c 128,-1,68
 221 958 221 958 213 930 c 1,69,70
 218 919 218 919 243 906 c 128,-1,71
 268 893 268 893 275 881 c 1,72,73
 296 898 296 898 318 894 c 128,-1,74
 340 890 340 890 352 864 c 1,75,76
 359 855 359 855 353.5 847 c 128,-1,77
 348 839 348 839 338.5 834 c 128,-1,78
 329 829 329 829 322.5 819.5 c 128,-1,79
 316 810 316 810 321 798 c 1,80,81
 345 769 345 769 343 703 c 1,82,83
 346 679 346 679 338.5 648 c 128,-1,84
 331 617 331 617 324 596 c 1,85,86
 328 585 328 585 331 572 c 128,-1,87
 334 559 334 559 335.5 547.5 c 128,-1,88
 337 536 337 536 333.5 524 c 128,-1,89
 330 512 330 512 320 502 c 1,90,91
 334 495 334 495 339.5 483.5 c 128,-1,92
 345 472 345 472 339 456 c 1,93,94
 323 437 323 437 324.5 415.5 c 128,-1,95
 326 394 326 394 346 379 c 1,96,97
 356 367 356 367 352.5 356.5 c 128,-1,98
 349 346 349 346 340 339 c 128,-1,99
 331 332 331 332 324 321 c 128,-1,100
 317 310 317 310 320 298 c 1,101,102
 320 293 320 293 320 280.5 c 128,-1,103
 320 268 320 268 319 260.5 c 128,-1,104
 318 253 318 253 315.5 244 c 128,-1,105
 313 235 313 235 306.5 229.5 c 128,-1,106
 300 224 300 224 289 222 c 1,107,108
 273 214 273 214 245.5 228 c 128,-1,109
 218 242 218 242 205 234 c 1,110,111
 190 212 190 212 203 185.5 c 128,-1,112
 216 159 216 159 244 160 c 1,113,114
 269 157 269 157 281 156 c 1,115,116
 298 149 298 149 319 161.5 c 128,-1,117
 340 174 340 174 354 172 c 1,118,119
 366 172 366 172 386 170 c 128,-1,120
 406 168 406 168 423 168 c 128,-1,121
 440 168 440 168 453 174 c 1,122,123
 453 189 453 189 461.5 193 c 128,-1,124
 470 197 470 197 480 192 c 128,-1,125
 490 187 490 187 499 178 c 0,126,127
 512 166 512 166 528 171.5 c 128,-1,128
 544 177 544 177 546 190.5 c 128,-1,129
 548 204 548 204 533 218 c 1,130,131
 512 251 512 251 472 234 c 1,132,133
 467 233 467 233 455 231.5 c 128,-1,134
 443 230 443 230 435.5 229.5 c 128,-1,135
 428 229 428 229 418.5 230 c 128,-1,136
 409 231 409 231 403 236 c 128,-1,137
 397 241 397 241 394 251 c 1,138,139
 379 336 379 336 394 429 c 1,140,141
 406 446 406 446 404 476.5 c 128,-1,142
 402 507 402 507 407 525 c 0,143,144
 414 549 414 549 437.5 559 c 128,-1,145
 461 569 461 569 486 564 c 1,146,147
 513 560 513 560 532.5 548 c 128,-1,148
 552 536 552 536 545 513 c 1,149,150
 530 496 530 496 534.5 479 c 128,-1,151
 539 462 539 462 557 447 c 1,152,153
 566 436 566 436 582 428.5 c 128,-1,154
 598 421 598 421 612 425.5 c 128,-1,155
 626 430 626 430 626 449 c 1,156,157
 631 523 631 523 626 660 c 0,158,159
 626 664 626 664 624.5 678.5 c 128,-1,160
 623 693 623 693 621.5 701 c 128,-1,161
 620 709 620 709 616.5 719.5 c 128,-1,162
 613 730 613 730 605 734 c 128,-1,163
 597 738 597 738 586 737 c 0,164,165
 568 735 568 735 559.5 721 c 128,-1,166
 551 707 551 707 545 690 c 128,-1,167
 539 673 539 673 528 667 c 1,168,169
 526 647 526 647 515.5 638.5 c 128,-1,170
 505 630 505 630 490.5 631 c 128,-1,171
 476 632 476 632 460 633 c 1,172,173
 446 615 446 615 426.5 620 c 128,-1,174
 407 625 407 625 402 648 c 1,175,176
 380 721 380 721 380 830 c 1,177,178
 377 858 377 858 391.5 876.5 c 128,-1,179
 406 895 406 895 432 881 c 1,180,181
 450 892 450 892 445.5 919 c 128,-1,182
 441 946 441 946 423 956 c 1,183,184
 425 967 425 967 419.5 973 c 128,-1,185
 414 979 414 979 405 978 c 1,53,54
EndSplineSet
Validated: 2097193
EndChar

StartChar: glyph
Encoding: 71 71 39
Width: 734
GlyphClass: 2
Flags: W
LayerCount: 2
Fore
SplineSet
440 178 m 1,0,1
 400 188 400 188 343 228 c 1,2,3
 328 231 328 231 316 242 c 128,-1,4
 304 253 304 253 299 263.5 c 128,-1,5
 294 274 294 274 286 293 c 128,-1,6
 278 312 278 312 275 319 c 0,7,8
 270 330 270 330 256.5 357.5 c 128,-1,9
 243 385 243 385 236.5 400.5 c 128,-1,10
 230 416 230 416 224 440 c 128,-1,11
 218 464 218 464 219 485 c 1,12,13
 213 708 213 708 279 846 c 0,14,15
 302 896 302 896 353 923 c 1,16,17
 371 965 371 965 439 966 c 0,18,19
 451 966 451 966 491 974.5 c 128,-1,20
 531 983 531 983 552 976 c 1,21,22
 560 966 560 966 576 958.5 c 128,-1,23
 592 951 592 951 605.5 947.5 c 128,-1,24
 619 944 619 944 631.5 934.5 c 128,-1,25
 644 925 644 925 649 910 c 1,26,27
 657 896 657 896 667.5 896 c 128,-1,28
 678 896 678 896 687.5 905.5 c 128,-1,29
 697 915 697 915 706.5 926.5 c 128,-1,30
 716 938 716 938 721 946 c 1,31,32
 738 959 738 959 749.5 947 c 128,-1,33
 761 935 761 935 761 914.5 c 128,-1,34
 761 894 761 894 754 880 c 1,35,36
 745 846 745 846 743.5 778 c 128,-1,37
 742 710 742 710 741 704 c 1,38,39
 742 682 742 682 728 674.5 c 128,-1,40
 714 667 714 667 697 673.5 c 128,-1,41
 680 680 680 680 670 694 c 1,42,43
 661 713 661 713 661 747.5 c 128,-1,44
 661 782 661 782 659 803 c 1,45,46
 661 829 661 829 648 844.5 c 128,-1,47
 635 860 635 860 608 877 c 1,48,49
 601 895 601 895 585.5 903.5 c 128,-1,50
 570 912 570 912 547.5 916.5 c 128,-1,51
 525 921 525 921 515 926 c 1,52,53
 512 934 512 934 504 932 c 128,-1,54
 496 930 496 930 488 923.5 c 128,-1,55
 480 917 480 917 469.5 912 c 128,-1,56
 459 907 459 907 452 909 c 1,57,58
 404 893 404 893 369.5 851 c 128,-1,59
 335 809 335 809 316 754 c 0,60,61
 310 737 310 737 302 688 c 128,-1,62
 294 639 294 639 281 615 c 1,63,64
 279 583 279 583 280.5 566.5 c 128,-1,65
 282 550 282 550 287.5 518.5 c 128,-1,66
 293 487 293 487 294 470 c 1,67,68
 292 448 292 448 311 419.5 c 128,-1,69
 330 391 330 391 333 380 c 1,70,71
 337 325 337 325 389 284 c 1,72,73
 410 272 410 272 439 259.5 c 128,-1,74
 468 247 468 247 493 246 c 1,75,76
 541 226 541 226 541 263 c 1,77,78
 543 264 543 264 570.5 271 c 128,-1,79
 598 278 598 278 605 293 c 1,80,81
 636 296 636 296 652 322 c 128,-1,82
 668 348 668 348 669 379 c 0,83,84
 669 387 669 387 672 417 c 128,-1,85
 675 447 675 447 674 468 c 128,-1,86
 673 489 673 489 666 504 c 1,87,88
 656 506 656 506 638 501.5 c 128,-1,89
 620 497 620 497 603.5 492 c 128,-1,90
 587 487 587 487 570.5 488 c 128,-1,91
 554 489 554 489 545 501 c 1,92,93
 524 520 524 520 530 546 c 128,-1,94
 536 572 536 572 560 585 c 1,95,96
 574 577 574 577 587 566.5 c 128,-1,97
 600 556 600 556 615 556.5 c 128,-1,98
 630 557 630 557 639 575 c 1,99,100
 653 576 653 576 673 572 c 128,-1,101
 693 568 693 568 708 564 c 128,-1,102
 723 560 723 560 741 561 c 128,-1,103
 759 562 759 562 773 572 c 1,104,105
 786 584 786 584 796 582.5 c 128,-1,106
 806 581 806 581 812.5 568 c 128,-1,107
 819 555 819 555 822 541 c 128,-1,108
 825 527 825 527 826 516 c 1,109,110
 829 506 829 506 825 496 c 128,-1,111
 821 486 821 486 814.5 481 c 128,-1,112
 808 476 808 476 802 479.5 c 128,-1,113
 796 483 796 483 796 498 c 1,114,115
 777 512 777 512 768.5 500 c 128,-1,116
 760 488 760 488 761 466 c 128,-1,117
 762 444 762 444 761 430 c 0,118,119
 759 396 759 396 761 349.5 c 128,-1,120
 763 303 763 303 775 271 c 1,121,122
 786 263 786 263 788.5 252.5 c 128,-1,123
 791 242 791 242 789.5 235 c 128,-1,124
 788 228 788 228 778.5 215.5 c 128,-1,125
 769 203 769 203 765 199 c 128,-1,126
 761 195 761 195 749 183 c 0,127,128
 717 147 717 147 670 209 c 1,129,130
 630 178 630 178 563 174 c 1,131,132
 478 167 478 167 440 178 c 1,0,1
EndSplineSet
Validated: 2097185
EndChar

StartChar: glyph
Encoding: 72 72 40
Width: 734
GlyphClass: 2
Flags: W
LayerCount: 2
Fore
SplineSet
322 155 m 1,0,1
 310 162 310 162 285.5 164 c 128,-1,2
 261 166 261 166 242 172 c 128,-1,3
 223 178 223 178 214 196 c 1,4,5
 211 213 211 213 221 222 c 128,-1,6
 231 231 231 231 245.5 233.5 c 128,-1,7
 260 236 260 236 273 244 c 128,-1,8
 286 252 286 252 287 267 c 1,9,10
 290 285 290 285 292 326 c 128,-1,11
 294 367 294 367 299 388 c 1,12,13
 307 434 307 434 310.5 488 c 128,-1,14
 314 542 314 542 313.5 589 c 128,-1,15
 313 636 313 636 314 690 c 1,16,17
 313 701 313 701 313 734.5 c 128,-1,18
 313 768 313 768 311 790.5 c 128,-1,19
 309 813 309 813 302 833 c 1,20,21
 293 842 293 842 286 861.5 c 128,-1,22
 279 881 279 881 269 892.5 c 128,-1,23
 259 904 259 904 238 902 c 1,24,25
 214 903 214 903 205 918 c 128,-1,26
 196 933 196 933 206 948.5 c 128,-1,27
 216 964 216 964 239 964 c 1,28,29
 332 986 332 986 439 976 c 1,30,31
 457 976 457 976 468.5 958 c 128,-1,32
 480 940 480 940 474 922.5 c 128,-1,33
 468 905 468 905 445 907 c 1,34,35
 427 902 427 902 413 889.5 c 128,-1,36
 399 877 399 877 390.5 858.5 c 128,-1,37
 382 840 382 840 377.5 824 c 128,-1,38
 373 808 373 808 369 787 c 0,39,40
 362 756 362 756 362.5 715.5 c 128,-1,41
 363 675 363 675 378 646 c 1,42,43
 428 620 428 620 454 587 c 1,44,45
 486 614 486 614 551 614 c 0,46,47
 561 614 561 614 579 614.5 c 128,-1,48
 597 615 597 615 608.5 615.5 c 128,-1,49
 620 616 620 616 635 618.5 c 128,-1,50
 650 621 650 621 663 626 c 1,51,52
 681 688 681 688 695 825 c 1,53,54
 702 853 702 853 677.5 871 c 128,-1,55
 653 889 653 889 620 895 c 1,56,57
 603 895 603 895 590 912 c 128,-1,58
 577 929 577 929 579 948.5 c 128,-1,59
 581 968 581 968 600 974 c 1,60,61
 613 977 613 977 639 979 c 128,-1,62
 665 981 665 981 684 987 c 128,-1,63
 703 993 703 993 717 1007 c 1,64,65
 727 1015 727 1015 737 1009.5 c 128,-1,66
 747 1004 747 1004 754.5 993 c 128,-1,67
 762 982 762 982 773 977 c 128,-1,68
 784 972 784 972 797 981 c 1,69,70
 817 984 817 984 831.5 969.5 c 128,-1,71
 846 955 846 955 846 936.5 c 128,-1,72
 846 918 846 918 832 903 c 1,73,74
 799 897 799 897 779.5 883 c 128,-1,75
 760 869 760 869 765 839 c 1,76,77
 761 784 761 784 758.5 682.5 c 128,-1,78
 756 581 756 581 754 540 c 1,79,80
 758 392 758 392 786 280 c 0,81,82
 788 268 788 268 798.5 261.5 c 128,-1,83
 809 255 809 255 819.5 253 c 128,-1,84
 830 251 830 251 839.5 243 c 128,-1,85
 849 235 849 235 850 221 c 1,86,87
 865 201 865 201 855.5 190 c 128,-1,88
 846 179 846 179 826 178.5 c 128,-1,89
 806 178 806 178 791 175 c 1,90,91
 778 176 778 176 758 170.5 c 128,-1,92
 738 165 738 165 726 162.5 c 128,-1,93
 714 160 714 160 694 167 c 1,94,95
 685 173 685 173 658 173.5 c 128,-1,96
 631 174 631 174 615 180 c 128,-1,97
 599 186 599 186 603 208 c 1,98,99
 611 218 611 218 629 231 c 128,-1,100
 647 244 647 244 660 257.5 c 128,-1,101
 673 271 673 271 675 289 c 1,102,103
 678 299 678 299 686.5 324 c 128,-1,104
 695 349 695 349 699.5 367.5 c 128,-1,105
 704 386 704 386 703 404 c 1,106,107
 703 426 703 426 703.5 445.5 c 128,-1,108
 704 465 704 465 699.5 487 c 128,-1,109
 695 509 695 509 685 525 c 1,110,111
 679 531 679 531 668.5 523 c 128,-1,112
 658 515 658 515 650 510 c 128,-1,113
 642 505 642 505 629 519 c 1,114,115
 623 533 623 533 611 535 c 128,-1,116
 599 537 599 537 586 532 c 128,-1,117
 573 527 573 527 558.5 526 c 128,-1,118
 544 525 544 525 533 534 c 1,119,120
 519 539 519 539 468.5 535 c 128,-1,121
 418 531 418 531 403 531 c 1,122,123
 388 523 388 523 382.5 504 c 128,-1,124
 377 485 377 485 378.5 466 c 128,-1,125
 380 447 380 447 378 429 c 0,126,127
 377 420 377 420 380.5 397 c 128,-1,128
 384 374 384 374 381.5 358.5 c 128,-1,129
 379 343 379 343 364 333 c 1,130,131
 365 328 365 328 380.5 308 c 128,-1,132
 396 288 396 288 391 271 c 1,133,134
 394 259 394 259 411.5 244 c 128,-1,135
 429 229 429 229 440 214.5 c 128,-1,136
 451 200 451 200 443 185 c 1,137,138
 422 180 422 180 385.5 165.5 c 128,-1,139
 349 151 349 151 339 147 c 1,140,141
 328 149 328 149 322 155 c 1,0,1
EndSplineSet
Validated: 2097185
EndChar

StartChar: glyph
Encoding: 73 73 41
Width: 734
GlyphClass: 2
Flags: W
LayerCount: 2
Fore
SplineSet
335 170 m 1,0,1
 306 168 306 168 289.5 187.5 c 128,-1,2
 273 207 273 207 296 231 c 1,3,4
 305 242 305 242 334.5 237 c 128,-1,5
 364 232 364 232 373 244 c 1,6,7
 393 232 393 232 407 240 c 128,-1,8
 421 248 421 248 439 276 c 1,9,10
 455 282 455 282 462.5 294.5 c 128,-1,11
 470 307 470 307 470.5 320.5 c 128,-1,12
 471 334 471 334 474 350.5 c 128,-1,13
 477 367 477 367 483 377 c 1,14,15
 490 392 490 392 490.5 409 c 128,-1,16
 491 426 491 426 488.5 451.5 c 128,-1,17
 486 477 486 477 486 485 c 0,18,19
 482 535 482 535 482 592.5 c 128,-1,20
 482 650 482 650 483.5 717 c 128,-1,21
 485 784 485 784 485 824 c 1,22,23
 486 853 486 853 473 883 c 128,-1,24
 460 913 460 913 436 919 c 1,25,26
 432 917 432 917 420 910 c 128,-1,27
 408 903 408 903 402.5 901 c 128,-1,28
 397 899 397 899 387 896.5 c 128,-1,29
 377 894 377 894 369.5 896.5 c 128,-1,30
 362 899 362 899 355 906 c 1,31,32
 348 908 348 908 324 909.5 c 128,-1,33
 300 911 300 911 287.5 918.5 c 128,-1,34
 275 926 275 926 275 944 c 0,35,36
 275 974 275 974 298.5 987.5 c 128,-1,37
 322 1001 322 1001 353 998 c 1,38,39
 377 999 377 999 445 989.5 c 128,-1,40
 513 980 513 980 537 990 c 1,41,42
 547 991 547 991 559.5 998.5 c 128,-1,43
 572 1006 572 1006 580 1011.5 c 128,-1,44
 588 1017 588 1017 599.5 1016 c 128,-1,45
 611 1015 611 1015 622 1003 c 1,46,47
 641 992 641 992 661 990.5 c 128,-1,48
 681 989 681 989 715.5 994 c 128,-1,49
 750 999 750 999 757 999 c 1,50,51
 765 1003 765 1003 768.5 1000.5 c 128,-1,52
 772 998 772 998 772 992 c 128,-1,53
 772 986 772 986 772 979 c 0,54,55
 774 962 774 962 771 938.5 c 128,-1,56
 768 915 768 915 751 907 c 1,57,58
 736 902 736 902 699 919.5 c 128,-1,59
 662 937 662 937 647 928 c 1,60,61
 632 921 632 921 621 914.5 c 128,-1,62
 610 908 610 908 596.5 897 c 128,-1,63
 583 886 583 886 575 871.5 c 128,-1,64
 567 857 567 857 565 840 c 1,65,66
 560 820 560 820 569 786 c 128,-1,67
 578 752 578 752 578 738 c 0,68,69
 579 724 579 724 581 664 c 128,-1,70
 583 604 583 604 594 573 c 1,71,72
 600 565 600 565 587.5 550.5 c 128,-1,73
 575 536 575 536 577 524 c 1,74,75
 564 455 564 455 582 403 c 1,76,77
 582 395 582 395 579 374.5 c 128,-1,78
 576 354 576 354 576 339.5 c 128,-1,79
 576 325 576 325 582 311 c 1,80,81
 583 292 583 292 602 265 c 128,-1,82
 621 238 621 238 624 231 c 0,83,84
 629 219 629 219 639.5 218.5 c 128,-1,85
 650 218 650 218 654.5 227 c 128,-1,86
 659 236 659 236 653 248 c 1,87,88
 660 253 660 253 666.5 246 c 128,-1,89
 673 239 673 239 682 232 c 128,-1,90
 691 225 691 225 701 231 c 1,91,92
 708 242 708 242 726 249 c 128,-1,93
 744 256 744 256 758.5 251 c 128,-1,94
 773 246 773 246 770 226 c 1,95,96
 771 206 771 206 757.5 195.5 c 128,-1,97
 744 185 744 185 725.5 183.5 c 128,-1,98
 707 182 707 182 691 179 c 1,99,100
 674 174 674 174 642.5 186 c 128,-1,101
 611 198 611 198 592 189 c 1,102,103
 582 186 582 186 567.5 180 c 128,-1,104
 553 174 553 174 543 170 c 128,-1,105
 533 166 533 166 519.5 166 c 128,-1,106
 506 166 506 166 493 174 c 1,107,108
 476 177 476 177 443.5 173 c 128,-1,109
 411 169 411 169 399 169 c 0,110,111
 356 168 356 168 335 170 c 1,0,1
EndSplineSet
Validated: 2097185
EndChar

StartChar: glyph
Encoding: 74 74 42
Width: 734
GlyphClass: 2
Flags: W
LayerCount: 2
Fore
SplineSet
690 980 m 0,0,1
 665 980 665 980 599 974 c 1,2,3
 570 978 570 978 556.5 953.5 c 128,-1,4
 543 929 543 929 562 907 c 1,5,6
 566 897 566 897 571.5 892.5 c 128,-1,7
 577 888 577 888 582.5 888.5 c 128,-1,8
 588 889 588 889 595 891.5 c 128,-1,9
 602 894 602 894 608 899 c 128,-1,10
 614 904 614 904 620 907 c 1,11,12
 688 906 688 906 699 872 c 1,13,14
 701 802 701 802 685 754 c 1,15,16
 676 744 676 744 677.5 741.5 c 128,-1,17
 679 739 679 739 686 733.5 c 128,-1,18
 693 728 693 728 693 722 c 0,19,20
 696 702 696 702 695.5 663 c 128,-1,21
 695 624 695 624 697 604 c 1,22,23
 697 589 697 589 704.5 501 c 128,-1,24
 712 413 712 413 708 366 c 1,25,26
 706 355 706 355 688 331 c 128,-1,27
 670 307 670 307 674 288 c 1,28,29
 679 270 679 270 666.5 251 c 128,-1,30
 654 232 654 232 645 260 c 0,31,32
 640 277 640 277 630.5 277.5 c 128,-1,33
 621 278 621 278 613 265.5 c 128,-1,34
 605 253 605 253 607 241 c 1,35,36
 608 225 608 225 597.5 219.5 c 128,-1,37
 587 214 587 214 574.5 216 c 128,-1,38
 562 218 562 218 550.5 214.5 c 128,-1,39
 539 211 539 211 537 197 c 1,40,41
 538 186 538 186 550.5 182 c 128,-1,42
 563 178 563 178 573 182 c 1,43,44
 577 189 577 189 583.5 194 c 128,-1,45
 590 199 590 199 597.5 201.5 c 128,-1,46
 605 204 605 204 611 200 c 128,-1,47
 617 196 617 196 618 185 c 1,48,49
 628 177 628 177 636 181.5 c 128,-1,50
 644 186 644 186 648 193.5 c 128,-1,51
 652 201 652 201 657.5 211 c 128,-1,52
 663 221 663 221 668 224 c 1,53,54
 687 217 687 217 700.5 227 c 128,-1,55
 714 237 714 237 713 257 c 1,56,57
 715 275 715 275 727.5 304 c 128,-1,58
 740 333 740 333 743 342 c 1,59,60
 751 397 751 397 752 500.5 c 128,-1,61
 753 604 753 604 756 643 c 1,62,63
 754 655 754 655 759.5 674 c 128,-1,64
 765 693 765 693 767 704 c 128,-1,65
 769 715 769 715 760 734 c 1,66,67
 753 769 753 769 754.5 819.5 c 128,-1,68
 756 870 756 870 759 906 c 0,69,70
 759 913 759 913 769.5 913 c 128,-1,71
 780 913 780 913 786 913 c 0,72,73
 795 914 795 914 817 914.5 c 128,-1,74
 839 915 839 915 854.5 917.5 c 128,-1,75
 870 920 870 920 884 927 c 1,76,77
 896 948 896 948 875 964 c 128,-1,78
 854 980 854 980 832 973 c 1,79,80
 824 973 824 973 804.5 971 c 128,-1,81
 785 969 785 969 771 969.5 c 128,-1,82
 757 970 757 970 745 976 c 1,83,84
 721 980 721 980 690 980 c 0,0,1
358 484 m 0,85,86
 351 484 351 484 347 478 c 0,87,88
 334 459 334 459 316 423 c 1,89,90
 297 379 297 379 300 351 c 0,91,92
 300 343 300 343 310.5 338.5 c 128,-1,93
 321 334 321 334 323 327 c 0,94,95
 338 287 338 287 362 256 c 0,96,97
 371 246 371 246 388 210 c 0,98,99
 396 193 396 193 405 187 c 1,100,101
 408 181 408 181 423.5 186 c 128,-1,102
 439 191 439 191 442 192 c 1,103,104
 452 190 452 190 456 198.5 c 128,-1,105
 460 207 460 207 458 215 c 0,106,107
 456 221 456 221 445.5 227.5 c 128,-1,108
 435 234 435 234 433 242 c 0,109,110
 424 268 424 268 412 287 c 0,111,112
 407 295 407 295 393 314.5 c 128,-1,113
 379 334 379 334 374 346 c 0,114,115
 371 354 371 354 379 362.5 c 128,-1,116
 387 371 387 371 388 376 c 0,117,118
 401 410 401 410 400 449 c 0,119,120
 400 466 400 466 378 476 c 1,121,122
 364 484 364 484 358 484 c 0,85,86
EndSplineSet
Validated: 2097193
EndChar

StartChar: glyph
Encoding: 75 75 43
Width: 734
GlyphClass: 2
Flags: W
LayerCount: 2
Fore
SplineSet
763 963 m 1,0,1
 744 958 744 958 694.5 952.5 c 128,-1,2
 645 947 645 947 619 937 c 1,3,4
 609 931 609 931 607.5 920.5 c 128,-1,5
 606 910 606 910 610 901 c 128,-1,6
 614 892 614 892 620.5 879.5 c 128,-1,7
 627 867 627 867 629 860 c 1,8,9
 627 839 627 839 617 822 c 128,-1,10
 607 805 607 805 585.5 782.5 c 128,-1,11
 564 760 564 760 558 753 c 0,12,13
 545 740 545 740 523.5 715.5 c 128,-1,14
 502 691 502 691 472.5 669.5 c 128,-1,15
 443 648 443 648 427 652 c 1,16,17
 420 639 420 639 425 628.5 c 128,-1,18
 430 618 430 618 419 607 c 1,19,20
 420 591 420 591 443.5 582.5 c 128,-1,21
 467 574 467 574 493 565.5 c 128,-1,22
 519 557 519 557 524 543 c 1,23,24
 525 524 525 524 538 506 c 128,-1,25
 551 488 551 488 564 474 c 1,26,27
 577 446 577 446 617.5 378 c 128,-1,28
 658 310 658 310 674 270 c 1,29,30
 683 256 683 256 678 246.5 c 128,-1,31
 673 237 673 237 664.5 234 c 128,-1,32
 656 231 656 231 644 224.5 c 128,-1,33
 632 218 632 218 628 209 c 1,34,35
 612 188 612 188 631.5 174.5 c 128,-1,36
 651 161 651 161 676 160 c 1,37,38
 690 158 690 158 706 158 c 1,39,40
 789 165 789 165 826 163 c 1,41,42
 841 164 841 164 860 162.5 c 128,-1,43
 879 161 879 161 890.5 170.5 c 128,-1,44
 902 180 902 180 894 201 c 1,45,46
 887 203 887 203 869.5 207.5 c 128,-1,47
 852 212 852 212 839.5 217.5 c 128,-1,48
 827 223 827 223 819 234 c 1,49,50
 807 242 807 242 799.5 253.5 c 128,-1,51
 792 265 792 265 785 283 c 128,-1,52
 778 301 778 301 775 307 c 1,53,54
 755 307 755 307 745 318 c 128,-1,55
 735 329 735 329 734 348 c 1,56,57
 723 361 723 361 713 371.5 c 128,-1,58
 703 382 703 382 694 396 c 128,-1,59
 685 410 685 410 681 424 c 1,60,61
 632 481 632 481 609 533 c 1,62,63
 603 552 603 552 578 575 c 128,-1,64
 553 598 553 598 547 606 c 1,65,66
 542 617 542 617 541 624 c 128,-1,67
 540 631 540 631 542 633.5 c 128,-1,68
 544 636 544 636 547.5 641 c 128,-1,69
 551 646 551 646 553 651 c 1,70,71
 545 655 545 655 545 661 c 128,-1,72
 545 667 545 667 550.5 673.5 c 128,-1,73
 556 680 556 680 562.5 686.5 c 128,-1,74
 569 693 569 693 576.5 700 c 128,-1,75
 584 707 584 707 587 711 c 0,76,77
 610 750 610 750 658 775 c 1,78,79
 668 794 668 794 683.5 818.5 c 128,-1,80
 699 843 699 843 715 857 c 1,81,82
 723 869 723 869 736.5 876 c 128,-1,83
 750 883 750 883 767.5 888.5 c 128,-1,84
 785 894 785 894 794 899 c 1,85,86
 797 913 797 913 817 920 c 128,-1,87
 837 927 837 927 840 936 c 1,88,89
 830 942 830 942 802.5 947.5 c 128,-1,90
 775 953 775 953 763 963 c 1,0,1
342 945 m 0,91,92
 323 945 323 945 314.5 927.5 c 128,-1,93
 306 910 306 910 309 888 c 1,94,95
 309 867 309 867 310 855.5 c 128,-1,96
 311 844 311 844 317 827.5 c 128,-1,97
 323 811 323 811 336 802 c 1,98,99
 335 790 335 790 323 761.5 c 128,-1,100
 311 733 311 733 314 716 c 1,101,102
 315 687 315 687 323.5 611.5 c 128,-1,103
 332 536 332 536 331 495 c 1,104,105
 335 484 335 484 330 467.5 c 128,-1,106
 325 451 325 451 323 442 c 128,-1,107
 321 433 321 433 332 420 c 1,108,109
 337 400 337 400 329 375.5 c 128,-1,110
 321 351 321 351 312 334 c 1,111,112
 321 302 321 302 290 251 c 1,113,114
 286 236 286 236 264 219 c 128,-1,115
 242 202 242 202 239 188 c 1,116,117
 238 174 238 174 252 172 c 0,118,119
 272 169 272 169 294 168.5 c 128,-1,120
 316 168 316 168 345.5 169.5 c 128,-1,121
 375 171 375 171 387 172 c 0,122,123
 392 172 392 172 411 172 c 128,-1,124
 430 172 430 172 440.5 176.5 c 128,-1,125
 451 181 451 181 453 194 c 1,126,127
 448 211 448 211 421 240 c 128,-1,128
 394 269 394 269 391 290 c 0,129,130
 386 317 386 317 384.5 346.5 c 128,-1,131
 383 376 383 376 383 416.5 c 128,-1,132
 383 457 383 457 382 474 c 1,133,134
 383 502 383 502 381 541 c 128,-1,135
 379 580 379 580 367 607 c 1,136,137
 358 615 358 615 356.5 625.5 c 128,-1,138
 355 636 355 636 358.5 644 c 128,-1,139
 362 652 362 652 367.5 664 c 128,-1,140
 373 676 373 676 375 683 c 1,141,142
 344 713 344 713 354 746 c 1,143,144
 364 761 364 761 367 785 c 128,-1,145
 370 809 370 809 371 827 c 0,146,147
 372 848 372 848 382.5 869 c 128,-1,148
 393 890 393 890 407 905.5 c 128,-1,149
 421 921 421 921 436 939 c 1,150,151
 362 944 362 944 353 944 c 1,152,153
 347 945 347 945 342 945 c 0,91,92
EndSplineSet
Validated: 2097193
EndChar

StartChar: glyph
Encoding: 76 76 44
Width: 734
GlyphClass: 2
Flags: W
LayerCount: 2
Fore
SplineSet
391 986 m 1,0,1
 340 953 340 953 307 979 c 1,2,3
 290 978 290 978 265 960.5 c 128,-1,4
 240 943 240 943 228 941 c 1,5,6
 231 924 231 924 250.5 923 c 128,-1,7
 270 922 270 922 293.5 922 c 128,-1,8
 317 922 317 922 327 907 c 1,9,10
 344 886 344 886 350 857 c 128,-1,11
 356 828 356 828 351 801 c 1,12,13
 342 790 342 790 341.5 776 c 128,-1,14
 341 762 341 762 346 751 c 128,-1,15
 351 740 351 740 358 725 c 128,-1,16
 365 710 365 710 366 701 c 1,17,18
 376 675 376 675 359 633 c 128,-1,19
 342 591 342 591 342 579 c 1,20,21
 362 511 362 511 359 470 c 0,22,23
 359 459 359 459 360 408 c 128,-1,24
 361 357 361 357 360.5 319 c 128,-1,25
 360 281 360 281 357 258 c 1,26,27
 351 239 351 239 335.5 236 c 128,-1,28
 320 233 320 233 302 237.5 c 128,-1,29
 284 242 284 242 263 236 c 1,30,31
 254 230 254 230 249 226.5 c 128,-1,32
 244 223 244 223 236 215.5 c 128,-1,33
 228 208 228 208 226 203.5 c 128,-1,34
 224 199 224 199 228.5 194.5 c 128,-1,35
 233 190 233 190 247 189 c 1,36,37
 261 181 261 181 279 179.5 c 128,-1,38
 297 178 297 178 310.5 179.5 c 128,-1,39
 324 181 324 181 345.5 184.5 c 128,-1,40
 367 188 367 188 378 189 c 0,41,42
 383 190 383 190 399 192.5 c 128,-1,43
 415 195 415 195 423.5 195.5 c 128,-1,44
 432 196 432 196 444.5 196 c 128,-1,45
 457 196 457 196 467.5 192.5 c 128,-1,46
 478 189 478 189 487 183 c 0,47,48
 500 173 500 173 516 177 c 128,-1,49
 532 181 532 181 533 190 c 1,50,51
 558 175 558 175 598 173 c 128,-1,52
 638 171 638 171 666 172 c 0,53,54
 691 173 691 173 713 173.5 c 128,-1,55
 735 174 735 174 760 177 c 128,-1,56
 785 180 785 180 806 186 c 1,57,58
 818 197 818 197 822 217 c 128,-1,59
 826 237 826 237 824.5 255.5 c 128,-1,60
 823 274 823 274 826 293 c 1,61,62
 829 395 829 395 837 452 c 1,63,64
 831 468 831 468 816 469.5 c 128,-1,65
 801 471 801 471 787 461 c 128,-1,66
 773 451 773 451 770 437 c 1,67,68
 760 410 760 410 759.5 355.5 c 128,-1,69
 759 301 759 301 753 277 c 1,70,71
 744 268 744 268 714 265 c 128,-1,72
 684 262 684 262 674 247 c 1,73,74
 616 222 616 222 593 258 c 1,75,76
 581 271 581 271 571.5 265 c 128,-1,77
 562 259 562 259 557.5 245.5 c 128,-1,78
 553 232 553 232 544 227 c 128,-1,79
 535 222 535 222 523 237 c 0,80,81
 519 241 519 241 514.5 250.5 c 128,-1,82
 510 260 510 260 507 268.5 c 128,-1,83
 504 277 504 277 500 283 c 128,-1,84
 496 289 496 289 489.5 287.5 c 128,-1,85
 483 286 483 286 474 275 c 1,86,87
 481 255 481 255 483 244.5 c 128,-1,88
 485 234 485 234 483.5 233.5 c 128,-1,89
 482 233 482 233 478 237.5 c 128,-1,90
 474 242 474 242 468.5 253.5 c 128,-1,91
 463 265 463 265 457 279 c 128,-1,92
 451 293 451 293 445 310 c 128,-1,93
 439 327 439 327 434 342.5 c 128,-1,94
 429 358 429 358 426.5 373.5 c 128,-1,95
 424 389 424 389 425 400 c 0,96,97
 428 516 428 516 415 640 c 1,98,99
 406 657 406 657 414.5 694 c 128,-1,100
 423 731 423 731 411 747 c 1,101,102
 380 822 380 822 404 860 c 1,103,104
 407 867 407 867 412.5 889 c 128,-1,105
 418 911 418 911 427 920 c 128,-1,106
 436 929 436 929 457 924 c 1,107,108
 462 925 462 925 475.5 924 c 128,-1,109
 489 923 489 923 498.5 923.5 c 128,-1,110
 508 924 508 924 518.5 926 c 128,-1,111
 529 928 529 928 534 934.5 c 128,-1,112
 539 941 539 941 538 953 c 1,113,114
 529 963 529 963 516.5 967 c 128,-1,115
 504 971 504 971 482 972 c 128,-1,116
 460 973 460 973 455 974 c 0,117,118
 413 977 413 977 391 986 c 1,0,1
EndSplineSet
Validated: 2097193
EndChar

StartChar: glyph
Encoding: 77 77 45
Width: 734
GlyphClass: 2
Flags: W
LayerCount: 2
Fore
SplineSet
673 172 m 1,0,1
 655 189 655 189 664 213 c 128,-1,2
 673 237 673 237 699 235 c 1,3,4
 728 248 728 248 743 276.5 c 128,-1,5
 758 305 758 305 755 339 c 1,6,7
 757 383 757 383 756.5 443.5 c 128,-1,8
 756 504 756 504 748 547 c 1,9,10
 735 556 735 556 737 565 c 128,-1,11
 739 574 739 574 747.5 580 c 128,-1,12
 756 586 756 586 762.5 596.5 c 128,-1,13
 769 607 769 607 765 619 c 1,14,15
 767 719 767 719 745 825 c 1,16,17
 723 766 723 766 688 730 c 1,18,19
 681 716 681 716 681 682 c 128,-1,20
 681 648 681 648 671 633 c 1,21,22
 667 619 667 619 644.5 591 c 128,-1,23
 622 563 622 563 624 539 c 1,24,25
 622 513 622 513 619.5 497.5 c 128,-1,26
 617 482 617 482 606.5 462.5 c 128,-1,27
 596 443 596 443 579 432 c 1,28,29
 577 414 577 414 562 401 c 128,-1,30
 547 388 547 388 531.5 392.5 c 128,-1,31
 516 397 516 397 514 420 c 1,32,33
 509 443 509 443 505 496.5 c 128,-1,34
 501 550 501 550 493 577 c 1,35,36
 482 593 482 593 478 598 c 128,-1,37
 474 603 474 603 473.5 601.5 c 128,-1,38
 473 600 473 600 468 602 c 128,-1,39
 463 604 463 604 453 613 c 1,40,41
 456 625 456 625 453 630.5 c 128,-1,42
 450 636 450 636 447 635.5 c 128,-1,43
 444 635 444 635 434.5 638 c 128,-1,44
 425 641 425 641 416 648 c 1,45,46
 415 666 415 666 410 683.5 c 128,-1,47
 405 701 405 701 394 727 c 128,-1,48
 383 753 383 753 380 761 c 1,49,50
 380 766 380 766 377 775.5 c 128,-1,51
 374 785 374 785 370.5 793.5 c 128,-1,52
 367 802 367 802 363.5 807.5 c 128,-1,53
 360 813 360 813 356.5 810 c 128,-1,54
 353 807 353 807 351 793 c 1,55,56
 353 781 353 781 357.5 758.5 c 128,-1,57
 362 736 362 736 365 720.5 c 128,-1,58
 368 705 368 705 367 685 c 128,-1,59
 366 665 366 665 360 649 c 1,60,61
 349 643 349 643 350.5 636.5 c 128,-1,62
 352 630 352 630 358.5 624.5 c 128,-1,63
 365 619 365 619 365.5 612.5 c 128,-1,64
 366 606 366 606 354 601 c 1,65,66
 345 581 345 581 343.5 555.5 c 128,-1,67
 342 530 342 530 344.5 514 c 128,-1,68
 347 498 347 498 353 468 c 0,69,70
 357 447 357 447 359.5 403 c 128,-1,71
 362 359 362 359 369 325.5 c 128,-1,72
 376 292 376 292 393 265 c 1,73,74
 397 254 397 254 411 248.5 c 128,-1,75
 425 243 425 243 437 241.5 c 128,-1,76
 449 240 449 240 455 231.5 c 128,-1,77
 461 223 461 223 449 208 c 0,78,79
 439 196 439 196 425.5 188.5 c 128,-1,80
 412 181 412 181 394 178.5 c 128,-1,81
 376 176 376 176 364 175.5 c 128,-1,82
 352 175 352 175 329.5 175.5 c 128,-1,83
 307 176 307 176 299 176 c 1,84,85
 294 177 294 177 284 177 c 128,-1,86
 274 177 274 177 266.5 177 c 128,-1,87
 259 177 259 177 248.5 178.5 c 128,-1,88
 238 180 238 180 232.5 182.5 c 128,-1,89
 227 185 227 185 220.5 189.5 c 128,-1,90
 214 194 214 194 214 202 c 128,-1,91
 214 210 214 210 216 221 c 1,92,93
 219 230 219 230 233 234.5 c 128,-1,94
 247 239 247 239 257.5 246 c 128,-1,95
 268 253 268 253 266 268 c 1,96,97
 312 318 312 318 290 373 c 1,98,99
 286 400 286 400 282 429.5 c 128,-1,100
 278 459 278 459 275.5 486 c 128,-1,101
 273 513 273 513 273 542.5 c 128,-1,102
 273 572 273 572 278 599 c 1,103,104
 292 610 292 610 293 626.5 c 128,-1,105
 294 643 294 643 289 665.5 c 128,-1,106
 284 688 284 688 285 700 c 1,107,108
 284 716 284 716 282 782 c 128,-1,109
 280 848 280 848 271 883 c 1,110,111
 266 892 266 892 252.5 897 c 128,-1,112
 239 902 239 902 226 904 c 128,-1,113
 213 906 213 906 202.5 913.5 c 128,-1,114
 192 921 192 921 192 935 c 1,115,116
 204 962 204 962 225.5 971 c 128,-1,117
 247 980 247 980 272 964 c 1,118,119
 298 975 298 975 325.5 970.5 c 128,-1,120
 353 966 353 966 374 947 c 0,121,122
 413 911 413 911 430 859 c 128,-1,123
 447 807 447 807 455 737 c 1,124,125
 456 712 456 712 484 677 c 128,-1,126
 512 642 512 642 516 622 c 1,127,128
 522 613 522 613 522 595 c 128,-1,129
 522 577 522 577 520.5 562 c 128,-1,130
 519 547 519 547 526.5 537 c 128,-1,131
 534 527 534 527 553 529 c 1,132,133
 565 539 565 539 578.5 574 c 128,-1,134
 592 609 592 609 612 620 c 1,135,136
 614 678 614 678 626 707 c 1,137,138
 631 722 631 722 650 756.5 c 128,-1,139
 669 791 669 791 673 812 c 1,140,141
 676 822 676 822 685 857 c 128,-1,142
 694 892 694 892 703 913 c 128,-1,143
 712 934 712 934 728 951 c 1,144,145
 735 970 735 970 746.5 973 c 128,-1,146
 758 976 758 976 770 968.5 c 128,-1,147
 782 961 782 961 797 957.5 c 128,-1,148
 812 954 812 954 825 960 c 1,149,150
 839 965 839 965 855 958.5 c 128,-1,151
 871 952 871 952 881 940.5 c 128,-1,152
 891 929 891 929 890 914.5 c 128,-1,153
 889 900 889 900 872 891 c 1,154,155
 868 887 868 887 863 878 c 128,-1,156
 858 869 858 869 855 864 c 128,-1,157
 852 859 852 859 845.5 859.5 c 128,-1,158
 839 860 839 860 831 870 c 1,159,160
 819 870 819 870 816 855 c 128,-1,161
 813 840 813 840 816 822.5 c 128,-1,162
 819 805 819 805 816 792 c 1,163,164
 817 630 817 630 822 573 c 1,165,166
 831 564 831 564 832 551.5 c 128,-1,167
 833 539 833 539 830 530 c 128,-1,168
 827 521 827 521 820.5 506 c 128,-1,169
 814 491 814 491 812 486 c 1,170,171
 804 382 804 382 833 275 c 1,172,173
 834 259 834 259 846 254 c 128,-1,174
 858 249 858 249 871.5 250.5 c 128,-1,175
 885 252 885 252 894.5 246 c 128,-1,176
 904 240 904 240 901 222 c 1,177,178
 914 211 914 211 913 203.5 c 128,-1,179
 912 196 912 196 898 190 c 128,-1,180
 884 184 884 184 871 181.5 c 128,-1,181
 858 179 858 179 847 177 c 0,182,183
 829 175 829 175 812 173 c 128,-1,184
 795 171 795 171 777 169.5 c 128,-1,185
 759 168 759 168 742.5 167.5 c 128,-1,186
 726 167 726 167 708 168 c 128,-1,187
 690 169 690 169 673 172 c 1,0,1
EndSplineSet
Validated: 2097185
EndChar

StartChar: glyph
Encoding: 78 78 46
Width: 734
GlyphClass: 2
Flags: W
LayerCount: 2
Fore
SplineSet
337 983 m 0,0,1
 327 983 327 983 319 972 c 1,2,3
 312 957 312 957 303 954.5 c 128,-1,4
 294 952 294 952 285.5 958 c 128,-1,5
 277 964 277 964 266 970 c 128,-1,6
 255 976 255 976 247 974 c 1,7,8
 245 972 245 972 228 955.5 c 128,-1,9
 211 939 211 939 205 926.5 c 128,-1,10
 199 914 199 914 205 903 c 1,11,12
 227 902 227 902 237 902.5 c 128,-1,13
 247 903 247 903 269 907 c 128,-1,14
 291 911 291 911 300 912 c 1,15,16
 305 793 305 793 306 751 c 0,17,18
 307 687 307 687 293 655 c 1,19,20
 311 595 311 595 305 559 c 1,21,22
 296 488 296 488 309 351 c 1,23,24
 318 286 318 286 284 262 c 1,25,26
 246 221 246 221 207 216 c 1,27,28
 187 196 187 196 208 181.5 c 128,-1,29
 229 167 229 167 252 171 c 1,30,31
 287 169 287 169 338 170 c 1,32,33
 353 169 353 169 385 172 c 128,-1,34
 417 175 417 175 433 174 c 1,35,36
 452 162 452 162 462 170 c 128,-1,37
 472 178 472 178 471.5 195 c 128,-1,38
 471 212 471 212 471 227 c 1,39,40
 476 244 476 244 465.5 255.5 c 128,-1,41
 455 267 455 267 440 264 c 128,-1,42
 425 261 425 261 420 245 c 1,43,44
 401 238 401 238 397.5 247 c 128,-1,45
 394 256 394 256 397 271.5 c 128,-1,46
 400 287 400 287 390 297 c 1,47,48
 380 336 380 336 375.5 411 c 128,-1,49
 371 486 371 486 366 513 c 1,50,51
 366 528 366 528 361.5 550 c 128,-1,52
 357 572 357 572 353.5 588 c 128,-1,53
 350 604 350 604 350 624.5 c 128,-1,54
 350 645 350 645 356 662 c 1,55,56
 368 689 368 689 374 742 c 128,-1,57
 380 795 380 795 387 816 c 1,58,59
 388 845 388 845 403 822 c 0,60,61
 410 812 410 812 413 802 c 1,62,63
 419 792 419 792 422 772.5 c 128,-1,64
 425 753 425 753 430.5 739 c 128,-1,65
 436 725 436 725 452 719 c 1,66,67
 462 704 462 704 471 687 c 128,-1,68
 480 670 480 670 490 645.5 c 128,-1,69
 500 621 500 621 504 611 c 0,70,71
 510 593 510 593 513 598 c 1,72,73
 521 553 521 553 542 529 c 1,74,75
 550 524 550 524 558 520 c 128,-1,76
 566 516 566 516 573 510 c 128,-1,77
 580 504 580 504 585.5 498 c 128,-1,78
 591 492 591 492 594 483 c 128,-1,79
 597 474 597 474 597 464 c 1,80,81
 614 299 614 299 695 205 c 0,82,83
 709 189 709 189 718 187 c 0,84,85
 759 177 759 177 757 248 c 1,86,87
 761 424 761 424 753 654 c 1,88,89
 754 664 754 664 749 696 c 128,-1,90
 744 728 744 728 752 737 c 1,91,92
 757 769 757 769 757 783 c 128,-1,93
 757 797 757 797 753.5 829.5 c 128,-1,94
 750 862 750 862 749 876 c 1,95,96
 743 894 743 894 754.5 901.5 c 128,-1,97
 766 909 766 909 783 902 c 0,98,99
 795 897 795 897 805.5 901.5 c 128,-1,100
 816 906 816 906 823 914 c 128,-1,101
 830 922 830 922 841 926 c 128,-1,102
 852 930 852 930 863 922 c 1,103,104
 868 935 868 935 846 944.5 c 128,-1,105
 824 954 824 954 809 947 c 1,106,107
 789 971 789 971 735 967 c 1,108,109
 685 969 685 969 643 923 c 1,110,111
 630 914 630 914 633 907.5 c 128,-1,112
 636 901 636 901 644 899 c 128,-1,113
 652 897 652 897 663.5 892.5 c 128,-1,114
 675 888 675 888 678 882 c 0,115,116
 683 873 683 873 686 862 c 128,-1,117
 689 851 689 851 690.5 841 c 128,-1,118
 692 831 692 831 693 819.5 c 128,-1,119
 694 808 694 808 694 797.5 c 128,-1,120
 694 787 694 787 695 776 c 0,121,122
 695 769 695 769 692 747.5 c 128,-1,123
 689 726 689 726 691.5 712.5 c 128,-1,124
 694 699 694 699 704 688 c 1,125,126
 697 671 697 671 694 650.5 c 128,-1,127
 691 630 691 630 691.5 612 c 128,-1,128
 692 594 692 594 692 573 c 1,129,130
 690 554 690 554 700 519.5 c 128,-1,131
 710 485 710 485 711 480 c 1,132,133
 701 476 701 476 698.5 463.5 c 128,-1,134
 696 451 696 451 697 439 c 128,-1,135
 698 427 698 427 693.5 417 c 128,-1,136
 689 407 689 407 676 406 c 1,137,138
 659 414 659 414 653 428.5 c 128,-1,139
 647 443 647 443 645.5 465.5 c 128,-1,140
 644 488 644 488 642 497 c 1,141,142
 580 559 580 559 552.5 604.5 c 128,-1,143
 525 650 525 650 530 694 c 1,144,145
 535 705 535 705 535 711 c 128,-1,146
 535 717 535 717 530 723 c 128,-1,147
 525 729 525 729 519.5 732.5 c 128,-1,148
 514 736 514 736 506.5 741.5 c 128,-1,149
 499 747 499 747 495 751 c 1,150,151
 498 761 498 761 491 767 c 128,-1,152
 484 773 484 773 478 775.5 c 128,-1,153
 472 778 472 778 478 787 c 1,154,155
 486 796 486 796 487 805 c 128,-1,156
 488 814 488 814 483.5 823 c 128,-1,157
 479 832 479 832 473.5 840.5 c 128,-1,158
 468 849 468 849 461.5 858.5 c 128,-1,159
 455 868 455 868 453 876 c 1,160,161
 449 881 449 881 433 917 c 128,-1,162
 417 953 417 953 399 965 c 1,163,164
 386 962 386 962 365 972.5 c 128,-1,165
 344 983 344 983 337 983 c 0,0,1
EndSplineSet
Validated: 2097193
EndChar

StartChar: glyph
Encoding: 79 79 47
Width: 734
GlyphClass: 2
Flags: W
LayerCount: 2
Fore
SplineSet
448 176 m 1,0,1
 432 173 432 173 420.5 183 c 128,-1,2
 409 193 409 193 403.5 206 c 128,-1,3
 398 219 398 219 387 227 c 128,-1,4
 376 235 376 235 361 229 c 1,5,6
 345 231 345 231 336 248 c 128,-1,7
 327 265 327 265 319 287.5 c 128,-1,8
 311 310 311 310 301 320 c 1,9,10
 267 371 267 371 262 426 c 1,11,12
 245 447 245 447 235.5 480.5 c 128,-1,13
 226 514 226 514 222 540 c 1,14,15
 211 545 211 545 212 553.5 c 128,-1,16
 213 562 213 562 219.5 569 c 128,-1,17
 226 576 226 576 230.5 587 c 128,-1,18
 235 598 235 598 231 607 c 1,19,20
 232 637 232 637 233 655 c 128,-1,21
 234 673 234 673 240.5 698 c 128,-1,22
 247 723 247 723 260 741 c 1,23,24
 267 753 267 753 278 790 c 128,-1,25
 289 827 289 827 304 844 c 1,26,27
 376 956 376 956 477 982 c 1,28,29
 558 1000 558 1000 636 981 c 1,30,31
 646 975 646 975 664.5 965 c 128,-1,32
 683 955 683 955 697.5 945.5 c 128,-1,33
 712 936 712 936 723 925 c 0,34,35
 741 907 741 907 764 880.5 c 128,-1,36
 787 854 787 854 797 830 c 0,37,38
 800 822 800 822 817.5 776 c 128,-1,39
 835 730 835 730 836 703 c 1,40,41
 846 683 846 683 851 668.5 c 128,-1,42
 856 654 856 654 856 634.5 c 128,-1,43
 856 615 856 615 847 599 c 1,44,45
 869 564 869 564 848 496 c 0,46,47
 846 489 846 489 840.5 462.5 c 128,-1,48
 835 436 835 436 828.5 420 c 128,-1,49
 822 404 822 404 809 392 c 1,50,51
 803 382 803 382 783.5 329.5 c 128,-1,52
 764 277 764 277 741 257 c 1,53,54
 715 201 715 201 675 217 c 1,55,56
 667 218 667 218 658.5 210.5 c 128,-1,57
 650 203 650 203 645.5 195.5 c 128,-1,58
 641 188 641 188 632.5 185.5 c 128,-1,59
 624 183 624 183 616 194 c 1,60,61
 546 171 546 171 513 174 c 1,62,63
 480 173 480 173 448 176 c 1,0,1
625 250 m 1,64,65
 632 257 632 257 640.5 254 c 128,-1,66
 649 251 649 251 656 244 c 128,-1,67
 663 237 663 237 671 238.5 c 128,-1,68
 679 240 679 240 685 255 c 0,69,70
 692 271 692 271 689 287.5 c 128,-1,71
 686 304 686 304 692 318.5 c 128,-1,72
 698 333 698 333 719 336 c 1,73,74
 722 339 722 339 730.5 356.5 c 128,-1,75
 739 374 739 374 753 376 c 1,76,77
 760 395 760 395 762.5 415 c 128,-1,78
 765 435 765 435 766 467 c 128,-1,79
 767 499 767 499 767 507 c 1,80,81
 770 529 770 529 764 569 c 128,-1,82
 758 609 758 609 757 617 c 0,83,84
 754 719 754 719 715 788 c 1,85,86
 709 793 709 793 695.5 794.5 c 128,-1,87
 682 796 682 796 673.5 801 c 128,-1,88
 665 806 665 806 665 821 c 1,89,90
 661 849 661 849 641.5 867 c 128,-1,91
 622 885 622 885 595 885 c 1,92,93
 589 887 589 887 571.5 900 c 128,-1,94
 554 913 554 913 544 912 c 128,-1,95
 534 911 534 911 526 892 c 1,96,97
 518 888 518 888 500.5 885 c 128,-1,98
 483 882 483 882 474.5 874.5 c 128,-1,99
 466 867 466 867 466 849 c 1,100,101
 455 819 455 819 415 843 c 1,102,103
 406 836 406 836 403 816.5 c 128,-1,104
 400 797 400 797 392.5 785.5 c 128,-1,105
 385 774 385 774 364 779 c 1,106,107
 349 778 349 778 349.5 763 c 128,-1,108
 350 748 350 748 350 731 c 128,-1,109
 350 714 350 714 333 709 c 1,110,111
 317 697 317 697 312 676.5 c 128,-1,112
 307 656 307 656 310.5 636.5 c 128,-1,113
 314 617 314 617 315 597 c 1,114,115
 317 585 317 585 322 554 c 128,-1,116
 327 523 327 523 330.5 507 c 128,-1,117
 334 491 334 491 342.5 467.5 c 128,-1,118
 351 444 351 444 364 427 c 1,119,120
 382 414 382 414 392.5 380.5 c 128,-1,121
 403 347 403 347 411 336 c 1,122,123
 422 330 422 330 429.5 313 c 128,-1,124
 437 296 437 296 445.5 284.5 c 128,-1,125
 454 273 454 273 468 275 c 1,126,127
 483 284 483 284 494 278 c 128,-1,128
 505 272 505 272 510 261 c 128,-1,129
 515 250 515 250 525.5 241 c 128,-1,130
 536 232 536 232 551 236 c 1,131,132
 603 235 603 235 625 250 c 1,64,65
EndSplineSet
Validated: 2097185
EndChar

StartChar: glyph
Encoding: 80 80 48
Width: 734
GlyphClass: 2
Flags: W
LayerCount: 2
Fore
SplineSet
227 176 m 1,0,1
 207 199 207 199 222.5 219 c 128,-1,2
 238 239 238 239 265 238 c 1,3,4
 341 285 341 285 339 337 c 0,5,6
 338 359 338 359 335.5 424 c 128,-1,7
 333 489 333 489 333 521.5 c 128,-1,8
 333 554 333 554 338 605 c 128,-1,9
 343 656 343 656 355 697 c 1,10,11
 360 708 360 708 354.5 713.5 c 128,-1,12
 349 719 349 719 340 719.5 c 128,-1,13
 331 720 331 720 328.5 725 c 128,-1,14
 326 730 326 730 337 740 c 1,15,16
 352 789 352 789 341 874 c 1,17,18
 332 890 332 890 297 894 c 128,-1,19
 262 898 262 898 250 907 c 1,20,21
 229 911 229 911 225 926 c 128,-1,22
 221 941 221 941 233.5 954 c 128,-1,23
 246 967 246 967 264 964 c 1,24,25
 323 967 323 967 369 945 c 1,26,27
 381 936 381 936 409.5 949 c 128,-1,28
 438 962 438 962 452 959 c 1,29,30
 469 960 469 960 488.5 961.5 c 128,-1,31
 508 963 508 963 526 963.5 c 128,-1,32
 544 964 544 964 563 962.5 c 128,-1,33
 582 961 582 961 600 958 c 1,34,35
 608 951 608 951 630.5 950 c 128,-1,36
 653 949 653 949 662 937 c 1,37,38
 680 939 680 939 705 920.5 c 128,-1,39
 730 902 730 902 744 901 c 1,40,41
 761 897 761 897 772.5 883 c 128,-1,42
 784 869 784 869 795 849 c 128,-1,43
 806 829 806 829 815 820 c 256,44,45
 824 811 824 811 829 805.5 c 128,-1,46
 834 800 834 800 841 789.5 c 128,-1,47
 848 779 848 779 850 772 c 128,-1,48
 852 765 852 765 854 753 c 128,-1,49
 856 741 856 741 851 733 c 1,50,51
 848 701 848 701 822 638 c 0,52,53
 819 631 819 631 815.5 617.5 c 128,-1,54
 812 604 812 604 809 595 c 128,-1,55
 806 586 806 586 800 576.5 c 128,-1,56
 794 567 794 567 785 562.5 c 128,-1,57
 776 558 776 558 763 559 c 1,58,59
 754 556 754 556 744 546.5 c 128,-1,60
 734 537 734 537 727 530 c 128,-1,61
 720 523 720 523 710.5 523 c 128,-1,62
 701 523 701 523 690 536 c 1,63,64
 683 533 683 533 673 518.5 c 128,-1,65
 663 504 663 504 651.5 494 c 128,-1,66
 640 484 640 484 624 488 c 1,67,68
 526 482 526 482 479 493 c 1,69,70
 454 510 454 510 433 493.5 c 128,-1,71
 412 477 412 477 413 449 c 1,72,73
 397 340 397 340 431 255 c 1,74,75
 441 226 441 226 471 214.5 c 128,-1,76
 501 203 501 203 521 230 c 1,77,78
 537 237 537 237 546.5 230.5 c 128,-1,79
 556 224 556 224 559 213 c 128,-1,80
 562 202 562 202 555 189.5 c 128,-1,81
 548 177 548 177 533 174 c 1,82,83
 485 145 485 145 438 168 c 1,84,85
 358 157 358 157 333 158 c 1,86,87
 310 156 310 156 277.5 158 c 128,-1,88
 245 160 245 160 227 176 c 1,0,1
545 549 m 1,89,90
 568 559 568 559 615 555.5 c 128,-1,91
 662 552 662 552 687 558 c 1,92,93
 694 566 694 566 722 587 c 128,-1,94
 750 608 750 608 759 625 c 2,95,96
 759 625 759 625 770.5 646 c 128,-1,97
 782 667 782 667 785 675 c 128,-1,98
 788 683 788 683 788.5 697 c 128,-1,99
 789 711 789 711 780 720 c 1,100,101
 770 736 770 736 774 752.5 c 128,-1,102
 778 769 778 769 776 788 c 128,-1,103
 774 807 774 807 758 816 c 1,104,105
 743 819 743 819 732.5 832.5 c 128,-1,106
 722 846 722 846 717.5 860 c 128,-1,107
 713 874 713 874 702 882.5 c 128,-1,108
 691 891 691 891 674 886 c 1,109,110
 647 885 647 885 602.5 891.5 c 128,-1,111
 558 898 558 898 531 900.5 c 128,-1,112
 504 903 504 903 461 893 c 0,113,114
 456 891 456 891 442.5 886 c 128,-1,115
 429 881 429 881 422.5 877.5 c 128,-1,116
 416 874 416 874 409 864.5 c 128,-1,117
 402 855 402 855 401 841 c 1,118,119
 389 788 389 788 412 700 c 1,120,121
 413 689 413 689 404 676.5 c 128,-1,122
 395 664 395 664 386 656.5 c 128,-1,123
 377 649 377 649 374.5 637 c 128,-1,124
 372 625 372 625 386 615 c 1,125,126
 388 587 388 587 401.5 569.5 c 128,-1,127
 415 552 415 552 442 553 c 0,128,129
 452 553 452 553 468 549.5 c 128,-1,130
 484 546 484 546 496 543 c 128,-1,131
 508 540 508 540 521.5 541 c 128,-1,132
 535 542 535 542 545 549 c 1,89,90
EndSplineSet
Validated: 2097185
EndChar

StartChar: glyph
Encoding: 81 81 49
Width: 734
GlyphClass: 2
Flags: W
LayerCount: 2
Fore
SplineSet
650 -18 m 1,0,1
 632 5 632 5 616.5 58.5 c 128,-1,2
 601 112 601 112 596 122 c 1,3,4
 599 147 599 147 586.5 161.5 c 128,-1,5
 574 176 574 176 557 151 c 1,6,7
 540 146 540 146 521 148.5 c 128,-1,8
 502 151 502 151 486 158 c 128,-1,9
 470 165 470 165 452.5 173.5 c 128,-1,10
 435 182 435 182 421 190 c 1,11,12
 350 214 350 214 311 273 c 1,13,14
 287 305 287 305 277 318.5 c 128,-1,15
 267 332 267 332 254 361 c 128,-1,16
 241 390 241 390 240 416 c 1,17,18
 229 493 229 493 207 541 c 1,19,20
 216 557 216 557 217 578.5 c 128,-1,21
 218 600 218 600 214.5 618 c 128,-1,22
 211 636 211 636 213.5 657 c 128,-1,23
 216 678 216 678 229 694 c 1,24,25
 230 722 230 722 231.5 736 c 128,-1,26
 233 750 233 750 237.5 773 c 128,-1,27
 242 796 242 796 252 813 c 128,-1,28
 262 830 262 830 278 843 c 1,29,30
 304 915 304 915 377 950 c 0,31,32
 391 957 391 957 396 960 c 128,-1,33
 401 963 401 963 413.5 969.5 c 128,-1,34
 426 976 426 976 434 978 c 128,-1,35
 442 980 442 980 453.5 983 c 128,-1,36
 465 986 465 986 475 985.5 c 128,-1,37
 485 985 485 985 496 982 c 1,38,39
 519 973 519 973 564.5 972.5 c 128,-1,40
 610 972 610 972 620 970 c 1,41,42
 634 955 634 955 650 942 c 128,-1,43
 666 929 666 929 691 910.5 c 128,-1,44
 716 892 716 892 723 886 c 1,45,46
 747 857 747 857 762 809.5 c 128,-1,47
 777 762 777 762 784 726 c 1,48,49
 798 638 798 638 797 439 c 0,50,51
 796 367 796 367 758 324 c 1,52,53
 696 247 696 247 675 182 c 1,54,55
 664 144 664 144 672.5 106 c 128,-1,56
 681 68 681 68 705 36 c 1,57,58
 718 27 718 27 731.5 28.5 c 128,-1,59
 745 30 745 30 754.5 35 c 128,-1,60
 764 40 764 40 774.5 51 c 128,-1,61
 785 62 785 62 792.5 71.5 c 128,-1,62
 800 81 800 81 810 93 c 128,-1,63
 820 105 820 105 827 112 c 0,64,65
 844 130 844 130 858 123.5 c 128,-1,66
 872 117 872 117 872.5 99.5 c 128,-1,67
 873 82 873 82 862 67 c 1,68,69
 852 48 852 48 839.5 12.5 c 128,-1,70
 827 -23 827 -23 822 -35 c 1,71,72
 805 -22 805 -22 754 -34.5 c 128,-1,73
 703 -47 703 -47 681 -39 c 1,74,75
 655 -33 655 -33 650 -18 c 1,0,1
473 236 m 1,76,77
 481 233 481 233 489 239 c 128,-1,78
 497 245 497 245 502.5 253 c 128,-1,79
 508 261 508 261 514 267 c 128,-1,80
 520 273 520 273 526 271 c 128,-1,81
 532 269 532 269 539 254 c 1,82,83
 556 247 556 247 576.5 248 c 128,-1,84
 597 249 597 249 612 263.5 c 128,-1,85
 627 278 627 278 621 298 c 1,86,87
 625 333 625 333 606.5 360 c 128,-1,88
 588 387 588 387 555 385 c 1,89,90
 542 401 542 401 527 404.5 c 128,-1,91
 512 408 512 408 498.5 401.5 c 128,-1,92
 485 395 485 395 470.5 386 c 128,-1,93
 456 377 456 377 444 367 c 0,94,95
 430 356 430 356 415.5 340 c 128,-1,96
 401 324 401 324 390.5 308.5 c 128,-1,97
 380 293 380 293 382.5 275.5 c 128,-1,98
 385 258 385 258 406 244 c 1,99,100
 414 233 414 233 425 231 c 128,-1,101
 436 229 436 229 451.5 232.5 c 128,-1,102
 467 236 467 236 473 236 c 1,76,77
695 371 m 0,103,104
 696 388 696 388 709.5 409 c 128,-1,105
 723 430 723 430 731.5 450 c 128,-1,106
 740 470 740 470 731 491 c 1,107,108
 732 570 732 570 725 692 c 1,109,110
 721 704 721 704 712 733.5 c 128,-1,111
 703 763 703 763 697 779.5 c 128,-1,112
 691 796 691 796 680.5 819 c 128,-1,113
 670 842 670 842 655.5 858.5 c 128,-1,114
 641 875 641 875 622 887 c 1,115,116
 609 897 609 897 593 900.5 c 128,-1,117
 577 904 577 904 555.5 905 c 128,-1,118
 534 906 534 906 524 908 c 1,119,120
 488 924 488 924 452 912 c 128,-1,121
 416 900 416 900 393 871 c 1,122,123
 371 864 371 864 354.5 848.5 c 128,-1,124
 338 833 338 833 327.5 810.5 c 128,-1,125
 317 788 317 788 311.5 769 c 128,-1,126
 306 750 306 750 301 724 c 1,127,128
 296 707 296 707 296 677 c 128,-1,129
 296 647 296 647 291.5 623 c 128,-1,130
 287 599 287 599 272 582 c 1,131,132
 259 561 259 561 271.5 537.5 c 128,-1,133
 284 514 284 514 301 500 c 1,134,135
 283 484 283 484 287.5 464.5 c 128,-1,136
 292 445 292 445 316 445 c 1,137,138
 321 438 321 438 328 411.5 c 128,-1,139
 335 385 335 385 345 373 c 128,-1,140
 355 361 355 361 372 372 c 1,141,142
 374 388 374 388 384.5 397 c 128,-1,143
 395 406 395 406 406.5 409 c 128,-1,144
 418 412 418 412 429.5 420 c 128,-1,145
 441 428 441 428 443 440 c 1,146,147
 452 459 452 459 470.5 462 c 128,-1,148
 489 465 489 465 505.5 458.5 c 128,-1,149
 522 452 522 452 545.5 441 c 128,-1,150
 569 430 569 430 579 428 c 1,151,152
 616 416 616 416 638.5 390 c 128,-1,153
 661 364 661 364 666 327 c 1,154,155
 676 312 676 312 682 323 c 128,-1,156
 688 334 688 334 691.5 348.5 c 128,-1,157
 695 363 695 363 695 371 c 0,103,104
EndSplineSet
Validated: 2097185
EndChar

StartChar: glyph
Encoding: 82 82 50
Width: 734
GlyphClass: 2
Flags: W
LayerCount: 2
Fore
SplineSet
312 164 m 0,0,1
 301 174 301 174 277.5 174 c 128,-1,2
 254 174 254 174 235.5 178 c 128,-1,3
 217 182 217 182 211 201 c 1,4,5
 210 219 210 219 221 226.5 c 128,-1,6
 232 234 232 234 246.5 232.5 c 128,-1,7
 261 231 261 231 274 223 c 1,8,9
 286 226 286 226 296 234 c 128,-1,10
 306 242 306 242 317.5 255 c 128,-1,11
 329 268 329 268 335 273 c 1,12,13
 331 275 331 275 319 278 c 128,-1,14
 307 281 307 281 300 285.5 c 128,-1,15
 293 290 293 290 291 298 c 1,16,17
 315 378 315 378 304 497 c 0,18,19
 304 503 304 503 300 512.5 c 128,-1,20
 296 522 296 522 292.5 528 c 128,-1,21
 289 534 289 534 291.5 541 c 128,-1,22
 294 548 294 548 304 553 c 1,23,24
 307 563 307 563 307 603 c 128,-1,25
 307 643 307 643 325 659 c 1,26,27
 324 674 324 674 316 711 c 128,-1,28
 308 748 308 748 310 768 c 0,29,30
 312 784 312 784 309 800 c 128,-1,31
 306 816 306 816 298 836.5 c 128,-1,32
 290 857 290 857 287 866 c 1,33,34
 287 876 287 876 279 879.5 c 128,-1,35
 271 883 271 883 261.5 882 c 128,-1,36
 252 881 252 881 241 883.5 c 128,-1,37
 230 886 230 886 225 895 c 1,38,39
 204 909 204 909 212 923.5 c 128,-1,40
 220 938 220 938 238.5 948.5 c 128,-1,41
 257 959 257 959 273 961 c 1,42,43
 301 953 301 953 343 951.5 c 128,-1,44
 385 950 385 950 414 951 c 0,45,46
 428 951 428 951 443.5 951.5 c 128,-1,47
 459 952 459 952 472.5 953 c 128,-1,48
 486 954 486 954 501 956.5 c 128,-1,49
 516 959 516 959 529 964 c 1,50,51
 536 963 536 963 551.5 955.5 c 128,-1,52
 567 948 567 948 577.5 949 c 128,-1,53
 588 950 588 950 597 963 c 1,54,55
 607 967 607 967 614 958.5 c 128,-1,56
 621 950 621 950 624 940.5 c 128,-1,57
 627 931 627 931 635 928 c 128,-1,58
 643 925 643 925 654 938 c 1,59,60
 664 947 664 947 674 947.5 c 128,-1,61
 684 948 684 948 693.5 942.5 c 128,-1,62
 703 937 703 937 711 929.5 c 128,-1,63
 719 922 719 922 729 914 c 128,-1,64
 739 906 739 906 747 903 c 1,65,66
 763 902 763 902 772.5 888.5 c 128,-1,67
 782 875 782 875 790 856 c 128,-1,68
 798 837 798 837 807 829 c 1,69,70
 819 811 819 811 824.5 787.5 c 128,-1,71
 830 764 830 764 831 750 c 128,-1,72
 832 736 832 736 831 702.5 c 128,-1,73
 830 669 830 669 830 662 c 0,74,75
 832 643 832 643 822.5 628 c 128,-1,76
 813 613 813 613 796.5 598 c 128,-1,77
 780 583 780 583 773 571 c 1,78,79
 768 559 768 559 755 552.5 c 128,-1,80
 742 546 742 546 729 544 c 128,-1,81
 716 542 716 542 704.5 533 c 128,-1,82
 693 524 693 524 691 508 c 1,83,84
 688 501 688 501 677.5 496 c 128,-1,85
 667 491 667 491 660 488.5 c 128,-1,86
 653 486 653 486 651 479.5 c 128,-1,87
 649 473 649 473 663 464 c 1,88,89
 689 458 689 458 703.5 439 c 128,-1,90
 718 420 718 420 719 394 c 1,91,92
 725 366 725 366 729 340 c 128,-1,93
 733 314 733 314 746 288 c 128,-1,94
 759 262 759 262 781 247 c 1,95,96
 786 241 786 241 795.5 235.5 c 128,-1,97
 805 230 805 230 813 225.5 c 128,-1,98
 821 221 821 221 827 215 c 128,-1,99
 833 209 833 209 832 201 c 128,-1,100
 831 193 831 193 822 183 c 0,101,102
 811 171 811 171 794 161 c 128,-1,103
 777 151 777 151 759 151.5 c 128,-1,104
 741 152 741 152 734 169 c 1,105,106
 694 181 694 181 669 239 c 0,107,108
 666 245 666 245 659 255.5 c 128,-1,109
 652 266 652 266 649 272 c 128,-1,110
 646 278 646 278 647 287.5 c 128,-1,111
 648 297 648 297 656 305 c 1,112,113
 653 318 653 318 645 342 c 128,-1,114
 637 366 637 366 633 385.5 c 128,-1,115
 629 405 629 405 629 424 c 1,116,117
 627 435 627 435 618 442 c 128,-1,118
 609 449 609 449 598.5 451 c 128,-1,119
 588 453 588 453 577.5 459 c 128,-1,120
 567 465 567 465 564 476 c 1,121,122
 511 484 511 484 467 505 c 1,123,124
 450 517 450 517 434 514.5 c 128,-1,125
 418 512 418 512 416 490 c 1,126,127
 407 481 407 481 397.5 469 c 128,-1,128
 388 457 388 457 382 443.5 c 128,-1,129
 376 430 376 430 381.5 420 c 128,-1,130
 387 410 387 410 407 408 c 1,131,132
 413 399 413 399 404 392.5 c 128,-1,133
 395 386 395 386 386 378 c 128,-1,134
 377 370 377 370 382 356 c 1,135,136
 383 349 383 349 382 321 c 128,-1,137
 381 293 381 293 384 275 c 128,-1,138
 387 257 387 257 397 245 c 1,139,140
 403 242 403 242 441 231 c 128,-1,141
 479 220 479 220 492 202 c 0,142,143
 502 188 502 188 496.5 174.5 c 128,-1,144
 491 161 491 161 478.5 160.5 c 128,-1,145
 466 160 466 160 453 174 c 0,146,147
 444 184 444 184 433.5 185 c 128,-1,148
 423 186 423 186 414 181 c 128,-1,149
 405 176 405 176 392 172.5 c 128,-1,150
 379 169 379 169 368 172 c 1,151,152
 357 173 357 173 350 167.5 c 128,-1,153
 343 162 343 162 340.5 156 c 128,-1,154
 338 150 338 150 331 151 c 128,-1,155
 324 152 324 152 312 164 c 0,0,1
538 573 m 1,156,157
 552 564 552 564 592 566 c 128,-1,158
 632 568 632 568 644 551 c 1,159,160
 646 556 646 556 650 581 c 128,-1,161
 654 606 654 606 663 616.5 c 128,-1,162
 672 627 672 627 693 618 c 1,163,164
 703 620 703 620 706 631 c 128,-1,165
 709 642 709 642 707.5 654 c 128,-1,166
 706 666 706 666 711 676.5 c 128,-1,167
 716 687 716 687 729 688 c 1,168,169
 759 726 759 726 739 809 c 1,170,171
 735 819 735 819 724.5 826.5 c 128,-1,172
 714 834 714 834 703.5 838 c 128,-1,173
 693 842 693 842 683.5 851 c 128,-1,174
 674 860 674 860 671 873 c 1,175,176
 663 885 663 885 651.5 890.5 c 128,-1,177
 640 896 640 896 627 896.5 c 128,-1,178
 614 897 614 897 600 896 c 128,-1,179
 586 895 586 895 574 893 c 1,180,181
 562 885 562 885 546.5 883.5 c 128,-1,182
 531 882 531 882 520.5 884.5 c 128,-1,183
 510 887 510 887 493 892 c 1,184,185
 487 872 487 872 470.5 877.5 c 128,-1,186
 454 883 454 883 449 898 c 1,187,188
 422 893 422 893 405 868.5 c 128,-1,189
 388 844 388 844 392 817 c 1,190,191
 381 799 381 799 380.5 768.5 c 128,-1,192
 380 738 380 738 381 717 c 1,193,194
 380 689 380 689 384 651.5 c 128,-1,195
 388 614 388 614 402 590 c 1,196,197
 414 574 414 574 449.5 569.5 c 128,-1,198
 485 565 485 565 496 552 c 1,199,200
 501 554 501 554 506.5 560.5 c 128,-1,201
 512 567 512 567 516 572 c 128,-1,202
 520 577 520 577 526 578.5 c 128,-1,203
 532 580 532 580 538 573 c 1,156,157
EndSplineSet
Validated: 2097185
EndChar

StartChar: glyph
Encoding: 83 83 51
Width: 734
GlyphClass: 2
Flags: W
LayerCount: 2
Fore
SplineSet
457 176 m 2,0,1
 446 189 446 189 412 193.5 c 128,-1,2
 378 198 378 198 367 217 c 1,3,4
 362 222 362 222 336.5 244.5 c 128,-1,5
 311 267 311 267 306 272 c 1,6,7
 296 261 296 261 294 225.5 c 128,-1,8
 292 190 292 190 290 182 c 1,9,10
 262 167 262 167 240.5 186.5 c 128,-1,11
 219 206 219 206 226 237 c 1,12,13
 223 255 223 255 228 285 c 128,-1,14
 233 315 233 315 228 336 c 1,15,16
 229 344 229 344 229 371.5 c 128,-1,17
 229 399 229 399 231.5 417 c 128,-1,18
 234 435 234 435 241 450 c 1,19,20
 262 469 262 469 278 462.5 c 128,-1,21
 294 456 294 456 303 431 c 1,22,23
 306 368 306 368 337 340 c 1,24,25
 353 320 353 320 397 298 c 128,-1,26
 441 276 441 276 468 273 c 1,27,28
 490 256 490 256 518 250.5 c 128,-1,29
 546 245 546 245 573 254 c 1,30,31
 581 265 581 265 599 272.5 c 128,-1,32
 617 280 617 280 631.5 289 c 128,-1,33
 646 298 646 298 649 316 c 1,34,35
 658 324 658 324 677 334.5 c 128,-1,36
 696 345 696 345 707.5 356.5 c 128,-1,37
 719 368 719 368 720 387 c 1,38,39
 758 443 758 443 733 482 c 1,40,41
 700 520 700 520 647 529 c 1,42,43
 635 527 635 527 627 526.5 c 128,-1,44
 619 526 619 526 607.5 529.5 c 128,-1,45
 596 533 596 533 588.5 536 c 128,-1,46
 581 539 581 539 569 544 c 128,-1,47
 557 549 557 549 550 552 c 1,48,49
 538 561 538 561 523 562.5 c 128,-1,50
 508 564 508 564 495 560.5 c 128,-1,51
 482 557 482 557 468 554 c 1,52,53
 454 571 454 571 418 579 c 128,-1,54
 382 587 382 587 372 594 c 1,55,56
 365 612 365 612 345.5 634 c 128,-1,57
 326 656 326 656 312.5 677 c 128,-1,58
 299 698 299 698 300 722 c 0,59,60
 300 724 300 724 301 860 c 1,61,62
 309 866 309 866 333.5 888 c 128,-1,63
 358 910 358 910 376 923 c 128,-1,64
 394 936 394 936 413 945 c 1,65,66
 427 946 427 946 459 962 c 128,-1,67
 491 978 491 978 511 975 c 1,68,69
 546 975 546 975 607 958 c 128,-1,70
 668 941 668 941 679 938 c 1,71,72
 686 939 686 939 708 951 c 128,-1,73
 730 963 730 963 747 954 c 1,74,75
 776 949 776 949 789 927.5 c 128,-1,76
 802 906 802 906 784 881 c 1,77,78
 789 871 789 871 786.5 856.5 c 128,-1,79
 784 842 784 842 780 833 c 128,-1,80
 776 824 776 824 770 810 c 128,-1,81
 764 796 764 796 761 786 c 1,82,83
 761 758 761 758 743.5 741.5 c 128,-1,84
 726 725 726 725 706 751 c 1,85,86
 694 760 694 760 693 776 c 128,-1,87
 692 792 692 792 696.5 806 c 128,-1,88
 701 820 701 820 699 835 c 128,-1,89
 697 850 697 850 683 858 c 1,90,91
 669 873 669 873 613 877.5 c 128,-1,92
 557 882 557 882 544 892 c 1,93,94
 536 900 536 900 527 896.5 c 128,-1,95
 518 893 518 893 511 885.5 c 128,-1,96
 504 878 504 878 493 873.5 c 128,-1,97
 482 869 482 869 472 873 c 1,98,99
 450 878 450 878 441.5 864 c 128,-1,100
 433 850 433 850 437 829 c 1,101,102
 432 823 432 823 418 814 c 128,-1,103
 404 805 404 805 397.5 795.5 c 128,-1,104
 391 786 391 786 394 770 c 1,105,106
 395 746 395 746 396 732 c 128,-1,107
 397 718 397 718 404 698.5 c 128,-1,108
 411 679 411 679 424 667 c 1,109,110
 440 666 440 666 471 650.5 c 128,-1,111
 502 635 502 635 521 637 c 1,112,113
 539 640 539 640 569.5 620 c 128,-1,114
 600 600 600 600 621 609 c 1,115,116
 638 609 638 609 654 609 c 128,-1,117
 670 609 670 609 687 604.5 c 128,-1,118
 704 600 704 600 715 590 c 1,119,120
 724 570 724 570 756.5 545.5 c 128,-1,121
 789 521 789 521 797 501 c 1,122,123
 822 454 822 454 827 401.5 c 128,-1,124
 832 349 832 349 813 298 c 1,125,126
 793 254 793 254 734 229 c 1,127,128
 723 213 723 213 715 204.5 c 128,-1,129
 707 196 707 196 693 189 c 128,-1,130
 679 182 679 182 663 184 c 1,131,132
 643 170 643 170 610 168.5 c 128,-1,133
 577 167 577 167 554 168 c 1,134,135
 543 172 543 172 528.5 168.5 c 128,-1,136
 514 165 514 165 503.5 160 c 128,-1,137
 493 155 493 155 481 157 c 128,-1,138
 469 159 469 159 461 171 c 1,139,-1
 457 176 l 2,0,1
394 680 m 1,140,141
 389 699 389 699 375 687 c 0,142,143
 364 677 364 677 368 671 c 1,144,145
 370 666 370 666 384 673 c 0,146,147
 385 674 385 674 388 675 c 0,148,149
 393 678 393 678 394 680 c 1,140,141
EndSplineSet
Validated: 2097185
EndChar

StartChar: glyph
Encoding: 84 84 52
Width: 734
GlyphClass: 2
Flags: W
LayerCount: 2
Fore
SplineSet
674 159 m 1,0,1
 660 167 660 167 624 167.5 c 128,-1,2
 588 168 588 168 573 180 c 1,3,4
 558 170 558 170 546.5 165 c 128,-1,5
 535 160 535 160 520.5 162 c 128,-1,6
 506 164 506 164 497 179 c 1,7,8
 456 189 456 189 388 170 c 1,9,10
 368 163 368 163 354.5 178 c 128,-1,11
 341 193 341 193 343.5 214 c 128,-1,12
 346 235 346 235 363 243 c 0,13,14
 377 249 377 249 403.5 241.5 c 128,-1,15
 430 234 430 234 444 245 c 1,16,17
 468 228 468 228 488.5 253 c 128,-1,18
 509 278 509 278 504 305 c 1,19,20
 493 310 493 310 485.5 323.5 c 128,-1,21
 478 337 478 337 482.5 349 c 128,-1,22
 487 361 487 361 506 361 c 1,23,24
 506 377 506 377 506 408 c 128,-1,25
 506 439 506 439 505.5 464 c 128,-1,26
 505 489 505 489 503 511 c 1,27,28
 488 520 488 520 484.5 534 c 128,-1,29
 481 548 481 548 485.5 561.5 c 128,-1,30
 490 575 490 575 490.5 590.5 c 128,-1,31
 491 606 491 606 484 620 c 1,32,33
 479 637 479 637 488 672 c 128,-1,34
 497 707 497 707 491 727 c 1,35,36
 491 736 491 736 486.5 753 c 128,-1,37
 482 770 482 770 480.5 779 c 128,-1,38
 479 788 479 788 485 802 c 1,39,40
 474 815 474 815 476.5 835 c 128,-1,41
 479 855 479 855 484.5 869.5 c 128,-1,42
 490 884 490 884 479 898 c 1,43,44
 468 894 468 894 456 893.5 c 128,-1,45
 444 893 444 893 434 894.5 c 128,-1,46
 424 896 424 896 411 898 c 1,47,48
 368 872 368 872 355 905 c 1,49,50
 346 906 346 906 339.5 898.5 c 128,-1,51
 333 891 333 891 329.5 882.5 c 128,-1,52
 326 874 326 874 318 869 c 128,-1,53
 310 864 310 864 299 868 c 1,54,55
 280 857 280 857 279 839.5 c 128,-1,56
 278 822 278 822 285.5 797.5 c 128,-1,57
 293 773 293 773 292 762 c 0,58,59
 289 742 289 742 285 725 c 128,-1,60
 281 708 281 708 281.5 688.5 c 128,-1,61
 282 669 282 669 291 654 c 1,62,63
 288 637 288 637 274.5 630.5 c 128,-1,64
 261 624 261 624 248.5 629 c 128,-1,65
 236 634 236 634 229 644.5 c 128,-1,66
 222 655 222 655 232 673 c 1,67,68
 240 692 240 692 226 724.5 c 128,-1,69
 212 757 212 757 222 776 c 1,70,71
 222 801 222 801 222 822 c 128,-1,72
 222 843 222 843 225.5 866.5 c 128,-1,73
 229 890 229 890 237 909 c 1,74,75
 234 925 234 925 241 932.5 c 128,-1,76
 248 940 248 940 258.5 940.5 c 128,-1,77
 269 941 269 941 282 945.5 c 128,-1,78
 295 950 295 950 301 960 c 1,79,80
 310 963 310 963 320 962.5 c 128,-1,81
 330 962 330 962 335 961.5 c 128,-1,82
 340 961 340 961 353.5 954.5 c 128,-1,83
 367 948 367 948 369 947 c 128,-1,84
 371 946 371 946 387 936 c 1,85,86
 399 933 399 933 408.5 939 c 128,-1,87
 418 945 418 945 423 954 c 128,-1,88
 428 963 428 963 438 968 c 128,-1,89
 448 973 448 973 460 967 c 0,90,91
 466 964 466 964 476 957 c 128,-1,92
 486 950 486 950 492.5 946 c 128,-1,93
 499 942 499 942 508 942.5 c 128,-1,94
 517 943 517 943 525 953 c 1,95,96
 538 950 538 950 550 945 c 128,-1,97
 562 940 562 940 571 944.5 c 128,-1,98
 580 949 580 949 581 966 c 1,99,100
 590 975 590 975 602.5 977 c 128,-1,101
 615 979 615 979 626 975.5 c 128,-1,102
 637 972 637 972 648.5 967.5 c 128,-1,103
 660 963 660 963 667 958 c 1,104,105
 743 975 743 975 778 977 c 1,106,107
 787 970 787 970 793.5 950.5 c 128,-1,108
 800 931 800 931 812 923 c 1,109,110
 824 901 824 901 827.5 871 c 128,-1,111
 831 841 831 841 829 816 c 128,-1,112
 827 791 827 791 830 762 c 1,113,114
 829 748 829 748 834 725.5 c 128,-1,115
 839 703 839 703 841 690 c 128,-1,116
 843 677 843 677 837 654 c 1,117,118
 836 643 836 643 833 632.5 c 128,-1,119
 830 622 830 622 825 613.5 c 128,-1,120
 820 605 820 605 811 605 c 128,-1,121
 802 605 802 605 791 617 c 1,122,123
 776 627 776 627 770.5 642.5 c 128,-1,124
 765 658 765 658 765 685 c 128,-1,125
 765 712 765 712 764 719 c 0,126,127
 763 803 763 803 750 850 c 1,128,129
 749 864 749 864 750.5 877 c 128,-1,130
 752 890 752 890 744.5 897 c 128,-1,131
 737 904 737 904 719 898 c 1,132,133
 707 897 707 897 687.5 900 c 128,-1,134
 668 903 668 903 656 904 c 128,-1,135
 644 905 644 905 625 898 c 1,136,137
 609 898 609 898 595.5 898.5 c 128,-1,138
 582 899 582 899 575 890.5 c 128,-1,139
 568 882 568 882 574 863 c 1,140,141
 573 854 573 854 577.5 840 c 128,-1,142
 582 826 582 826 581 816.5 c 128,-1,143
 580 807 580 807 569 797 c 1,144,145
 554 775 554 775 561 757 c 128,-1,146
 568 739 568 739 589 727 c 1,147,148
 576 729 576 729 569 725 c 128,-1,149
 562 721 562 721 560.5 712 c 128,-1,150
 559 703 559 703 559.5 695 c 128,-1,151
 560 687 560 687 562.5 674.5 c 128,-1,152
 565 662 565 662 565 657 c 1,153,154
 580 611 580 611 570 531 c 1,155,156
 562 506 562 506 564.5 491 c 128,-1,157
 567 476 567 476 574 450 c 128,-1,158
 581 424 581 424 581 409 c 1,159,160
 583 399 583 399 579 383.5 c 128,-1,161
 575 368 575 368 570.5 356 c 128,-1,162
 566 344 566 344 568.5 331.5 c 128,-1,163
 571 319 571 319 585 312 c 1,164,165
 586 305 586 305 581.5 297.5 c 128,-1,166
 577 290 577 290 572 285.5 c 128,-1,167
 567 281 567 281 566 274 c 128,-1,168
 565 267 565 267 575 261 c 1,169,170
 587 242 587 242 621 245 c 128,-1,171
 655 248 655 248 657 271 c 1,172,173
 668 267 668 267 692.5 246.5 c 128,-1,174
 717 226 717 226 736 224 c 1,175,176
 747 217 747 217 749.5 208.5 c 128,-1,177
 752 200 752 200 745.5 192 c 128,-1,178
 739 184 739 184 732 178 c 128,-1,179
 725 172 725 172 713.5 164 c 128,-1,180
 702 156 702 156 698 153 c 1,181,182
 685 147 685 147 674 159 c 1,0,1
EndSplineSet
Validated: 2097185
EndChar

StartChar: glyph
Encoding: 85 85 53
Width: 734
GlyphClass: 2
Flags: W
LayerCount: 2
Fore
SplineSet
769 994 m 1,0,1
 746 968 746 968 682 972 c 1,2,3
 672 971 672 971 659 977 c 128,-1,4
 646 983 646 983 636.5 988 c 128,-1,5
 627 993 627 993 617 990.5 c 128,-1,6
 607 988 607 988 599 974 c 1,7,8
 599 968 599 968 598 952 c 128,-1,9
 597 936 597 936 597.5 927 c 128,-1,10
 598 918 598 918 603.5 908.5 c 128,-1,11
 609 899 609 899 621 896 c 1,12,13
 627 876 627 876 638.5 869 c 128,-1,14
 650 862 650 862 662 881 c 1,15,16
 679 882 679 882 684 873.5 c 128,-1,17
 689 865 689 865 684.5 852 c 128,-1,18
 680 839 680 839 677.5 824.5 c 128,-1,19
 675 810 675 810 678 800 c 1,20,21
 697 758 697 758 687 709 c 1,22,23
 681 701 681 701 683.5 689.5 c 128,-1,24
 686 678 686 678 691.5 667 c 128,-1,25
 697 656 697 656 695.5 645 c 128,-1,26
 694 634 694 634 681 628 c 1,27,28
 675 616 675 616 682.5 592.5 c 128,-1,29
 690 569 690 569 678 559 c 1,30,31
 678 526 678 526 682 525 c 0,32,33
 684 524 684 524 689 540 c 1,34,35
 692 543 692 543 691 539 c 1,36,37
 676 512 676 512 678 505 c 0,38,39
 679 499 679 499 685 496 c 1,40,41
 693 448 693 448 685 411 c 1,42,43
 676 398 676 398 681.5 379 c 128,-1,44
 687 360 687 360 693 346.5 c 128,-1,45
 699 333 699 333 687 314 c 1,46,47
 637 307 637 307 630 267 c 1,48,49
 577 218 577 218 531 220 c 0,50,51
 514 220 514 220 506.5 207.5 c 128,-1,52
 499 195 499 195 507 183 c 128,-1,53
 515 171 515 171 533 174 c 1,54,55
 552 170 552 170 567.5 176.5 c 128,-1,56
 583 183 583 183 603.5 200.5 c 128,-1,57
 624 218 624 218 630 223 c 1,58,59
 641 226 641 226 651.5 223.5 c 128,-1,60
 662 221 662 221 671.5 224.5 c 128,-1,61
 681 228 681 228 684 241 c 1,62,63
 704 271 704 271 734 337 c 1,64,65
 725 344 725 344 725 352.5 c 128,-1,66
 725 361 725 361 729.5 368 c 128,-1,67
 734 375 734 375 739 385 c 128,-1,68
 744 395 744 395 744 402 c 1,69,70
 733 410 733 410 734.5 420.5 c 128,-1,71
 736 431 736 431 740.5 439 c 128,-1,72
 745 447 745 447 735 458 c 1,73,74
 731 557 731 557 733 594 c 1,75,76
 732 607 732 607 737 628 c 128,-1,77
 742 649 742 649 743.5 660.5 c 128,-1,78
 745 672 745 672 734 693 c 1,79,80
 734 704 734 704 737.5 720 c 128,-1,81
 741 736 741 736 744 748 c 128,-1,82
 747 760 747 760 745.5 774.5 c 128,-1,83
 744 789 744 789 736 801 c 1,84,85
 743 807 743 807 736.5 835.5 c 128,-1,86
 730 864 730 864 733 876 c 1,87,88
 731 891 731 891 733 901 c 128,-1,89
 735 911 735 911 741 913.5 c 128,-1,90
 747 916 747 916 759 901 c 1,91,92
 767 909 767 909 790.5 913.5 c 128,-1,93
 814 918 814 918 829 926 c 128,-1,94
 844 934 844 934 838 952 c 1,95,96
 827 956 827 956 805.5 974.5 c 128,-1,97
 784 993 784 993 769 994 c 1,0,1
312 983 m 1,98,99
 310 981 310 981 302 975.5 c 128,-1,100
 294 970 294 970 291 968.5 c 128,-1,101
 288 967 288 967 281.5 965 c 128,-1,102
 275 963 275 963 269.5 965 c 128,-1,103
 264 967 264 967 257 971 c 0,104,105
 238 979 238 979 226.5 969 c 128,-1,106
 215 959 215 959 219 943 c 128,-1,107
 223 927 223 927 240 921 c 1,108,109
 247 910 247 910 252.5 904.5 c 128,-1,110
 258 899 258 899 266.5 897 c 128,-1,111
 275 895 275 895 282 904 c 1,112,113
 309 897 309 897 316.5 871 c 128,-1,114
 324 845 324 845 319 815 c 1,115,116
 313 794 313 794 320 758 c 128,-1,117
 327 722 327 722 326 707 c 1,118,119
 328 690 328 690 326 674 c 128,-1,120
 324 658 324 658 327 641 c 128,-1,121
 330 624 330 624 341 614 c 1,122,123
 347 596 347 596 334.5 565 c 128,-1,124
 322 534 322 534 326 521 c 1,125,126
 334 514 334 514 335 505 c 128,-1,127
 336 496 336 496 334 489.5 c 128,-1,128
 332 483 332 483 327 472 c 128,-1,129
 322 461 322 461 320 456 c 0,130,131
 313 438 313 438 321.5 403.5 c 128,-1,132
 330 369 330 369 327 352 c 1,133,134
 333 343 333 343 338.5 333 c 128,-1,135
 344 323 344 323 348.5 313.5 c 128,-1,136
 353 304 353 304 355.5 293 c 128,-1,137
 358 282 358 282 358 271 c 1,138,139
 375 267 375 267 378.5 272.5 c 128,-1,140
 382 278 382 278 376 288 c 128,-1,141
 370 298 370 298 367 309.5 c 128,-1,142
 364 321 364 321 369 330 c 1,143,144
 387 335 387 335 391.5 356 c 128,-1,145
 396 377 396 377 376 382 c 1,146,147
 364 447 364 447 369 523 c 1,148,149
 399 582 399 582 366 598 c 1,150,151
 363 611 363 611 366.5 626.5 c 128,-1,152
 370 642 370 642 376.5 655.5 c 128,-1,153
 383 669 383 669 381.5 682.5 c 128,-1,154
 380 696 380 696 367 705 c 1,155,156
 356 719 356 719 360 728 c 128,-1,157
 364 737 364 737 371.5 753.5 c 128,-1,158
 379 770 379 770 375 782 c 1,159,160
 375 791 375 791 374 811 c 128,-1,161
 373 831 373 831 373.5 843 c 128,-1,162
 374 855 374 855 378 870.5 c 128,-1,163
 382 886 382 886 391 897 c 1,164,165
 397 900 397 900 419 904 c 128,-1,166
 441 908 441 908 447 920 c 1,167,168
 461 903 461 903 479 906 c 128,-1,169
 497 909 497 909 490 934 c 1,170,171
 498 955 498 955 483 967.5 c 128,-1,172
 468 980 468 980 454 957 c 0,173,174
 452 954 452 954 448 945 c 0,175,176
 442 930 442 930 438 936 c 0,177,178
 436 938 436 938 434 943 c 0,179,180
 426 956 426 956 409 957.5 c 128,-1,181
 392 959 392 959 373 959.5 c 128,-1,182
 354 960 354 960 343 971 c 1,183,184
 332 976 332 976 312 983 c 1,98,99
718 555 m 1,185,-1
 725 529 l 2,186,187
 724 531 724 531 721 540 c 2,188,-1
 719 547 l 1,189,-1
 718 555 l 1,185,-1
EndSplineSet
Validated: 2097193
EndChar

StartChar: glyph
Encoding: 86 86 54
Width: 734
GlyphClass: 2
Flags: W
LayerCount: 2
Fore
SplineSet
394 967.5 m 128,-1,1
 372 968 372 968 370 948 c 1,2,3
 366 942 366 942 362 940 c 128,-1,4
 358 938 358 938 354 939.5 c 128,-1,5
 350 941 350 941 345.5 944 c 128,-1,6
 341 947 341 947 338 950 c 1,7,8
 330 946 330 946 325 952 c 128,-1,9
 320 958 320 958 316.5 963 c 128,-1,10
 313 968 313 968 308 963 c 1,11,12
 311 949 311 949 304 944 c 128,-1,13
 297 939 297 939 283.5 936.5 c 128,-1,14
 270 934 270 934 264 929 c 1,15,16
 255 926 255 926 253.5 921.5 c 128,-1,17
 252 917 252 917 254.5 913 c 128,-1,18
 257 909 257 909 259.5 903 c 128,-1,19
 262 897 262 897 260 891 c 1,20,21
 253 888 253 888 251.5 884 c 128,-1,22
 250 880 250 880 252.5 876.5 c 128,-1,23
 255 873 255 873 258.5 867.5 c 128,-1,24
 262 862 262 862 262 859 c 0,25,26
 265 846 265 846 286 834.5 c 128,-1,27
 307 823 307 823 306 808 c 0,28,29
 304 777 304 777 332 759 c 1,30,31
 335 750 335 750 333.5 721.5 c 128,-1,32
 332 693 332 693 339 685 c 0,33,34
 345 677 345 677 347.5 656.5 c 128,-1,35
 350 636 350 636 357 627 c 1,36,37
 354 614 354 614 361.5 594 c 128,-1,38
 369 574 369 574 368 563 c 1,39,40
 359 558 359 558 358.5 551 c 128,-1,41
 358 544 358 544 362 538 c 128,-1,42
 366 532 366 532 370.5 523.5 c 128,-1,43
 375 515 375 515 374 509 c 1,44,45
 384 498 384 498 386 473 c 128,-1,46
 388 448 388 448 390 441 c 1,47,48
 398 430 398 430 401.5 405 c 128,-1,49
 405 380 405 380 407 373 c 1,50,51
 408 358 408 358 416.5 341 c 128,-1,52
 425 324 425 324 433 313 c 1,53,54
 443 302 443 302 450 307.5 c 128,-1,55
 457 313 457 313 469 319 c 128,-1,56
 481 325 481 325 490 319 c 1,57,58
 491 309 491 309 500.5 305.5 c 128,-1,59
 510 302 510 302 518 307.5 c 128,-1,60
 526 313 526 313 522 324 c 1,61,62
 525 338 525 338 515.5 341.5 c 128,-1,63
 506 345 506 345 492 345.5 c 128,-1,64
 478 346 478 346 473 353 c 1,65,66
 466 366 466 366 459 384 c 128,-1,67
 452 402 452 402 454 418 c 1,68,69
 454 431 454 431 445 446 c 128,-1,70
 436 461 436 461 429 471 c 1,71,72
 426 479 426 479 426 503 c 128,-1,73
 426 527 426 527 419 532 c 1,74,75
 410 547 410 547 405 570.5 c 128,-1,76
 400 594 400 594 398 611 c 1,77,78
 394 617 394 617 388.5 635 c 128,-1,79
 383 653 383 653 376 660 c 1,80,81
 393 677 393 677 385 711 c 1,82,83
 382 718 382 718 369 732.5 c 128,-1,84
 356 747 356 747 356 760 c 1,85,86
 342 764 342 764 350 776.5 c 128,-1,87
 358 789 358 789 351 791 c 1,88,89
 350 800 350 800 340.5 815 c 128,-1,90
 331 830 331 830 333 842 c 1,91,92
 336 849 336 849 344 860 c 128,-1,93
 352 871 352 871 356 880.5 c 128,-1,94
 360 890 360 890 358 901 c 1,95,96
 361 910 361 910 367.5 911 c 128,-1,97
 374 912 374 912 380 907.5 c 128,-1,98
 386 903 386 903 393 901 c 128,-1,99
 400 899 400 899 406 902 c 1,100,101
 405 910 405 910 417.5 925.5 c 128,-1,102
 430 941 430 941 420 950 c 1,103,0
 416 967 416 967 394 967.5 c 128,-1,1
772 963 m 1,104,105
 764 962 764 962 746 950 c 128,-1,106
 728 938 728 938 717 939 c 1,107,108
 682 947 682 947 684 909 c 0,109,110
 684 897 684 897 691 869 c 1,111,112
 695 859 695 859 695 848.5 c 128,-1,113
 695 838 695 838 692 829 c 128,-1,114
 689 820 689 820 684.5 810 c 128,-1,115
 680 800 680 800 675 791 c 1,116,117
 673 784 673 784 667 771 c 128,-1,118
 661 758 661 758 658 749.5 c 128,-1,119
 655 741 655 741 655 729.5 c 128,-1,120
 655 718 655 718 662 708 c 1,121,122
 673 697 673 697 670 688 c 128,-1,123
 667 679 667 679 659 674 c 128,-1,124
 651 669 651 669 644 660 c 128,-1,125
 637 651 637 651 641 641 c 1,126,127
 644 623 644 623 630.5 598.5 c 128,-1,128
 617 574 617 574 616 568 c 1,129,130
 613 563 613 563 605 542 c 128,-1,131
 597 521 597 521 587 515 c 1,132,133
 586 493 586 493 586.5 482.5 c 128,-1,134
 587 472 587 472 589 450.5 c 128,-1,135
 591 429 591 429 592 418 c 1,136,137
 587 413 587 413 576.5 403 c 128,-1,138
 566 393 566 393 560 386.5 c 128,-1,139
 554 380 554 380 549 369.5 c 128,-1,140
 544 359 544 359 545 349 c 1,141,142
 555 347 555 347 561 333 c 128,-1,143
 567 319 567 319 573 316 c 1,144,145
 563 290 563 290 536 265 c 1,146,147
 530 268 530 268 522 264 c 128,-1,148
 514 260 514 260 507.5 254 c 128,-1,149
 501 248 501 248 494.5 243 c 128,-1,150
 488 238 488 238 483.5 239 c 128,-1,151
 479 240 479 240 477 250 c 0,152,153
 471 273 471 273 467 255 c 0,154,155
 460 229 460 229 468 218 c 1,156,157
 473 202 473 202 499.5 192.5 c 128,-1,158
 526 183 526 183 533 174 c 1,159,160
 537 162 537 162 550 178 c 128,-1,161
 563 194 563 194 561 203 c 0,162,163
 559 216 559 216 563.5 227.5 c 128,-1,164
 568 239 568 239 579.5 253.5 c 128,-1,165
 591 268 591 268 594 274 c 1,166,167
 604 281 604 281 602 289 c 128,-1,168
 600 297 600 297 593 303.5 c 128,-1,169
 586 310 586 310 585 317 c 128,-1,170
 584 324 584 324 596 328 c 1,171,172
 599 342 599 342 612.5 365 c 128,-1,173
 626 388 626 388 630 398 c 1,174,175
 637 408 637 408 639.5 435 c 128,-1,176
 642 462 642 462 651 472 c 1,177,178
 645 478 645 478 644.5 482 c 128,-1,179
 644 486 644 486 647.5 493.5 c 128,-1,180
 651 501 651 501 652 506 c 1,181,182
 683 553 683 553 688 584 c 1,183,184
 692 601 692 601 690.5 638.5 c 128,-1,185
 689 676 689 676 694 693 c 1,186,187
 702 703 702 703 707.5 727 c 128,-1,188
 713 751 713 751 722 761 c 1,189,190
 728 770 728 770 732 781.5 c 128,-1,191
 736 793 736 793 736.5 802 c 128,-1,192
 737 811 737 811 738 825.5 c 128,-1,193
 739 840 739 840 740 848 c 1,194,195
 747 859 747 859 759.5 876 c 128,-1,196
 772 893 772 893 787 899 c 1,197,198
 794 911 794 911 816.5 919 c 128,-1,199
 839 927 839 927 845 934 c 1,200,201
 806 943 806 943 789 953 c 1,202,203
 781 963 781 963 772 963 c 1,104,105
EndSplineSet
Validated: 2097193
EndChar

